<svg width="134" height="90" viewBox="0 0 134 90" fill="none" xmlns="http://www.w3.org/2000/svg">
<path d="M130.744 82.6353C130.744 82.6621 103.462 82.6818 69.8189 82.6818C36.176 82.6818 8.89355 82.6621 8.89355 82.6353C8.89355 82.6085 36.1706 82.5889 69.8278 82.5889C103.485 82.5889 130.744 82.6103 130.744 82.6353Z" fill="#263238"/>
<path d="M57.6286 75.1543C57.8183 75.1986 57.9972 75.2808 58.1544 75.396C58.3115 75.5111 58.4439 75.6568 58.5434 75.8243C58.7414 76.1604 58.8594 76.5376 58.8882 76.9267C58.9668 77.6753 58.7095 78.5043 58.3951 79.185C57.6626 78.783 57.3231 77.879 57.1677 77.4091C56.9354 76.6658 56.9658 75.1811 57.6286 75.1543Z" fill="#49AED2"/>
<path d="M59.3741 80.2343C59.2865 80.0346 59.253 79.8153 59.2772 79.5985C59.3013 79.3818 59.3822 79.1752 59.5117 78.9997C59.6446 78.8271 59.8105 78.6825 59.9997 78.5746C60.189 78.4666 60.3978 78.3973 60.6141 78.3708C60.712 78.3477 60.8139 78.3465 60.9124 78.3672C61.0109 78.3879 61.1036 78.43 61.184 78.4905C61.2486 78.559 61.2939 78.6433 61.3156 78.7349C61.3372 78.8264 61.3344 78.9221 61.3073 79.0122C61.2483 79.1914 61.1436 79.3521 61.0036 79.4785C60.5444 79.9288 60.0173 80.2825 59.3741 80.2343Z" fill="#49AED2"/>
<path d="M59.0799 82.6437C59.0705 82.5931 59.0663 82.5416 59.0674 82.4901C59.0674 82.3793 59.0585 82.2381 59.0531 82.0684C59.0228 81.6015 59.068 81.1327 59.1871 80.6802C59.3144 80.2261 59.5612 79.8146 59.9018 79.4885C60.0053 79.3919 60.1198 79.308 60.243 79.2383C60.2762 79.2185 60.3109 79.2012 60.3466 79.1865C60.3699 79.1758 60.3824 79.1704 60.3842 79.1722C60.2205 79.2716 60.0673 79.3871 59.9268 79.517C59.6025 79.8461 59.3665 80.2517 59.2407 80.6962C59.1232 81.1437 59.0738 81.6063 59.0942 82.0684C59.0942 82.2471 59.0942 82.39 59.0942 82.4901C59.0944 82.5416 59.0896 82.5931 59.0799 82.6437Z" fill="#263238"/>
<path d="M57.7091 76.291C57.7186 76.311 57.7258 76.332 57.7306 76.3536C57.7449 76.4018 57.761 76.4643 57.7824 76.5322C57.8271 76.6948 57.8896 76.9289 57.9611 77.2201C58.1094 77.8008 58.3023 78.6047 58.4971 79.4999C58.6918 80.395 58.8455 81.2061 58.9509 81.7975C59.0027 82.0923 59.0438 82.3335 59.0688 82.4961C59.0813 82.5747 59.0902 82.639 59.0974 82.6873C59.099 82.7099 59.099 82.7326 59.0974 82.7552C59.0888 82.7339 59.0828 82.7117 59.0795 82.6891C59.0688 82.6408 59.0563 82.5783 59.0402 82.4997C59.0081 82.3299 58.9616 82.0923 58.9062 81.8047C58.7919 81.2169 58.6293 80.4039 58.4381 79.5106C58.2469 78.6173 58.0575 77.8115 57.92 77.229C57.8521 76.9414 57.7967 76.7073 57.7574 76.5376L57.7145 76.3589C57.7102 76.3365 57.7084 76.3138 57.7091 76.291Z" fill="#263238"/>
<path d="M58.4095 80.9111C58.2377 80.485 57.9669 80.1059 57.6196 79.8052C57.2723 79.5044 56.8583 79.2907 56.412 79.1816C56.1851 79.128 55.9028 79.1227 55.767 79.3138C55.6312 79.505 55.7313 79.7694 55.8599 79.9642C56.1374 80.3654 56.5273 80.6755 56.9807 80.8555C57.4341 81.0355 57.9306 81.0772 58.4077 80.9754" fill="#49AED2"/>
<path d="M56.6641 79.8535C56.7126 79.8573 56.7605 79.8662 56.807 79.8803C56.8626 79.8929 56.9175 79.9084 56.9714 79.9268C57.0357 79.95 57.109 79.9679 57.1858 80.0036C57.2712 80.037 57.3548 80.0752 57.436 80.1179C57.53 80.165 57.6213 80.2175 57.7093 80.2752C57.9122 80.4077 58.0992 80.5629 58.2667 80.7379C58.4318 80.9154 58.5757 81.1115 58.6955 81.3222C58.7468 81.4141 58.7928 81.509 58.8331 81.6062C58.8698 81.6902 58.902 81.7761 58.9296 81.8635C58.9526 81.9357 58.9716 82.0091 58.9868 82.0833C59.0019 82.1383 59.0126 82.1945 59.0189 82.2512C59.0292 82.2988 59.0346 82.3473 59.035 82.3959C59.0225 82.3959 58.9993 82.1905 58.8921 81.876C58.8634 81.7903 58.83 81.7062 58.792 81.6241C58.7507 81.529 58.7035 81.4365 58.6509 81.3472C58.5317 81.1413 58.3896 80.9495 58.2274 80.7754C58.0657 80.6042 57.886 80.4509 57.6914 80.3181C57.605 80.2598 57.5156 80.2061 57.4234 80.1573C57.3395 80.109 57.2555 80.0733 57.1805 80.0393C56.8642 79.9071 56.6605 79.8642 56.6641 79.8535Z" fill="#263238"/>
<path d="M114.525 80.7575C114.593 80.4966 114.421 80.234 114.228 80.0428C114.036 79.8517 113.805 79.6855 113.705 79.4318C113.542 79.0244 113.76 78.4974 113.483 78.1579C113.321 77.9578 113.03 77.8899 112.885 77.6773C112.818 77.5591 112.774 77.4294 112.754 77.2949C112.6 76.6185 112.267 75.9959 111.79 75.4922C111.758 76.0951 111.889 76.6954 112.168 77.2306C112.299 77.4361 112.395 77.6619 112.453 77.8988C112.513 78.2865 112.297 78.685 112.392 79.0655C112.501 79.4997 112.989 79.7909 113.012 80.2376C113.031 80.6163 112.701 80.9522 112.726 81.3274C112.746 81.488 112.804 81.6415 112.894 81.7759C113.024 82.026 113.222 82.2345 113.465 82.3776C113.708 82.5207 113.986 82.5927 114.268 82.5853L115.066 82.6138L114.525 80.7575Z" fill="#49AED2"/>
<g opacity="0.3">
<path d="M114.525 80.7575C114.593 80.4966 114.421 80.234 114.228 80.0428C114.036 79.8517 113.805 79.6855 113.705 79.4318C113.542 79.0244 113.76 78.4974 113.483 78.1579C113.321 77.9578 113.03 77.8899 112.885 77.6773C112.818 77.5591 112.774 77.4294 112.754 77.2949C112.6 76.6185 112.267 75.9959 111.79 75.4922C111.758 76.0951 111.889 76.6954 112.168 77.2306C112.299 77.4361 112.395 77.6619 112.453 77.8988C112.513 78.2865 112.297 78.685 112.392 79.0655C112.501 79.4997 112.989 79.7909 113.012 80.2376C113.031 80.6163 112.701 80.9522 112.726 81.3274C112.746 81.488 112.804 81.6415 112.894 81.7759C113.024 82.026 113.222 82.2345 113.465 82.3776C113.708 82.5207 113.986 82.5927 114.268 82.5853L115.066 82.6138L114.525 80.7575Z" fill="black"/>
</g>
<path d="M115.228 82.6316C115.3 82.6445 115.375 82.6445 115.447 82.6316C115.536 82.6187 115.623 82.5972 115.707 82.5673C115.822 82.5259 115.93 82.4655 116.026 82.3886C116.085 82.3413 116.13 82.2798 116.159 82.2099C116.182 82.1329 116.195 82.0529 116.196 81.9723C116.197 81.8856 116.204 81.7991 116.216 81.7132C116.23 81.6224 116.263 81.5355 116.312 81.4577C116.441 81.293 116.543 81.1083 116.612 80.911C116.651 80.679 116.644 80.4416 116.591 80.2124C116.533 79.9647 116.54 79.7064 116.611 79.462C116.696 79.2137 116.87 78.9868 116.957 78.7063C117.045 78.4258 117.004 78.1167 117.023 77.8129C117.029 77.6599 117.064 77.5094 117.127 77.3698C117.191 77.2287 117.281 77.0965 117.35 76.9482C117.472 76.6366 117.541 76.3069 117.556 75.9727C117.575 75.8047 117.595 75.635 117.613 75.4635C117.625 75.2905 117.655 75.1192 117.702 74.9525C117.755 74.7841 117.819 74.6194 117.893 74.4594C117.931 74.3753 117.962 74.2888 117.986 74.2003C118.001 74.1074 118.006 74.0216 118.011 73.9269C118.02 73.7426 118.013 73.5579 117.99 73.3749C117.968 73.1962 117.935 73.0068 117.915 72.8228V72.7906V72.7549L117.883 72.771C117.714 72.8553 117.566 72.9776 117.452 73.1283C117.342 73.2769 117.253 73.4406 117.189 73.6143C117.075 73.9543 116.992 74.3042 116.941 74.6595C116.89 74.9981 116.779 75.3249 116.612 75.6243C116.525 75.7654 116.419 75.8958 116.327 76.0334C116.227 76.1687 116.16 76.3243 116.128 76.489C116.082 76.8267 116.268 77.1233 116.228 77.4217C116.211 77.5688 116.162 77.7103 116.084 77.8362C116.01 77.963 115.926 78.0809 115.844 78.1935C115.762 78.3091 115.691 78.4324 115.632 78.5615C115.575 78.6878 115.541 78.8235 115.533 78.9618C115.514 79.2298 115.551 79.4853 115.533 79.7265C115.511 79.9558 115.445 80.1786 115.337 80.3822C115.24 80.5787 115.133 80.7556 115.044 80.9182C114.999 81.0012 114.958 81.0865 114.922 81.1737C114.89 81.2549 114.867 81.3394 114.853 81.4256C114.83 81.5766 114.83 81.7301 114.853 81.8812C114.874 82.092 114.953 82.2928 115.081 82.4618C115.101 82.4862 115.123 82.5095 115.146 82.5315C115.162 82.5481 115.18 82.5631 115.199 82.5762L115.244 82.6083C115.188 82.5625 115.136 82.511 115.09 82.4547C114.966 82.2859 114.891 82.0863 114.872 81.8776C114.855 81.7284 114.858 81.5774 114.883 81.4292C114.899 81.3448 114.923 81.2623 114.954 81.1826C114.99 81.0972 115.031 81.0137 115.076 80.9325C115.165 80.7538 115.274 80.5858 115.372 80.3875C115.483 80.1809 115.553 79.9545 115.576 79.7211C115.598 79.4745 115.56 79.2173 115.576 78.9546C115.585 78.8212 115.617 78.6904 115.673 78.5687C115.731 78.4432 115.802 78.3235 115.883 78.2114C115.964 78.0934 116.05 77.9755 116.125 77.8451C116.206 77.7144 116.258 77.5674 116.277 77.4145C116.316 77.0947 116.132 76.7963 116.178 76.4837C116.21 76.3259 116.276 76.1771 116.371 76.0477C116.461 75.9119 116.568 75.7833 116.657 75.6368C116.828 75.333 116.942 75.0006 116.993 74.6559C117.044 74.3039 117.127 73.9571 117.24 73.6196C117.303 73.4506 117.389 73.2912 117.497 73.1462C117.605 73.0002 117.746 72.8815 117.908 72.7995L117.872 72.7781V72.8103C117.892 72.9979 117.926 73.1801 117.947 73.3623C117.968 73.5402 117.975 73.7194 117.967 73.8983C117.965 73.9875 117.957 74.0764 117.943 74.1646C117.92 74.2502 117.891 74.3338 117.854 74.4147C117.779 74.5765 117.715 74.743 117.661 74.9132C117.613 75.0823 117.583 75.2559 117.572 75.4313C117.552 75.61 117.533 75.7743 117.515 75.9423C117.501 76.2709 117.433 76.595 117.315 76.9017C117.248 77.0465 117.159 77.1805 117.091 77.327C117.027 77.4717 116.991 77.6277 116.986 77.7861C116.968 78.0934 117.007 78.3954 116.925 78.667C116.843 78.9385 116.668 79.1654 116.58 79.4227C116.509 79.673 116.502 79.9376 116.562 80.191C116.615 80.4158 116.624 80.6488 116.589 80.8771C116.52 81.0702 116.42 81.2511 116.294 81.4131C116.244 81.4944 116.211 81.5849 116.196 81.6793C116.185 81.7658 116.179 81.8529 116.178 81.9401C116.178 82.0188 116.167 82.0971 116.144 82.1724C116.118 82.2376 116.075 82.2953 116.021 82.3403C115.927 82.4167 115.822 82.4771 115.708 82.519C115.626 82.55 115.54 82.5728 115.453 82.5869C115.399 82.5979 115.345 82.6033 115.29 82.603L115.228 82.6316Z" fill="#263238"/>
<path d="M117.741 73.2314C117.74 73.2398 117.74 73.2481 117.741 73.2565L117.723 73.3279C117.707 73.3905 117.689 73.4852 117.659 73.6049C117.628 73.7246 117.555 73.855 117.493 74.0211C117.42 74.2059 117.356 74.3943 117.303 74.5857C117.243 74.8001 117.189 75.036 117.125 75.2879C117.077 75.5589 116.991 75.8218 116.869 76.0687C116.805 76.1973 116.73 76.3295 116.673 76.4725C116.615 76.6194 116.576 76.7731 116.556 76.9298C116.514 77.2544 116.455 77.5765 116.378 77.8946C116.219 78.5486 116.065 79.1721 115.928 79.7385C115.79 80.3049 115.656 80.8105 115.549 81.2429C115.442 81.6752 115.358 82.0129 115.299 82.2577C115.27 82.3738 115.249 82.4667 115.233 82.5328L115.216 82.6061C115.216 82.6144 115.216 82.6228 115.216 82.6311C115.216 82.6311 115.216 82.6222 115.225 82.6061L115.247 82.5364C115.265 82.4685 115.29 82.3774 115.322 82.2613C115.384 82.0183 115.475 81.6752 115.588 81.2518C115.701 80.8283 115.829 80.3138 115.976 79.751C116.122 79.1882 116.271 78.5611 116.431 77.9071C116.508 77.5871 116.568 77.2633 116.61 76.937C116.629 76.7842 116.666 76.6342 116.721 76.4903C116.778 76.351 116.849 76.2205 116.916 76.0883C117.036 75.8382 117.122 75.5724 117.169 75.2986C117.225 75.0449 117.276 74.8091 117.334 74.5965C117.391 74.3838 117.455 74.1945 117.512 74.0301C117.569 73.8657 117.641 73.7317 117.67 73.6084C117.698 73.4851 117.712 73.394 117.725 73.3297L117.741 73.2529C117.741 73.2404 117.741 73.2314 117.741 73.2314Z" fill="#263238"/>
<path d="M115.369 82.6333C115.891 82.3242 116.039 81.3827 115.823 80.8181C115.606 80.2535 115.224 79.7354 115.165 79.1315C115.12 78.6669 115.272 78.1917 115.165 77.7379C115.02 77.1268 114.424 76.6534 114.429 76.0245C114.429 75.6671 114.635 75.3384 114.618 74.9864C114.599 74.554 114.261 74.211 114.061 73.8304C113.747 73.2462 113.727 72.5583 113.618 71.9044C113.509 71.2505 113.261 70.5501 112.682 70.2285C112.598 70.7842 112.451 71.1647 112.503 71.9151C112.521 72.1867 112.834 72.703 112.876 73.2944C112.901 73.6518 112.919 74.0091 112.941 74.3557C112.945 74.7017 113.002 75.045 113.109 75.3741C113.203 75.6207 113.355 75.8458 113.425 76.0995C113.557 76.5801 113.384 77.1 113.491 77.586C113.58 77.9969 113.866 78.3507 113.923 78.7688C114.006 79.3548 113.627 79.9641 113.82 80.5233C113.916 80.802 114.145 81.0253 114.209 81.3112C114.261 81.5345 114.209 81.7686 114.25 81.9919C114.324 82.3493 115.011 82.6316 115.378 82.6101" fill="#49AED2"/>
<path d="M112.824 70.7803C112.824 70.7803 112.824 70.791 112.824 70.8106L112.837 70.9018C112.847 70.9822 112.862 71.1001 112.889 71.2591C112.915 71.4181 112.996 71.5843 113.067 71.7951C113.139 72.0059 113.199 72.2418 113.258 72.5098C113.317 72.7778 113.367 73.0726 113.419 73.3906C113.461 73.734 113.551 74.0697 113.687 74.3876C113.759 74.5555 113.841 74.7217 113.903 74.8985C113.963 75.0815 114 75.2711 114.012 75.4631C114.042 75.87 114.093 76.2749 114.166 76.6763C114.325 77.4981 114.477 78.2843 114.616 78.9989C114.756 79.7136 114.893 80.3479 115.004 80.8874C115.115 81.427 115.206 81.8558 115.27 82.1596C115.301 82.3061 115.326 82.4222 115.343 82.5044L115.365 82.5937L115.374 82.6241C115.375 82.614 115.375 82.6038 115.374 82.5937L115.358 82.5026C115.342 82.4204 115.32 82.3025 115.293 82.1542C115.233 81.8505 115.147 81.4163 115.043 80.8803C114.94 80.3443 114.798 79.685 114.657 78.9704C114.516 78.2557 114.37 77.4749 114.211 76.6477C114.139 76.2474 114.087 75.8437 114.057 75.4381C114.043 75.2424 114.006 75.0492 113.944 74.8628C113.88 74.6841 113.798 74.5144 113.725 74.35C113.59 74.0353 113.499 73.7034 113.455 73.3638C113.401 73.0458 113.35 72.7492 113.287 72.4812C113.233 72.2398 113.167 72.0012 113.089 71.7665C113.023 71.5593 112.94 71.3877 112.91 71.2305C112.88 71.0733 112.864 70.9607 112.847 70.8821C112.847 70.8446 112.835 70.816 112.831 70.7928C112.829 70.7885 112.827 70.7843 112.824 70.7803Z" fill="#263238"/>
<path d="M100.154 59.0547H20.8135V66.9839H100.154V59.0547Z" fill="#49AED2"/>
<g opacity="0.4">
<path d="M100.154 59.0547H20.8135V66.9839H100.154V59.0547Z" fill="black"/>
</g>
<path d="M82.9646 67.9844H59.5449V75.3276H82.9646V67.9844Z" fill="#455A64"/>
<path d="M43.1787 64.6631V74.37H51.1758L54.3811 69.7247H112.771V64.6631H43.1787Z" fill="#263238"/>
<path d="M42.6802 33.9255C42.6715 33.7694 42.6018 33.623 42.4862 33.5178C42.3706 33.4125 42.2183 33.3569 42.0621 33.3627C38.9014 33.4932 23.897 34.181 20.8114 35.664C18.4495 36.8003 15.8624 41.0418 14.0382 43.8987C12.7303 45.9462 9.84131 50.4915 9.25707 52.8159C8.76216 54.7813 8.46379 58.8692 8.49774 60.897L9.32318 71.6278H22.9215L24.2829 68.083C24.7174 66.9539 25.4838 65.9829 26.4812 65.2981C27.4785 64.6133 28.66 64.2469 29.8698 64.247H43.3824V46.4393L42.6802 33.9255Z" fill="#49AED2"/>
<path d="M19.1994 36.8516C17.327 38.6382 15.4474 41.6756 14.0377 43.8982C12.8264 45.7938 10.2607 49.8299 9.42276 52.2633C9.40668 52.308 9.39418 52.3509 9.37988 52.3956C9.79439 52.2812 10.4322 52.0472 10.6305 51.6541C10.9289 51.0591 11.3113 49.0206 16.0388 41.3254C17.4753 38.9795 18.876 37.6073 19.1994 36.8516Z" fill="#455A64"/>
<path d="M35.6942 36.0564C32.2174 36.2547 24.6794 36.771 22.271 37.5893C19.1336 38.6613 15.6121 46.9675 15.446 47.332L13.0733 53.4067C13.06 53.4464 13.0563 53.4887 13.0625 53.5301C13.0688 53.5715 13.0848 53.6109 13.1092 53.6449C13.1336 53.6789 13.1658 53.7066 13.203 53.7258C13.2403 53.7449 13.2815 53.755 13.3234 53.7551H19.457C19.6893 53.7551 19.9198 53.714 20.1377 53.6336L36.2696 47.6197C36.6257 47.4868 36.9328 47.2482 37.1496 46.9359C37.3664 46.6236 37.4827 46.2525 37.4827 45.8723V37.7483C37.4828 37.5179 37.4359 37.2898 37.3448 37.0781C37.2537 36.8664 37.1204 36.6755 36.953 36.5171C36.7855 36.3587 36.5875 36.2361 36.3711 36.1569C36.1547 36.0777 35.9244 36.0435 35.6942 36.0564Z" fill="#263238"/>
<path d="M13.7578 53.1584C13.7578 53.1584 16.0305 48.061 16.7951 46.3905C17.9493 43.8677 20.6454 38.7078 22.466 38.1522C24.1401 37.6501 28.9534 37.0391 35.7285 36.6514H35.7928C36.0837 36.6523 36.3625 36.7684 36.5681 36.9743C36.7736 37.1803 36.8893 37.4592 36.8898 37.7502V46.0582C36.8891 46.2629 36.8262 46.4626 36.7094 46.6308C36.5927 46.7989 36.4275 46.9276 36.2359 46.9997L24.317 48.4702C23.8392 48.5291 23.38 48.6913 22.9712 48.9456C22.5624 49.1998 22.2138 49.5399 21.9497 49.9424L19.8843 53.0923C19.7631 53.1372 19.6348 53.1601 19.5055 53.1602L13.7578 53.1584Z" fill="#455A64"/>
<path d="M23.8842 48.5611L19.832 53.0742L22.0743 38.0894L22.6353 37.8965L21.5312 48.997C21.5259 49.0528 21.5351 49.1089 21.5578 49.1601C21.5806 49.2113 21.616 49.2557 21.6609 49.2893C21.7057 49.3228 21.7584 49.3443 21.8139 49.3516C21.8694 49.3589 21.9258 49.3519 21.9778 49.3311L23.8842 48.5611Z" fill="#263238"/>
<path d="M8.23143 61.938C8.21714 61.7433 8.28324 61.5807 8.3833 61.5807L10.5559 61.3806C10.7346 61.3627 10.9007 61.7004 10.9222 62.0952L11.0204 63.7622C11.0365 64.0302 10.9561 64.2571 10.8418 64.2768L8.62629 64.6591C8.52623 64.677 8.42975 64.5287 8.41546 64.3321L8.23143 61.938Z" fill="#EBEBEB"/>
<path d="M23.8843 69.7266H8.22949V76.0031H23.8843V69.7266Z" fill="#263238"/>
<path d="M34.3347 82.5587C39.0617 82.3771 42.7465 78.3979 42.5649 73.6709C42.3833 68.9439 38.4041 65.2591 33.6771 65.4407C28.9501 65.6223 25.2654 69.6015 25.447 74.3285C25.6286 79.0555 29.6077 82.7403 34.3347 82.5587Z" fill="#263238"/>
<path d="M25.448 73.8516C25.449 73.8593 25.449 73.8671 25.448 73.8748C25.4181 76.1445 26.2902 78.3332 27.873 79.9603C29.4558 81.5873 31.6196 82.5196 33.8893 82.5522C36.1589 82.5849 38.3487 81.7153 39.9776 80.1345C41.6066 78.5537 42.5414 76.391 42.5768 74.1213C42.5768 74.1213 42.5768 74.1071 42.5768 74.0999L25.448 73.8516Z" fill="#263238"/>
<path d="M27.9977 73.9106C27.9802 75.1 28.3158 76.2679 28.962 77.2665C29.6083 78.2652 30.5362 79.0498 31.6284 79.5211C32.7206 79.9924 33.928 80.1291 35.098 79.9141C36.2679 79.6992 37.3478 79.142 38.2011 78.3132C39.0544 77.4844 39.6427 76.4212 39.8917 75.258C40.1407 74.0948 40.0391 72.8839 39.5998 71.7785C39.1606 70.673 38.4033 69.7226 37.4239 69.0476C36.4445 68.3725 35.2868 68.0031 34.0974 67.986C32.503 67.9631 30.9647 68.5743 29.8209 69.6853C28.677 70.7963 28.0212 72.3161 27.9977 73.9106Z" fill="#FAFAFA"/>
<path d="M34.0968 67.986C32.5023 67.9631 30.9641 68.5743 29.8202 69.6853C28.6764 70.7963 28.0206 72.3161 27.9971 73.9106L40.0231 74.0892C40.0465 72.494 39.4353 70.9548 38.3239 69.8103C37.2125 68.6657 35.692 68.0095 34.0968 67.986Z" fill="#E0E0E0"/>
<path d="M30.349 73.9444C30.3385 74.6688 30.543 75.38 30.9367 75.9881C31.3304 76.5963 31.8956 77.074 32.5609 77.3609C33.2261 77.6477 33.9615 77.7309 34.6739 77.5999C35.3864 77.4688 36.0441 77.1294 36.5637 76.6245C37.0832 76.1197 37.4414 75.4721 37.593 74.7637C37.7445 74.0553 37.6825 73.3178 37.4149 72.6446C37.1473 71.9714 36.686 71.3927 36.0895 70.9816C35.4929 70.5706 34.7879 70.3457 34.0635 70.3353C33.0924 70.3215 32.1555 70.6939 31.4589 71.3707C30.7624 72.0475 30.3631 72.9733 30.349 73.9444Z" fill="#263238"/>
<path d="M17.3968 41.4971H16.6982C15.9108 41.4971 15.2725 42.1354 15.2725 42.9228V48.5919C15.2725 49.3794 15.9108 50.0177 16.6982 50.0177H17.3968C18.1842 50.0177 18.8226 49.3794 18.8226 48.5919V42.9228C18.8226 42.1354 18.1842 41.4971 17.3968 41.4971Z" fill="#263238"/>
<path d="M13.8037 55.285H13.625V46.2748C13.6255 45.8452 13.7964 45.4333 14.1002 45.1295C14.404 44.8257 14.8159 44.6548 15.2455 44.6543H15.6743V44.833H15.2455C14.8633 44.8334 14.4968 44.9855 14.2265 45.2558C13.9562 45.5261 13.8041 45.8926 13.8037 46.2748V55.285Z" fill="#263238"/>
<path d="M15.0204 55.295L14.5237 46.8709C14.5167 46.7269 14.5389 46.5829 14.5888 46.4476C14.6388 46.3124 14.7155 46.1886 14.8144 46.0836C14.9134 45.9787 15.0324 45.8948 15.1645 45.837C15.2966 45.7792 15.439 45.7486 15.5832 45.7471V45.9257C15.463 45.9258 15.344 45.9504 15.2336 45.998C15.1232 46.0457 15.0237 46.1154 14.9412 46.2029C14.8587 46.2904 14.795 46.3939 14.7539 46.5069C14.7129 46.6199 14.6953 46.7401 14.7024 46.8602L15.1991 55.2861L15.0204 55.295Z" fill="#263238"/>
<path d="M15.5832 54.4736H13.1748V57.2626H15.5832V54.4736Z" fill="#263238"/>
<path d="M14.6939 49.1797H13.7148V49.3584H14.6939V49.1797Z" fill="#263238"/>
<path d="M22.87 36.2979L23.0826 36.2693L23.7098 36.1961L26.1396 35.9156L35.198 34.8847C35.6804 34.8329 36.1718 34.7685 36.681 34.7239C36.9411 34.704 37.2027 34.7209 37.4582 34.7739C37.7179 34.8346 37.9684 34.9296 38.2032 35.0562C38.6875 35.3257 39.0801 35.7339 39.3306 36.2282C39.4602 36.481 39.5477 36.7531 39.5896 37.034C39.6121 37.1759 39.6247 37.3192 39.6272 37.4628V37.8934C39.6272 40.2 39.6272 42.6763 39.6272 45.3009C39.6272 50.5502 39.6272 56.389 39.6272 62.6316V62.6781H30.2168C29.6796 62.6604 29.1419 62.6861 28.6088 62.7549C27.5092 62.9131 26.4718 63.362 25.6036 64.0552C24.7355 64.7484 24.0681 65.6607 23.6704 66.6981C23.5933 66.8885 23.5282 67.0836 23.4757 67.2823C23.4176 67.4788 23.3717 67.6787 23.3381 67.8808L23.2917 68.1846L23.2702 68.3364L23.2613 68.4883L23.247 68.7938V68.9475V68.9653C23.2863 68.926 23.1916 69.0261 23.1988 69.0154H11.2656V68.9653C11.2656 66.2728 11.2656 63.6768 11.2656 61.1969C11.2656 59.957 11.2656 58.7462 11.2656 57.5646V55.8173C11.2656 55.5296 11.2656 55.2455 11.2656 54.9614C11.2714 54.6789 11.2917 54.3968 11.3264 54.1164C11.4626 53.0353 11.806 51.9907 12.3376 51.0397C12.8296 50.1142 13.306 49.2209 13.767 48.3597L16.3005 43.6125L18.3569 39.7587C18.507 39.4788 18.6511 39.2078 18.7893 38.9458C18.8607 38.8171 18.9233 38.6867 18.9983 38.5652C19.0723 38.4465 19.1528 38.332 19.2395 38.2222C19.5494 37.8358 19.9141 37.4969 20.3222 37.2163C20.8843 36.8347 21.5127 36.5614 22.175 36.4105C22.4024 36.3559 22.6335 36.3183 22.8665 36.2979L22.6878 36.3247C22.5717 36.3426 22.4001 36.373 22.175 36.4248C21.5166 36.5804 20.8926 36.8567 20.3347 37.2395C19.9301 37.5205 19.5689 37.8594 19.2627 38.2454C19.1762 38.3533 19.0969 38.4667 19.0251 38.5849C18.9519 38.7028 18.8893 38.835 18.8179 38.9654L18.3873 39.7801L16.3487 43.6376C15.584 45.0776 14.7407 46.6659 13.8295 48.3883L12.4002 51.0683C11.8734 52.0122 11.5343 53.049 11.4014 54.1217C11.3674 54.3998 11.3477 54.6795 11.3425 54.9597C11.3425 55.2402 11.3425 55.5278 11.3425 55.8137V57.561C11.3425 58.7414 11.3425 59.9522 11.3425 61.1933C11.3425 63.6732 11.3425 66.2693 11.3425 68.9618L11.2978 68.9189H23.1845C23.197 68.9099 23.0987 69.0046 23.1398 68.9618V68.9421V68.7885L23.1559 68.4776V68.3239L23.1791 68.1703L23.2256 67.8612C23.2595 67.656 23.3061 67.4531 23.3649 67.2537C23.4184 67.052 23.4846 66.8538 23.5633 66.6605C23.9673 65.6081 24.6447 64.6824 25.5256 63.9789C26.4065 63.2754 27.4591 62.8196 28.5748 62.6584C29.108 62.5906 29.6457 62.5649 30.1828 62.5816H39.5503L39.5039 62.6262C39.5039 56.3908 39.5039 50.5519 39.5039 45.2956C39.5039 42.671 39.5039 40.1946 39.5039 37.8881C39.5155 37.6047 39.5036 37.3208 39.4682 37.0394C39.4275 36.7648 39.3424 36.4987 39.2162 36.2515C38.9737 35.7682 38.5907 35.3696 38.1174 35.108C37.8894 34.9831 37.6453 34.89 37.392 34.8311C37.1426 34.7784 36.887 34.761 36.6327 34.7793C36.1271 34.8221 35.6322 34.8865 35.1516 34.9383L26.095 35.9406L23.6633 36.2068L23.0362 36.2729L22.87 36.2979Z" fill="#263238"/>
<path d="M36.7748 56.0437C36.7748 56.0437 36.8249 56.0437 36.9142 56.0223C37.0456 55.999 37.1708 55.9491 37.2823 55.8758C37.458 55.7606 37.5896 55.5893 37.6557 55.3898C37.696 55.2654 37.7124 55.1344 37.7039 55.0039C37.7001 54.8592 37.6628 54.7173 37.5949 54.5894C37.5172 54.443 37.4016 54.3202 37.2601 54.2338C37.1187 54.1473 36.9567 54.1005 36.7909 54.0981H35.6117H32.9103C32.6854 54.0984 32.4684 54.1814 32.3007 54.3313C32.133 54.4812 32.0263 54.6875 32.0009 54.911C31.9728 55.1232 32.0122 55.3388 32.1134 55.5274C32.2139 55.7058 32.3711 55.8454 32.5601 55.924C32.747 55.9889 32.9455 56.0133 33.1426 55.9955H33.7143H34.7416L36.2299 56.0098H36.6355C36.6822 56.0088 36.7289 56.0124 36.7748 56.0205C36.7286 56.0261 36.6821 56.0291 36.6355 56.0294H36.2299L34.7416 56.0437H33.7143H33.1426C33.0425 56.0437 32.946 56.0437 32.8406 56.0437C32.7334 56.0357 32.628 56.0116 32.5279 55.9723C32.3213 55.8865 32.149 55.7344 32.0384 55.5399C31.9274 55.3352 31.8837 55.1008 31.9133 54.8699C31.9409 54.6246 32.0578 54.398 32.2416 54.2333C32.4255 54.0686 32.6634 53.9772 32.9103 53.9766H35.6117H36.7909C37.0486 53.9817 37.2943 54.0869 37.4757 54.27C37.6571 54.4531 37.7601 54.6997 37.7629 54.9574C37.7685 55.094 37.7485 55.2303 37.7039 55.3594C37.6304 55.5669 37.4887 55.7433 37.3019 55.8597C37.1854 55.9323 37.0542 55.978 36.9178 55.9937C36.8724 56.0162 36.8244 56.033 36.7748 56.0437Z" fill="#263238"/>
<path d="M36.4479 53.8001C35.9388 53.8449 35.4276 53.8598 34.9167 53.8447C34.4053 53.8598 33.8935 53.8449 33.3838 53.8001C33.8934 53.7541 34.4053 53.7386 34.9167 53.7536C35.4276 53.7386 35.9389 53.7541 36.4479 53.8001Z" fill="white"/>
<path d="M24.5973 76.055L23.168 75.9514C23.5414 70.8326 24.0881 67.7702 24.8403 66.5892C26.2839 64.3202 27.7186 63.9092 29.307 63.6395C30.7863 63.3875 32.2782 63.4465 33.7218 63.5055L34.0791 63.5197C37.0593 63.6359 43.3019 63.5323 43.3698 63.5323L43.393 64.9616C43.3305 64.9616 37.0486 65.067 34.0291 64.9491L33.6718 64.9348C32.3014 64.8812 30.8864 64.8222 29.5535 65.0509C28.1331 65.2921 27.188 65.5691 26.0481 67.3593C25.7032 67.8935 25.0565 69.7499 24.5973 76.055Z" fill="#263238"/>
<path d="M114.522 17.7451H44.1309V64.613H114.522V17.7451Z" fill="#49AED2"/>
<path d="M113.679 63.6855C113.679 63.3836 113.665 46.194 113.641 18.8044L113.679 18.8402L44.8922 18.8509L44.9386 18.8044C44.9386 34.7576 44.9386 49.9425 44.9386 63.6855L44.8957 63.6426L113.682 63.6855L44.8957 63.7284H44.8457V63.6855C44.8457 49.9425 44.8457 34.7576 44.8457 18.8044V18.7598H44.8975L113.684 18.7687H113.722V18.8062C113.693 46.194 113.679 63.3853 113.679 63.6855Z" fill="#263238"/>
<g opacity="0.5">
<path d="M54.1113 42.8875L54.776 56.2928L106.981 45.4335L106.057 31.46L54.1113 42.8875Z" fill="black"/>
</g>
<path d="M58.0674 52.1708L58.4247 50.9201C59.1235 51.2209 59.899 51.2946 60.642 51.131C61.4406 50.9523 61.8926 50.5735 61.7872 50.1144C61.571 49.1085 58.5712 50.3162 58.1371 48.3116C57.8601 47.0181 58.8124 45.9389 60.5562 45.5655C61.4013 45.3868 62.2232 45.4047 62.8467 45.637L62.534 46.8644C61.9552 46.6467 61.3249 46.6051 60.7224 46.7447C59.8773 46.9234 59.4521 47.3557 59.5485 47.806C59.7629 48.8405 62.7735 47.6273 63.1898 49.5623C63.4685 50.8665 62.4983 51.9493 60.7456 52.3245C59.7236 52.546 58.6874 52.4477 58.0674 52.1708Z" fill="white"/>
<path d="M69.9448 43.6572L70.0359 50.2179L68.5797 50.5305L68.5422 47.8595L65.6925 48.4705L65.7318 51.1505L64.2649 51.456L64.1738 44.8936L65.6389 44.5791L65.6746 47.1573L68.5244 46.5463L68.4886 43.9681L69.9448 43.6572Z" fill="white"/>
<path d="M71.4346 43.3369L72.8961 43.0225L72.9872 49.5831L71.5221 49.8976L71.4346 43.3369Z" fill="white"/>
<path d="M79.8107 43.5943C80.1537 45.1934 79.1907 46.453 77.3094 46.8478L75.9068 47.148L75.9336 48.9543L74.4686 49.2687L74.3828 42.701L76.927 42.165C78.4993 41.8201 79.5463 42.3579 79.8107 43.5943ZM78.3635 44.0356C78.2331 43.4246 77.74 43.2298 77.0021 43.3888L75.8604 43.6336L75.889 45.9116L77.12 45.6472C78.0776 45.4363 78.5422 44.8664 78.3635 44.0302V44.0356Z" fill="white"/>
<path d="M86.2959 42.1952C86.6389 43.8032 85.6759 45.0539 83.7946 45.4487L82.3938 45.7507L82.4242 47.557L80.9591 47.8714L80.8662 41.3108L83.4104 40.7641C84.9881 40.4264 86.035 40.9642 86.2959 42.1952ZM84.8487 42.6383C84.7183 42.0255 84.2234 41.8307 83.4873 41.9897L82.3456 42.2345L82.3742 44.5143L83.6052 44.2499C84.57 44.0426 85.0309 43.4727 84.8523 42.6383H84.8487Z" fill="white"/>
<path d="M87.3682 39.918L88.8332 39.6035L88.9261 46.1659L87.4611 46.4804L87.3682 39.918Z" fill="white"/>
<path d="M96.0804 38.0557L96.1733 44.6163L94.9762 44.8736L91.787 41.4325L91.8406 45.5418L90.4113 45.8509L90.3184 39.2885L91.5226 39.0294L94.7153 42.4723L94.651 38.363L96.0804 38.0557Z" fill="white"/>
<path d="M101.874 39.9911L103.205 39.7053L103.239 42.4049C102.649 43.063 101.861 43.5124 100.995 43.686C99.0884 44.0951 97.6465 43.2482 97.2981 41.6224C96.8372 39.4784 98.061 37.513 100.443 36.9985C101.647 36.7394 102.61 36.9359 103.301 37.5345L102.44 38.6065C101.904 38.1937 101.347 38.108 100.653 38.2581C99.1795 38.5743 98.463 39.8375 98.7596 41.2221C98.9615 42.1655 99.728 42.6693 100.923 42.4121C101.284 42.3384 101.624 42.1852 101.918 41.9636L101.874 39.9911Z" fill="white"/>
<path d="M64.5186 30.4841V42.1922L94.2701 35.6494L94.2594 24.0771L64.5186 30.4841Z" fill="#49AED2"/>
<g opacity="0.3">
<path d="M64.5186 30.4841V42.1922L94.2701 35.6494L94.2594 24.0771L64.5186 30.4841Z" fill="black"/>
</g>
<path d="M68.8814 33.3961L68.9475 35.9725L72.2028 35.2328L72.2154 35.8331L68.9654 36.5728L69.0405 39.3565L68.3865 39.5047L68.2168 32.9441L72.5191 31.9668L72.5334 32.5671L68.8814 33.3961Z" fill="white"/>
<path d="M77.4092 35.2487L79.069 37.0764L78.3544 37.239L76.7714 35.497C76.6749 35.5292 76.5588 35.5542 76.4498 35.5792L74.6631 35.9848L74.7203 38.0645L74.0574 38.2145L73.8877 31.6557L76.146 31.1411C77.5754 30.8177 78.5366 31.2876 78.7903 32.4079C79.0833 33.6979 78.5563 34.6948 77.4092 35.2487ZM78.1417 32.6205C77.9541 31.7968 77.2716 31.4895 76.2318 31.7272L74.5648 32.1059L74.6399 35.388L76.3354 35.0039C77.7505 34.6805 78.4223 33.8587 78.1417 32.6205Z" fill="white"/>
<path d="M81.0364 30.6344L81.0953 32.9696L84.3489 32.2299L84.3703 32.8195L81.115 33.5574L81.1793 35.9944L84.9528 35.1368L84.967 35.7371L80.5379 36.743L80.3682 30.1842L84.6705 29.2051L84.6848 29.8054L81.0364 30.6344Z" fill="white"/>
<path d="M87.0328 29.2726L87.0917 31.606L90.3471 30.8663L90.3667 31.4559L87.1132 32.1956L87.1757 34.6326L90.9509 33.775L90.9634 34.3753L86.5361 35.3758L86.3574 28.8152L90.6615 27.8379L90.6758 28.4382L87.0328 29.2726Z" fill="white"/>
<path d="M97.6807 30.4839L108.217 28.0166L107.8 26.8945L97.6807 30.4839Z" fill="#FAFAFA"/>
<path d="M50.5039 38.3682L57.8292 36.653L57.5398 35.874L50.5039 38.3682Z" fill="#FAFAFA"/>
<path d="M75.583 56.0191L86.119 53.5499L85.7045 52.4297L75.583 56.0191Z" fill="#FAFAFA"/>
<path d="M89.5496 24.8724C89.5496 24.8974 83.9252 26.2428 76.9769 27.8758C70.0285 29.5088 64.388 30.8149 64.3809 30.7899C64.3737 30.7648 70.0035 29.4195 76.9554 27.7865C83.9073 26.1535 89.5443 24.8474 89.5496 24.8724Z" fill="#FAFAFA"/>
<path d="M64.4395 41.0166C64.4395 41.0416 62.0275 41.5526 59.0402 42.1529C56.0529 42.7532 53.6284 43.2249 53.6231 43.1999C53.6177 43.1749 56.0351 42.6639 59.0224 42.0618C62.0097 41.4597 64.4342 40.9916 64.4395 41.0166Z" fill="#FAFAFA"/>
<path d="M64.5348 39.9574C64.5267 39.9265 64.523 39.8946 64.5241 39.8627C64.5241 39.7894 64.5241 39.7001 64.5152 39.5929C64.5152 39.3445 64.5152 39.0086 64.5009 38.5995C64.5009 37.7473 64.4866 36.5949 64.4794 35.321C64.4723 34.0471 64.4544 32.8929 64.4455 32.0424C64.4455 31.6333 64.4348 31.2974 64.4312 31.049V30.7775C64.4266 30.7467 64.4266 30.7154 64.4312 30.6846C64.4394 30.7149 64.4436 30.7461 64.4437 30.7775C64.4437 30.8507 64.4544 30.9383 64.4616 31.0473C64.4759 31.2813 64.4901 31.6208 64.5044 32.0406C64.5348 32.8786 64.558 34.0381 64.567 35.3192C64.5759 36.6002 64.567 37.7598 64.567 38.5977C64.567 39.0086 64.5562 39.3445 64.5527 39.5929C64.5527 39.7001 64.5527 39.7894 64.5437 39.8627C64.5435 39.8944 64.5405 39.9261 64.5348 39.9574Z" fill="#FAFAFA"/>
<path d="M34.1259 39.9395C34.1259 39.9395 34.1045 39.9609 34.0598 39.9948L33.8633 40.136C33.6846 40.2593 33.4399 40.4308 33.129 40.6434C32.5054 41.0651 31.6371 41.6404 30.6687 42.2603C29.7004 42.8803 28.816 43.4288 28.1674 43.8201C27.8458 44.0148 27.5832 44.1774 27.4009 44.2775L27.1901 44.3954C27.1661 44.4109 27.1403 44.4235 27.1133 44.4329C27.1133 44.4329 27.1347 44.4115 27.1794 44.3811L27.3813 44.2453L28.1335 43.7647L30.6151 42.1817L33.0879 40.588L33.8401 40.1074L34.0473 39.9788C34.072 39.9629 34.0984 39.9497 34.1259 39.9395Z" fill="#FAFAFA"/>
<path d="M31.0722 40.7471C31.0722 40.7471 31.0508 40.7685 31.0061 40.8025L30.8096 40.9436C30.6309 41.0651 30.3862 41.2384 30.0735 41.4492C29.4499 41.8727 28.5816 42.4462 27.615 43.0572C26.6484 43.6683 25.7623 44.2275 25.1137 44.6188C24.7921 44.8135 24.5295 44.9761 24.3472 45.0744L24.1364 45.1941C24.1128 45.2099 24.0869 45.2219 24.0596 45.2298C24.0796 45.2101 24.1018 45.1927 24.1257 45.178L24.3276 45.044L25.078 44.5616L27.5614 42.9804L30.0342 41.3867L30.7864 40.9043L30.9918 40.7774C31.0172 40.7638 31.0442 40.7536 31.0722 40.7471Z" fill="#FAFAFA"/>
<path d="M16.0302 45.948C16.0029 45.8992 15.9841 45.846 15.9749 45.7908C15.9463 45.689 15.907 45.5389 15.8623 45.3531C15.7448 44.8675 15.6849 44.3698 15.6836 43.8701C15.6811 43.3654 15.7974 42.8672 16.0231 42.4158C16.0937 42.2807 16.1788 42.1537 16.2768 42.037C16.3099 41.9924 16.3496 41.9533 16.3947 41.9209C16.2807 42.0903 16.1757 42.2656 16.0803 42.4462C15.8767 42.8951 15.7725 43.3826 15.7748 43.8755C15.7802 44.369 15.8334 44.8609 15.9338 45.3441C15.9785 45.5432 16.0107 45.7449 16.0302 45.948Z" fill="#FAFAFA"/>
<path d="M8.75485 58.6152C8.74838 58.5517 8.74838 58.4876 8.75485 58.4241C8.75485 58.2954 8.75485 58.1096 8.76557 57.8881C8.77986 57.4289 8.81381 56.7946 8.86919 56.1014C8.92458 55.4082 8.99069 54.7721 9.04786 54.3147C9.07645 54.086 9.10146 53.902 9.12111 53.7787C9.12784 53.7125 9.14161 53.6473 9.16221 53.584C9.17118 53.6504 9.17118 53.7177 9.16221 53.7841L9.11575 54.3201C9.07645 54.7989 9.02285 55.4189 8.96389 56.1068C8.90493 56.7946 8.86919 57.4128 8.83525 57.8934C8.81917 58.1078 8.80487 58.2883 8.79415 58.4294C8.78871 58.4927 8.77551 58.5551 8.75485 58.6152Z" fill="#FAFAFA"/>
<path d="M28.3349 62.083C28.3349 62.1027 27.99 62.1509 27.4558 62.3242C27.1431 62.4257 26.838 62.5493 26.5428 62.694C25.8195 63.0533 25.1651 63.5371 24.6097 64.1234C24.3828 64.3613 24.1733 64.615 23.9825 64.8827C23.6592 65.3419 23.5073 65.6581 23.4912 65.6492C23.5178 65.5713 23.5513 65.496 23.5913 65.4241C23.6312 65.3368 23.6766 65.252 23.7271 65.1704C23.7842 65.0739 23.8468 64.9613 23.9289 64.8452C24.1139 64.5689 24.3206 64.3078 24.5471 64.0644C24.8279 63.767 25.1333 63.4938 25.4601 63.2479C25.79 63.0085 26.1403 62.7986 26.5071 62.6208C26.8067 62.4769 27.1174 62.3574 27.4362 62.2635C27.5702 62.2188 27.697 62.1938 27.806 62.167C27.8997 62.1443 27.9945 62.1264 28.0901 62.1134C28.1705 62.0954 28.2525 62.0853 28.3349 62.083Z" fill="#FAFAFA"/>
<path d="M45.9301 51.2973C45.9278 51.2718 45.9278 51.2461 45.9301 51.2205C45.9301 51.1657 45.9301 51.0907 45.9301 50.9954C45.9301 50.7917 45.9301 50.5005 45.9176 50.1288C45.9068 49.3713 45.8925 48.2832 45.8729 46.9414C45.8247 44.2454 45.7585 40.5309 45.6853 36.4269C45.612 32.3229 45.5495 28.6013 45.5245 25.9106C45.512 24.5652 45.5084 23.4754 45.5102 22.7232C45.5102 22.3498 45.5102 22.0585 45.5102 21.8566V21.6315C45.5102 21.5797 45.5102 21.5547 45.5102 21.5547C45.5126 21.5802 45.5126 21.606 45.5102 21.6315C45.5102 21.6851 45.5102 21.7602 45.5102 21.8566C45.5102 22.0585 45.5102 22.3498 45.5227 22.7232C45.5334 23.4807 45.5477 24.567 45.5674 25.9088C45.6156 28.6049 45.6817 32.3194 45.755 36.4251C45.8282 40.5309 45.8925 44.2489 45.9158 46.9396C45.9283 48.2868 45.9336 49.3749 45.9318 50.1271C45.9318 50.5005 45.9318 50.7917 45.9318 50.9954C45.9318 51.0901 45.9318 51.1651 45.9318 51.2205C45.9328 51.2461 45.9322 51.2718 45.9301 51.2973Z" fill="#FAFAFA"/>
<path d="M97.6238 82.549C102.35 82.36 106.029 78.3751 105.84 73.6484C105.651 68.9217 101.666 65.2432 96.9393 65.4322C92.2126 65.6212 88.5341 69.6062 88.7231 74.3329C88.9121 79.0595 92.8971 82.7381 97.6238 82.549Z" fill="#263238"/>
<path d="M88.7138 73.8516C88.7138 73.8516 88.7138 73.8676 88.7138 73.8748C88.6811 76.146 89.552 78.3371 91.1348 79.9662C92.7176 81.5953 94.8828 82.5289 97.154 82.5616C99.4252 82.5943 101.616 81.7234 103.245 80.1405C104.874 78.5577 105.808 76.3925 105.841 74.1213V74.0999L88.7138 73.8516Z" fill="#263238"/>
<path d="M91.2633 73.9106C91.2461 75.0995 91.5819 76.2668 92.2281 77.2649C92.8743 78.263 93.8019 79.0471 94.8937 79.518C95.9856 79.9889 97.1925 80.1255 98.3619 79.9105C99.5314 79.6955 100.611 79.1386 101.464 78.3101C102.317 77.4817 102.905 76.4189 103.154 75.2563C103.403 74.0936 103.301 72.8832 102.862 71.7781C102.423 70.6731 101.667 69.723 100.688 69.048C99.7089 68.373 98.5519 68.0034 97.363 67.986C95.7686 67.9631 94.2303 68.5743 93.0865 69.6853C91.9426 70.7963 91.2868 72.3161 91.2633 73.9106Z" fill="#FAFAFA"/>
<path d="M97.3634 67.986C96.5738 67.9744 95.7897 68.1185 95.0558 68.41C94.322 68.7015 93.6527 69.1347 93.0863 69.6848C92.5199 70.235 92.0674 70.8913 91.7547 71.6164C91.4419 72.3415 91.2751 73.121 91.2637 73.9106L103.288 74.0893C103.3 73.2994 103.156 72.5149 102.865 71.7807C102.574 71.0464 102.141 70.3767 101.59 69.8099C101.04 69.2431 100.384 68.7903 99.6584 68.4773C98.9331 68.1644 98.1532 67.9974 97.3634 67.986Z" fill="#E0E0E0"/>
<path d="M93.6215 73.9444C93.611 74.6688 93.8155 75.38 94.2092 75.9881C94.6029 76.5963 95.1681 77.074 95.8333 77.3609C96.4986 77.6477 97.2339 77.7309 97.9464 77.5999C98.6589 77.4688 99.3165 77.1294 99.8361 76.6245C100.356 76.1197 100.714 75.4721 100.865 74.7637C101.017 74.0553 100.955 73.3178 100.687 72.6446C100.42 71.9714 99.9585 71.3927 99.3619 70.9816C98.7654 70.5706 98.0603 70.3457 97.336 70.3353C96.3648 70.3215 95.428 70.6939 94.7314 71.3707C94.0348 72.0475 93.6356 72.9733 93.6215 73.9444Z" fill="#263238"/>
<path d="M86.0179 76.3446C86.0179 76.3446 84.7136 64.1953 97.3025 64.1953C108.916 64.1953 108.659 74.6437 108.548 76.2607H106.727C106.727 76.2607 107.654 65.9623 97.3025 65.9623C86.9506 65.9623 87.851 76.4697 87.851 76.4697C87.851 76.4697 87.0863 76.4322 86.0179 76.3446Z" fill="#455A64"/>
<path d="M92.76 65.4525C92.7288 65.4686 92.6958 65.4806 92.6617 65.4883C92.5956 65.5115 92.4973 65.5347 92.3758 65.5776C92.0265 65.6887 91.6846 65.8218 91.3521 65.976C90.2515 66.4808 89.2765 67.2234 88.4974 68.1502C87.7182 69.077 87.1542 70.1651 86.8461 71.336C86.7518 71.6885 86.6796 72.0466 86.6299 72.408C86.6102 72.5367 86.6031 72.6367 86.5924 72.7046C86.5893 72.7396 86.5834 72.7743 86.5745 72.8083C86.5702 72.7738 86.5702 72.739 86.5745 72.7046C86.5745 72.6349 86.5745 72.526 86.596 72.4045C86.6314 72.0369 86.6947 71.6726 86.7853 71.3146C87.0782 70.1258 87.6399 69.02 88.4273 68.0824C89.2147 67.1448 90.2067 66.4003 91.327 65.9064C91.664 65.756 92.0115 65.6306 92.3669 65.5312C92.4919 65.4954 92.592 65.4758 92.6581 65.4597C92.6917 65.4535 92.7258 65.4511 92.76 65.4525Z" fill="#FAFAFA"/>
<path d="M123.683 77.8172L125.205 80.1077L125.889 82.266C125.9 82.303 125.919 82.3373 125.945 82.3667C125.97 82.3961 126.001 82.4199 126.036 82.4367C126.071 82.4535 126.109 82.4628 126.147 82.4642C126.186 82.4656 126.225 82.4589 126.261 82.4446C126.304 82.4299 126.343 82.4046 126.375 82.3709C126.406 82.3372 126.428 82.2962 126.439 82.2517C126.579 81.6871 127.081 79.6074 126.961 79.4448C126.841 79.2822 125.514 76.9238 125.514 76.9238L123.683 77.8172Z" fill="#455A64"/>
<g opacity="0.6">
<path d="M126.261 82.4424L126.854 79.2871L126.916 79.3854C126.971 79.4701 126.993 79.5715 126.979 79.6712C126.941 79.9375 126.82 80.6718 126.443 82.244C126.432 82.2894 126.41 82.3313 126.379 82.366C126.348 82.4006 126.308 82.4269 126.264 82.4424H126.261Z" fill="white"/>
</g>
<g opacity="0.6">
<path d="M125.901 78.8388C125.888 78.8778 125.888 78.9204 125.903 78.9591C125.917 78.9979 125.944 79.0305 125.98 79.0514C126.019 79.0682 126.062 79.0696 126.102 79.0553C126.141 79.041 126.174 79.0121 126.193 78.9745C126.209 78.9331 126.209 78.887 126.193 78.8454C126.178 78.8037 126.147 78.7695 126.107 78.7494C126.065 78.7358 126.019 78.7392 125.98 78.7589C125.94 78.7787 125.91 78.8131 125.896 78.8548" fill="white"/>
</g>
<path d="M126.148 81.0921C126.047 81.0538 125.939 81.0362 125.83 81.0403C125.724 81.0602 125.622 81.1002 125.53 81.1582C125.53 81.1582 125.543 81.1171 125.593 81.0742C125.659 81.0209 125.74 80.988 125.825 80.9795C125.91 80.9695 125.996 80.9851 126.072 81.0242C126.129 81.0545 126.154 81.0867 126.148 81.0921Z" fill="#263238"/>
<path d="M126.18 81.5083C126.09 81.5119 126 81.522 125.91 81.5387C125.826 81.5707 125.744 81.6089 125.666 81.653C125.651 81.6441 125.732 81.5244 125.894 81.4744C125.941 81.4566 125.992 81.4504 126.041 81.4563C126.091 81.4622 126.139 81.48 126.18 81.5083Z" fill="#263238"/>
<path d="M126.205 80.4964C126.065 80.4922 125.925 80.4987 125.785 80.5161C125.65 80.5513 125.518 80.5973 125.391 80.6536C125.491 80.5439 125.627 80.474 125.775 80.4571C125.918 80.4197 126.071 80.4336 126.205 80.4964Z" fill="#263238"/>
<path d="M125.799 79.7626C125.799 79.7805 125.639 79.8073 125.469 79.9073C125.299 80.0074 125.19 80.1307 125.176 80.1199C125.23 80.004 125.323 79.9106 125.438 79.8555C125.544 79.7824 125.672 79.7494 125.799 79.7626Z" fill="#263238"/>
<path d="M125.369 79.078C125.244 79.109 125.124 79.1571 125.012 79.2209C124.914 79.2998 124.827 79.3911 124.753 79.4925C124.753 79.4925 124.753 79.446 124.787 79.3799C124.834 79.2964 124.899 79.2248 124.978 79.1708C125.057 79.1169 125.148 79.082 125.242 79.069C125.325 79.0619 125.369 79.0708 125.369 79.078Z" fill="#263238"/>
<path d="M124.942 79.0887C124.918 79.0639 124.899 79.0348 124.885 79.0029C124.841 78.9175 124.815 78.8238 124.808 78.7278C124.798 78.6586 124.81 78.5878 124.842 78.5259C124.855 78.5064 124.874 78.4913 124.895 78.4827C124.917 78.4741 124.941 78.4723 124.964 78.4776C125.007 78.4918 125.044 78.521 125.067 78.5598C125.112 78.6414 125.126 78.7358 125.108 78.8268C125.09 78.9177 125.041 78.9996 124.969 79.0583C124.897 79.1146 124.81 79.1482 124.718 79.1548C124.627 79.1615 124.536 79.141 124.456 79.0958C124.436 79.0849 124.419 79.0696 124.406 79.051C124.392 79.0324 124.384 79.0111 124.38 78.9886C124.377 78.9652 124.382 78.9416 124.394 78.9213C124.406 78.9011 124.424 78.8852 124.446 78.8761C124.511 78.8522 124.581 78.8461 124.649 78.8582C124.744 78.8688 124.837 78.896 124.923 78.9386C124.955 78.9521 124.984 78.9715 125.008 78.9958C124.894 78.9475 124.774 78.9156 124.651 78.9011C124.591 78.8928 124.53 78.8996 124.472 78.9207C124.46 78.9254 124.45 78.9338 124.443 78.9448C124.437 78.9557 124.434 78.9686 124.435 78.9815C124.439 78.996 124.446 79.0095 124.456 79.0211C124.465 79.0328 124.477 79.0424 124.49 79.0494C124.56 79.0862 124.639 79.1023 124.718 79.0956C124.797 79.089 124.872 79.0599 124.935 79.0118C124.994 78.9609 125.035 78.8921 125.051 78.816C125.067 78.7399 125.058 78.6606 125.025 78.5902C125.009 78.5622 124.985 78.5407 124.955 78.5294C124.942 78.5261 124.929 78.5267 124.917 78.5311C124.905 78.5356 124.894 78.5438 124.887 78.5545C124.857 78.6088 124.845 78.6717 124.855 78.7331C124.865 78.8556 124.894 78.9757 124.942 79.0887Z" fill="#263238"/>
<path d="M122.235 79.1259L122.056 81.4254C122.056 81.4254 124.338 82.2062 124.347 82.635L119.88 82.6242L120.005 79.0312L122.235 79.1259Z" fill="#455A64"/>
<g opacity="0.6">
<path d="M120.686 81.1772C120.642 81.1879 120.604 81.2146 120.58 81.252C120.555 81.2894 120.545 81.3348 120.552 81.3791C120.562 81.4227 120.589 81.4609 120.626 81.486C120.663 81.5111 120.708 81.5215 120.752 81.5149C120.798 81.5027 120.838 81.4738 120.864 81.4339C120.89 81.394 120.901 81.3458 120.893 81.2987C120.879 81.2535 120.848 81.2156 120.806 81.1935C120.764 81.1714 120.715 81.1668 120.67 81.1808" fill="white"/>
</g>
<g opacity="0.6">
<path d="M119.886 82.6249L119.898 82.2676L124.217 82.4284C124.262 82.4525 124.301 82.4875 124.329 82.5302C124.358 82.5729 124.376 82.622 124.381 82.6731L119.886 82.6249Z" fill="white"/>
</g>
<path d="M122.134 81.4066C122.134 81.428 122.023 81.4334 121.912 81.4995C121.801 81.5656 121.733 81.6549 121.723 81.646C121.712 81.6371 121.741 81.5102 121.875 81.4334C122.009 81.3566 122.139 81.3869 122.134 81.4066Z" fill="#263238"/>
<path d="M122.595 81.6186C122.595 81.64 122.503 81.6722 122.425 81.7615C122.346 81.8508 122.323 81.9402 122.3 81.9402C122.277 81.9402 122.269 81.8151 122.369 81.7061C122.469 81.5971 122.595 81.5971 122.595 81.6186Z" fill="#263238"/>
<path d="M122.839 82.1873C122.819 82.1873 122.792 82.0801 122.853 81.9621C122.914 81.8442 123.017 81.8013 123.032 81.821C123.046 81.8406 122.974 81.9014 122.926 81.9997C122.878 82.0979 122.86 82.1873 122.839 82.1873Z" fill="#263238"/>
<path d="M122.116 80.8776C122.105 80.8973 122.007 80.8633 121.883 80.8669C121.76 80.8705 121.662 80.9044 121.651 80.8866C121.64 80.8687 121.735 80.7919 121.882 80.7901C122.028 80.7883 122.126 80.8615 122.116 80.8776Z" fill="#263238"/>
<g opacity="0.3">
<path d="M122.2 79.5816L122.169 79.9907L119.974 79.8835L119.986 79.5137L122.2 79.5816Z" fill="black"/>
</g>
<path d="M122.143 80.4126C122.069 80.43 121.992 80.4269 121.919 80.4037C121.839 80.3853 121.761 80.3577 121.687 80.3215C121.644 80.3005 121.602 80.276 121.562 80.2483C121.537 80.2336 121.515 80.2149 121.496 80.1929C121.483 80.1761 121.477 80.1558 121.477 80.1348C121.477 80.1139 121.483 80.0935 121.496 80.0767C121.508 80.062 121.523 80.0502 121.54 80.0421C121.557 80.034 121.575 80.03 121.594 80.0303C121.622 80.0317 121.65 80.0365 121.676 80.0446C121.724 80.0586 121.77 80.0765 121.814 80.0982C121.888 80.1357 121.957 80.1845 122.016 80.2429C122.116 80.343 122.148 80.4216 122.139 80.4216C122.13 80.4216 122.082 80.359 121.98 80.2751C121.92 80.2274 121.854 80.1872 121.784 80.1554C121.743 80.1362 121.7 80.1212 121.657 80.1107C121.61 80.0964 121.571 80.0946 121.557 80.1107C121.542 80.1268 121.557 80.1214 121.557 80.1357C121.57 80.152 121.585 80.1659 121.603 80.1768C121.641 80.2028 121.679 80.2267 121.719 80.2483C121.787 80.2856 121.858 80.3167 121.932 80.3412C122.004 80.3603 122.074 80.3842 122.143 80.4126Z" fill="#263238"/>
<path d="M122.112 80.4432C122.073 80.3778 122.055 80.3014 122.062 80.2252C122.062 80.0928 122.097 79.9627 122.164 79.8482C122.176 79.8183 122.197 79.7924 122.223 79.7732C122.249 79.754 122.28 79.7423 122.312 79.7393C122.332 79.7411 122.351 79.7482 122.367 79.7599C122.383 79.7715 122.395 79.7872 122.403 79.8054C122.413 79.8326 122.419 79.8608 122.423 79.8893C122.431 79.9567 122.425 80.0248 122.406 80.0899C122.387 80.1549 122.355 80.2155 122.312 80.2681C122.219 80.3789 122.134 80.4021 122.134 80.395C122.134 80.3878 122.205 80.3449 122.276 80.236C122.317 80.173 122.343 80.1024 122.355 80.0287C122.361 79.9855 122.361 79.9415 122.355 79.8983C122.355 79.85 122.335 79.8125 122.316 79.8161C122.296 79.8197 122.255 79.8482 122.235 79.8858C122.212 79.9238 122.191 79.9638 122.175 80.0055C122.147 80.0765 122.13 80.1511 122.123 80.227C122.105 80.3574 122.125 80.4396 122.112 80.4432Z" fill="#263238"/>
<path d="M123.868 60.2109C123.868 60.2109 124.688 61.8922 124.903 63.091C124.963 63.4305 122.555 80.6647 122.555 80.6647L119.707 80.5575L121.042 64.5204L120.566 61.3044L123.868 60.2109Z" fill="#263238"/>
<path d="M116.95 61.2529C116.93 62.417 116.99 63.581 117.129 64.7369C117.339 66.4271 117.822 68.3514 117.979 69.4269C118.326 71.8068 119.008 72.257 119.008 72.257L124.472 79.2482L126.616 77.3204L121.792 69.6145C121.792 69.6145 120.509 61.0635 120.554 61.294C120.598 61.5245 116.95 61.2529 116.95 61.2529Z" fill="#263238"/>
<path d="M119.123 72.3604C119.139 72.386 119.156 72.4105 119.175 72.4336L119.33 72.6337L119.904 73.3734C120.388 74.0041 121.047 74.8688 121.778 75.8247C122.509 76.7806 123.173 77.6489 123.667 78.2671C123.911 78.5762 124.113 78.8245 124.256 78.9942L124.421 79.1872C124.439 79.2109 124.459 79.233 124.481 79.2533C124.467 79.2271 124.449 79.2026 124.429 79.1801L124.274 78.9782L123.7 78.2403L121.826 75.7872C121.097 74.8277 120.431 73.963 119.938 73.3466C119.693 73.0357 119.491 72.7892 119.35 72.6194L119.184 72.4247C119.166 72.4012 119.145 72.3796 119.123 72.3604Z" fill="#455A64"/>
<path d="M118.514 62.5625C118.511 62.6585 118.484 62.7523 118.437 62.8359C118.246 63.2578 117.895 63.5868 117.462 63.7506C117.375 63.7901 117.28 63.8102 117.185 63.8096C117.472 63.6881 117.738 63.5236 117.976 63.3218C118.193 63.098 118.375 62.8419 118.514 62.5625Z" fill="#455A64"/>
<path d="M124.41 61.5871C124.279 61.6466 124.134 61.6671 123.992 61.6462C123.85 61.6253 123.717 61.5638 123.609 61.4692C123.622 61.4459 123.788 61.5228 124.006 61.5531C124.224 61.5835 124.404 61.5621 124.41 61.5871Z" fill="#455A64"/>
<path d="M121.334 63.9629C121.343 64.0005 121.35 64.0387 121.354 64.0772C121.365 64.1594 121.377 64.2684 121.395 64.406C121.427 64.7008 121.474 65.1206 121.533 65.6316C121.643 66.6822 121.795 68.133 121.97 69.8017V69.7821L122.762 71.047L125.511 75.4726C125.856 76.0354 126.137 76.4928 126.335 76.8197L126.55 77.1842C126.577 77.2259 126.6 77.2702 126.619 77.3164C126.588 77.2774 126.559 77.2362 126.533 77.1932L126.298 76.8358L125.449 75.5048C124.734 74.3702 123.757 72.814 122.676 71.0953L121.886 69.8285V69.8178C121.726 68.1544 121.583 66.6965 121.481 65.6441L121.37 64.4149C121.359 64.2773 121.35 64.1684 121.345 64.0844C121.337 64.0445 121.333 64.0037 121.334 63.9629Z" fill="#455A64"/>
<path d="M120.504 48.9447L122.208 49.4914L122.337 53.1058C122.337 53.1058 123.259 57.3527 123.459 57.8887C123.694 58.5309 123.868 59.1937 123.979 59.8683C123.979 59.8683 123.65 62.266 121.254 62.5483C118.858 62.8306 116.629 61.4549 116.629 61.4549C116.629 61.4549 115.83 57.8816 115.098 54.6763C114.401 51.6264 114.967 49.8076 114.967 49.8076L117.592 48.8643L120.504 48.9447Z" fill="#455A64"/>
<path d="M121.77 50.956L120.204 51.1455L120.253 51.5481L121.819 51.3586L121.77 50.956Z" fill="#FAFAFA"/>
<path d="M122.148 46.6321C122.133 46.544 122.086 46.4648 122.015 46.4099C121.945 46.355 121.856 46.3284 121.767 46.3355C121.807 46.3054 121.839 46.2658 121.859 46.2203C121.88 46.1748 121.889 46.1249 121.885 46.0751C121.881 46.0254 121.865 45.9773 121.838 45.9354C121.811 45.8935 121.774 45.859 121.73 45.8352C121.813 45.7079 121.847 45.554 121.823 45.4034C121.8 45.2529 121.721 45.1164 121.603 45.0205L119.804 47.5022C119.942 47.6121 120.101 47.6928 120.272 47.7395C120.442 47.7862 120.62 47.7978 120.795 47.7738C121.146 47.7222 121.484 47.6007 121.787 47.4164C121.871 47.3805 121.94 47.3176 121.983 47.2378C122.017 47.1538 121.969 47.0323 121.876 47.0305C121.963 47.01 122.039 46.9577 122.089 46.884C122.14 46.8103 122.16 46.7204 122.148 46.6321Z" fill="#263238"/>
<path d="M117.679 45.2762C117.645 45.2681 117.61 45.2704 117.578 45.2829C117.546 45.2953 117.518 45.3172 117.499 45.3457C117.479 45.3743 117.469 45.408 117.469 45.4425C117.47 45.477 117.48 45.5106 117.5 45.5389C117.447 45.5316 117.392 45.539 117.342 45.5603C117.292 45.5816 117.249 45.6159 117.217 45.6597C117.186 45.7034 117.166 45.755 117.161 45.8089C117.156 45.8628 117.166 45.917 117.189 45.9659C117.063 45.9587 116.937 45.9932 116.832 46.0641C116.779 46.1004 116.737 46.1511 116.712 46.2103C116.686 46.2695 116.679 46.3347 116.689 46.3983C116.704 46.4595 116.742 46.5124 116.796 46.5458C116.849 46.5792 116.913 46.5904 116.975 46.5769C116.944 46.632 116.929 46.6949 116.932 46.7582C116.935 46.8215 116.956 46.8826 116.993 46.9343C117.012 46.9582 117.037 46.9777 117.064 46.9914C117.092 47.005 117.122 47.0126 117.153 47.0134C117.184 47.0142 117.215 47.0084 117.243 46.9963C117.272 46.9842 117.297 46.9661 117.318 46.9432C117.284 46.9895 117.266 47.046 117.268 47.1036C117.269 47.1611 117.29 47.2165 117.327 47.2608C117.364 47.305 117.415 47.3357 117.471 47.3477C117.527 47.3598 117.586 47.3526 117.638 47.3273C117.624 47.3847 117.628 47.445 117.65 47.4997C117.673 47.5545 117.712 47.6008 117.762 47.6321C117.812 47.6633 117.87 47.678 117.929 47.674C117.988 47.67 118.044 47.6474 118.09 47.6096L117.679 45.2762Z" fill="#263238"/>
<path d="M117.79 44.8009L117.711 49.1943C117.705 49.5406 117.831 49.8762 118.063 50.1333C118.296 50.3903 118.617 50.5496 118.962 50.579C119.148 50.5954 119.336 50.5735 119.513 50.5145C119.69 50.4556 119.854 50.3609 119.993 50.2363C120.132 50.1118 120.245 49.9599 120.323 49.7902C120.401 49.6205 120.444 49.4366 120.448 49.2497C120.448 48.8316 120.463 48.4886 120.463 48.4886C120.463 48.4886 121.535 48.4171 121.64 47.363C121.703 46.752 121.719 45.3584 121.722 44.2882C121.724 43.9396 121.594 43.6033 121.359 43.3458C121.124 43.0884 120.801 42.9286 120.454 42.8981L119.816 42.8427C119.553 42.8346 119.292 42.8792 119.047 42.9739C118.802 43.0686 118.578 43.2114 118.389 43.394C118.2 43.5765 118.05 43.7951 117.947 44.0367C117.844 44.2784 117.791 44.5382 117.79 44.8009Z" fill="#FFBE9D"/>
<path d="M120.459 48.4881C119.97 48.4418 119.505 48.2557 119.119 47.9521C119.119 47.9521 119.391 48.7508 120.454 48.749L120.459 48.4881Z" fill="#EB996E"/>
<path d="M121.424 45.3615C121.404 45.3794 121.297 45.2847 121.134 45.2704C120.972 45.2561 120.847 45.3276 120.83 45.3061C120.814 45.2847 120.845 45.2615 120.9 45.2293C120.974 45.1863 121.06 45.1675 121.145 45.1757C121.23 45.1833 121.31 45.2177 121.374 45.274C121.42 45.3151 121.434 45.3526 121.424 45.3615Z" fill="#263238"/>
<path d="M119.707 45.4317C119.704 45.471 119.686 45.5076 119.656 45.5336C119.626 45.5596 119.588 45.573 119.548 45.571C119.529 45.5711 119.51 45.5672 119.492 45.5597C119.474 45.5522 119.458 45.5412 119.444 45.5274C119.431 45.5136 119.42 45.4972 119.413 45.4792C119.406 45.4613 119.403 45.4421 119.403 45.4228C119.407 45.3834 119.425 45.3469 119.455 45.3209C119.484 45.2948 119.523 45.2814 119.562 45.2834C119.582 45.2834 119.601 45.2872 119.619 45.2947C119.636 45.3022 119.653 45.3132 119.666 45.327C119.679 45.3409 119.69 45.3572 119.697 45.3752C119.704 45.3932 119.708 45.4124 119.707 45.4317Z" fill="#263238"/>
<path d="M121.28 45.5742C121.276 45.6135 121.258 45.6501 121.228 45.6761C121.199 45.7021 121.16 45.7155 121.121 45.7136C121.101 45.7131 121.082 45.7088 121.065 45.701C121.047 45.6933 121.031 45.6821 121.018 45.6681C121.005 45.6542 120.994 45.6378 120.987 45.6198C120.98 45.6019 120.977 45.5827 120.978 45.5635C120.98 45.524 120.999 45.4871 121.028 45.461C121.058 45.4349 121.097 45.4217 121.137 45.4241C121.156 45.4241 121.175 45.428 121.193 45.4356C121.211 45.4433 121.227 45.4544 121.24 45.4685C121.254 45.4825 121.264 45.4991 121.271 45.5173C121.278 45.5355 121.281 45.5548 121.28 45.5742Z" fill="#263238"/>
<path d="M119.844 45.2229C119.825 45.2407 119.718 45.146 119.555 45.1317C119.392 45.1174 119.265 45.1889 119.249 45.1675C119.233 45.146 119.264 45.1228 119.319 45.0906C119.393 45.0479 119.478 45.0292 119.564 45.0368C119.649 45.0445 119.729 45.0783 119.794 45.1335C119.841 45.1764 119.855 45.2139 119.844 45.2229Z" fill="#263238"/>
<path d="M120.327 46.4788C120.417 46.4594 120.509 46.451 120.601 46.4538C120.643 46.4538 120.683 46.4538 120.692 46.4216C120.7 46.3793 120.694 46.3355 120.676 46.2966C120.645 46.1911 120.613 46.0839 120.581 45.9696C120.49 45.6922 120.423 45.4077 120.379 45.1191C120.491 45.3886 120.581 45.6663 120.649 45.9499C120.679 46.0661 120.71 46.1751 120.738 46.2787C120.757 46.3318 120.757 46.3899 120.738 46.4431C120.731 46.4571 120.72 46.4694 120.708 46.479C120.695 46.4886 120.68 46.4952 120.665 46.4984C120.641 46.5009 120.617 46.5009 120.593 46.4984C120.504 46.503 120.415 46.4964 120.327 46.4788Z" fill="#263238"/>
<path d="M119.839 46.5479C119.866 46.5479 119.852 46.7266 119.991 46.8641C120.131 47.0017 120.32 46.9999 120.32 47.0232C120.32 47.0464 120.274 47.0553 120.195 47.05C120.091 47.0418 119.994 46.9975 119.92 46.9249C119.848 46.8559 119.807 46.7616 119.804 46.6623C119.804 46.5872 119.829 46.5461 119.839 46.5479Z" fill="#263238"/>
<path d="M119.934 44.6969C119.913 44.7398 119.755 44.6969 119.561 44.7112C119.366 44.7255 119.203 44.7558 119.187 44.7112C119.171 44.6665 119.209 44.6522 119.275 44.6147C119.362 44.5689 119.459 44.5444 119.557 44.5432C119.656 44.5404 119.754 44.5606 119.843 44.6022C119.909 44.6397 119.941 44.6772 119.934 44.6969Z" fill="#263238"/>
<path d="M121.444 44.894C121.411 44.9297 121.302 44.8815 121.168 44.8672C121.034 44.8529 120.918 44.8672 120.895 44.8296C120.872 44.7921 120.906 44.7743 120.959 44.7439C121.03 44.708 121.109 44.6937 121.188 44.7029C121.266 44.7121 121.341 44.7444 121.401 44.7957C121.445 44.8457 121.458 44.8779 121.444 44.894Z" fill="#263238"/>
<path d="M118.076 45.6247C118.058 45.6158 117.361 45.346 117.327 46.0714C117.293 46.7968 118.022 46.6878 118.026 46.6663C118.029 46.6449 118.076 45.6247 118.076 45.6247Z" fill="#FFBE9D"/>
<path d="M117.82 46.3782C117.82 46.3782 117.806 46.3871 117.784 46.3961C117.754 46.4076 117.72 46.4076 117.69 46.3961C117.645 46.3638 117.609 46.3202 117.587 46.2696C117.564 46.2191 117.555 46.1635 117.561 46.1084C117.564 46.0464 117.579 45.9856 117.606 45.9298C117.615 45.9078 117.629 45.8882 117.646 45.8724C117.664 45.8566 117.685 45.8451 117.708 45.8386C117.722 45.8356 117.738 45.8378 117.751 45.845C117.764 45.8522 117.774 45.8639 117.779 45.8779C117.779 45.8994 117.779 45.9137 117.779 45.9137C117.779 45.9137 117.795 45.903 117.792 45.8726C117.788 45.8544 117.779 45.838 117.765 45.8261C117.746 45.8098 117.722 45.8014 117.697 45.8029C117.667 45.8074 117.639 45.8194 117.615 45.8378C117.59 45.8563 117.571 45.8805 117.559 45.9083C117.525 45.9694 117.505 46.0381 117.504 46.1084C117.497 46.1727 117.509 46.2377 117.538 46.2952C117.568 46.3527 117.614 46.4002 117.67 46.4318C117.689 46.4381 117.71 46.4403 117.73 46.4381C117.75 46.436 117.769 46.4296 117.786 46.4193C117.817 46.3961 117.822 46.38 117.82 46.3782Z" fill="#EB996E"/>
<path d="M117.675 45.5606C117.744 45.5619 117.812 45.5821 117.87 45.6189C117.929 45.6558 117.976 45.7079 118.007 45.7696C118.045 45.8768 118.045 45.9947 118.082 46.1019C118.12 46.2091 118.218 46.3128 118.331 46.2949C118.369 46.2869 118.405 46.2688 118.434 46.2424C118.463 46.216 118.485 46.1823 118.497 46.1448C118.519 46.0689 118.527 45.9894 118.518 45.9108C118.506 45.5695 118.465 45.2283 118.481 44.8888C118.485 44.5448 118.589 44.2094 118.781 43.924C118.88 43.7828 119.015 43.6711 119.173 43.6006C119.33 43.5301 119.503 43.5036 119.674 43.5238C119.898 43.5613 120.093 43.7024 120.312 43.7489C120.444 43.7779 120.58 43.7769 120.711 43.746C120.841 43.715 120.964 43.655 121.068 43.5702C121.095 43.5488 121.215 43.4845 121.215 43.4845C121.218 43.4038 121.198 43.3239 121.157 43.254C120.752 42.8055 119.964 42.6197 119.371 42.718C119.067 42.7647 118.777 42.877 118.522 43.047C118.266 43.217 118.05 43.4407 117.89 43.7024C117.589 44.2295 117.597 44.9978 117.686 45.5642" fill="#263238"/>
<path d="M121.851 44.1077C121.787 44.2096 121.697 44.2929 121.591 44.3493C121.485 44.4058 121.365 44.4333 121.245 44.4293C121.004 44.4182 120.768 44.3619 120.548 44.2631C120.2 44.1434 119.841 44.0578 119.476 44.0076C119.441 44.0076 119.398 44.0076 119.382 43.9701C119.366 43.9326 119.405 43.8825 119.444 43.8557C119.782 43.6378 120.555 43.5538 120.957 43.5717C121.159 43.5759 121.356 43.6317 121.53 43.7336C121.704 43.8356 121.849 43.9803 121.951 44.1541" fill="#263238"/>
<path d="M121.745 44.1309C121.536 43.8672 121.232 43.6954 120.898 43.6521C120.257 43.5983 119.614 43.7222 119.039 44.0103C118.464 44.2984 117.98 44.7395 117.639 45.2851C117.575 44.9772 117.542 44.6635 117.543 44.3489C117.561 44.1327 117.804 42.8642 119.151 42.5783C119.156 42.5747 121.207 41.9869 121.745 44.1309Z" fill="#455A64"/>
<path d="M117.781 45.012C118.257 44.4221 118.855 43.9429 119.534 43.6077C120.331 43.2442 121.172 42.9854 122.035 42.8376C122.257 42.7853 122.487 42.781 122.711 42.8251C122.822 42.8495 122.924 42.9046 123.005 42.9842C123.086 43.0639 123.143 43.1647 123.17 43.2753C123.215 43.5541 122.691 43.9346 122.455 44.0793C122.218 44.2088 121.974 44.3251 121.724 44.4277C121.724 44.4277 121.776 43.9221 120.972 43.7452C119.873 43.504 117.781 45.012 117.781 45.012Z" fill="#455A64"/>
<path d="M122.852 42.8607C122.776 42.8446 122.699 42.8327 122.622 42.825C122.408 42.8169 122.194 42.8313 121.984 42.8679C121.286 42.9854 120.604 43.1789 119.949 43.445C119.289 43.6987 118.683 44.0745 118.162 44.5527C118.007 44.6985 117.87 44.8629 117.755 45.0422C117.676 45.1709 117.646 45.2495 117.639 45.2459C117.631 45.2423 117.639 45.2245 117.653 45.187C117.672 45.131 117.696 45.0766 117.724 45.0244C117.829 44.8333 117.962 44.6587 118.117 44.5062C118.632 44.0052 119.244 43.6148 119.915 43.3592C120.576 43.0893 121.268 42.9021 121.975 42.8017C122.19 42.7715 122.409 42.7673 122.625 42.7892C122.687 42.7939 122.747 42.8084 122.804 42.8321C122.836 42.8482 122.854 42.8571 122.852 42.8607Z" fill="#263238"/>
<path d="M120.243 43.141C120.505 43.0295 120.784 42.9613 121.068 42.9391C121.006 42.8809 120.937 42.8305 120.863 42.7891C120.642 42.8065 120.425 42.859 120.22 42.9445L120.243 43.141Z" fill="#FAFAFA"/>
<path d="M121.867 44.4885C121.9 44.4422 121.92 44.3879 121.925 44.3312C121.931 44.2745 121.921 44.2174 121.896 44.1659C121.872 44.1143 121.835 44.0702 121.788 44.038C121.741 44.0058 121.686 43.9868 121.629 43.9828C121.667 43.9678 121.701 43.9452 121.729 43.9164C121.757 43.8876 121.779 43.8532 121.794 43.8154C121.808 43.7777 121.815 43.7374 121.813 43.697C121.811 43.6566 121.801 43.6171 121.783 43.5808C121.741 43.5106 121.676 43.4564 121.6 43.4266C121.524 43.3969 121.44 43.3933 121.361 43.4165C121.283 43.4422 121.213 43.4861 121.155 43.5445C121.098 43.6029 121.055 43.6742 121.031 43.7524C120.997 43.703 120.952 43.663 120.899 43.6361C120.846 43.6093 120.786 43.5965 120.727 43.599C120.667 43.6015 120.61 43.6192 120.559 43.6504C120.508 43.6817 120.466 43.7254 120.437 43.7774C120.421 43.7327 120.389 43.6956 120.347 43.6738C120.305 43.6519 120.256 43.6468 120.21 43.6594C120.12 43.6893 120.037 43.7387 119.967 43.8042C119.898 43.8703 119.808 43.9112 119.712 43.9203L119.649 43.9471C119.701 44.0293 119.78 44.09 119.873 44.1176C119.966 44.1452 120.065 44.138 120.153 44.0972C120.152 44.1581 120.172 44.2176 120.208 44.2667C120.244 44.3158 120.295 44.3518 120.353 44.3694C120.411 44.3869 120.474 44.385 120.531 44.364C120.588 44.3429 120.637 44.3038 120.67 44.2526C120.681 44.2977 120.703 44.3393 120.734 44.3736C120.765 44.4079 120.805 44.4339 120.849 44.4492C120.892 44.4644 120.939 44.4685 120.985 44.461C121.031 44.4535 121.074 44.4347 121.111 44.4063C121.131 44.4585 121.163 44.5053 121.204 44.5429C121.246 44.5805 121.295 44.6079 121.349 44.6228C121.403 44.6378 121.46 44.6398 121.514 44.6289C121.569 44.618 121.621 44.5944 121.665 44.5599C121.71 44.6323 121.74 44.7136 121.752 44.7983C121.763 44.883 121.757 44.9692 121.733 45.0513C121.792 45.0382 121.846 45.0088 121.889 44.9664C121.932 44.9241 121.962 44.8705 121.976 44.8118C121.99 44.7531 121.987 44.6916 121.968 44.6345C121.948 44.5773 121.913 44.5267 121.867 44.4885Z" fill="#263238"/>
<path d="M118.846 44.3096C118.597 44.4201 118.358 44.5522 118.132 44.7044C117.904 44.8596 117.723 45.0723 117.604 45.3208L117.962 45.6621C118.06 45.6942 118.141 45.7282 118.216 45.6621C118.254 45.6284 118.284 45.5857 118.302 45.5376C118.32 45.4896 118.326 45.4378 118.319 45.3869C118.367 45.3971 118.416 45.394 118.462 45.378C118.507 45.362 118.548 45.3338 118.579 45.2963C118.609 45.2589 118.629 45.2137 118.636 45.1657C118.643 45.1177 118.637 45.0688 118.618 45.0242C118.653 45.0159 118.686 44.9982 118.712 44.9731C118.738 44.948 118.758 44.9163 118.768 44.8813C118.777 44.8463 118.777 44.8095 118.768 44.7745C118.759 44.7394 118.741 44.7073 118.716 44.6812C118.756 44.6788 118.795 44.6647 118.827 44.6406C118.86 44.6164 118.885 44.5833 118.898 44.5454C118.912 44.5074 118.915 44.4662 118.905 44.4268C118.896 44.3875 118.876 44.3517 118.846 44.3239V44.3096Z" fill="#263238"/>
<path d="M122.208 49.4912C122.208 49.4912 123.264 50.1255 123.582 50.6901C123.9 51.2546 125.59 55.3747 125.52 56.0501C125.451 56.7254 123.864 57.1417 123.864 57.1417L122.208 54.9977L122.966 54.5457L122.208 53.086V49.4912Z" fill="#455A64"/>
<path d="M123.868 57.1357C123.868 57.1357 120.03 57.904 118.637 56.2424L119.041 54.8398C119.041 54.8398 121.576 55.4402 122.369 55.1829L123.868 57.1357Z" fill="#FFBE9D"/>
<path d="M124.265 53.7275C124.279 53.7561 123.815 53.9509 123.33 54.3207C122.846 54.6906 122.541 55.0908 122.516 55.0711C122.559 54.971 122.62 54.8792 122.694 54.7995C122.863 54.5947 123.054 54.4095 123.264 54.2475C123.476 54.0867 123.704 53.9495 123.945 53.8383C124.045 53.7837 124.153 53.7462 124.265 53.7275Z" fill="#263238"/>
<path d="M123.034 54.4932C122.897 54.2768 122.782 54.0477 122.689 53.8089C122.567 53.5844 122.462 53.3509 122.375 53.1104C122.544 53.3064 122.678 53.5292 122.773 53.7696C122.894 53.9974 122.982 54.241 123.034 54.4932Z" fill="#263238"/>
<path d="M122.337 52.7589C122.327 52.5573 122.296 52.3573 122.244 52.1622C122.212 51.9622 122.16 51.766 122.089 51.5762C122.132 51.9777 122.215 52.374 122.337 52.7589Z" fill="#263238"/>
<path d="M115.448 50.0265C115.521 50.1034 116.575 50.8019 116.927 51.9919C117.279 53.1818 117.667 54.4235 117.667 54.4235L119.041 54.6022L118.265 57.7717C117.741 57.6908 117.239 57.498 116.796 57.2064C116.352 56.9148 115.976 56.5311 115.694 56.0815C115.081 55.0131 114.585 53.8815 114.215 52.7065C114.215 52.7065 114.331 48.858 115.448 50.0265Z" fill="#455A64"/>
<path d="M118.569 54.5395C118.569 54.5395 117.986 53.2353 117.908 53.2174C117.829 53.1995 116.705 52.8047 116.705 52.8047C116.671 52.8963 116.671 52.9972 116.705 53.0888L116.3 53.1406C116.3 53.1406 116.361 53.3889 116.498 53.4229L116.352 53.5533C116.425 53.6501 116.519 53.7294 116.627 53.7856C116.668 53.806 116.714 53.8167 116.76 53.8167C116.806 53.8167 116.852 53.806 116.893 53.7856C116.893 53.7856 116.843 53.8785 117.072 54.025C117.3 54.1715 117.699 54.3823 117.699 54.3823L118.569 54.5395Z" fill="#FFBE9D"/>
<path d="M117.7 54.3903C117.7 54.3903 117.302 54.1723 117.073 54.0329C116.875 53.9079 116.88 53.8221 116.894 53.7971C116.853 53.8156 116.809 53.8252 116.764 53.8252C116.719 53.8252 116.675 53.8156 116.634 53.7971C116.526 53.7398 116.431 53.6599 116.357 53.563L116.491 53.4219C116.357 53.3826 116.298 53.1485 116.296 53.1378L116.7 53.086C116.667 52.9947 116.667 52.895 116.7 52.8037C116.71 52.8037 117.827 53.2004 117.904 53.2164C117.981 53.2325 118.542 54.4868 118.567 54.5404L117.7 54.3903ZM116.707 53.0878L116.301 53.1396C116.301 53.1682 116.371 53.3862 116.498 53.4183L116.35 53.5487C116.422 53.6446 116.514 53.7228 116.621 53.7774C116.662 53.7975 116.707 53.8079 116.753 53.8079C116.799 53.8079 116.844 53.7975 116.886 53.7774V53.7882C116.886 53.7882 116.839 53.8811 117.064 54.024C117.289 54.1669 117.677 54.3813 117.691 54.3813L118.554 54.5332C118.351 54.0812 117.956 53.2307 117.897 53.2182C117.838 53.2057 116.757 52.8269 116.696 52.8055C116.664 52.8976 116.668 52.9983 116.707 53.0878Z" fill="#EB996E"/>
<path d="M116.741 53.0928C116.979 53.208 117.225 53.3042 117.477 53.3804C117.581 53.4179 117.683 53.4447 117.763 53.4841C117.835 53.5181 117.894 53.5745 117.931 53.6449C117.999 53.7663 118.024 53.8539 118.035 53.8503C118.03 53.7708 118.008 53.6933 117.97 53.6234C117.933 53.5427 117.87 53.4763 117.792 53.434C117.696 53.3912 117.599 53.3542 117.499 53.3233C117.252 53.2282 116.999 53.1512 116.741 53.0928Z" fill="#EB996E"/>
<path d="M116.479 53.4219C116.541 53.4592 116.61 53.484 116.682 53.4951C116.811 53.5309 116.993 53.5594 117.186 53.6113C117.351 53.6521 117.505 53.725 117.642 53.8257C117.745 53.9061 117.79 53.9757 117.799 53.9704C117.774 53.8998 117.729 53.8378 117.67 53.7917C117.535 53.6758 117.375 53.5932 117.202 53.5505C117.004 53.4969 116.82 53.4755 116.691 53.4523C116.622 53.4343 116.55 53.4241 116.479 53.4219Z" fill="#EB996E"/>
<path d="M117.509 54.018C117.443 53.9286 117.347 53.8654 117.239 53.8394C117.137 53.7934 117.023 53.7827 116.914 53.809C116.914 53.8287 117.057 53.8376 117.22 53.8965C117.382 53.9555 117.498 54.0323 117.509 54.018Z" fill="#EB996E"/>
<path d="M118.923 54.9407L122.387 53.1934L123.021 54.4851C123.021 54.4851 119.828 57.6493 118.333 57.6082" fill="#FFBE9D"/>
<path d="M116.818 51.2773C116.823 51.3647 116.839 51.451 116.865 51.5346C116.902 51.6901 116.956 51.9045 117.02 52.1403C117.085 52.3761 117.145 52.5905 117.199 52.7442C117.219 52.8286 117.249 52.9102 117.288 52.9872C117.282 52.9006 117.266 52.8149 117.242 52.7317C117.204 52.5763 117.151 52.3618 117.086 52.1242C117.022 51.8866 116.961 51.6758 116.908 51.5239C116.887 51.4386 116.858 51.3558 116.818 51.2773Z" fill="#263238"/>
<path d="M116.968 55.5783C116.978 55.5783 117.009 55.4192 117.089 55.1709C117.135 55.0266 117.205 54.8912 117.296 54.7707C117.406 54.6274 117.564 54.529 117.741 54.4938C117.926 54.4852 118.111 54.5063 118.29 54.5563L118.744 54.6474C118.8 54.655 118.856 54.6694 118.91 54.6903C118.948 54.7071 118.978 54.7378 118.994 54.776C119.001 54.7924 119.004 54.81 119.004 54.8279C119.004 54.8457 119.001 54.8633 118.994 54.8797C118.994 54.8797 119.042 54.8511 119.022 54.7689C119.015 54.7455 119.004 54.7237 118.988 54.705C118.972 54.6862 118.953 54.6709 118.931 54.6599C118.874 54.6336 118.814 54.615 118.753 54.6045L118.3 54.5009C118.116 54.4458 117.923 54.4228 117.731 54.433C117.536 54.4713 117.363 54.5817 117.246 54.7421C117.153 54.8691 117.084 55.012 117.043 55.1638C117.013 55.2647 116.99 55.3673 116.973 55.4711C116.966 55.5063 116.964 55.5425 116.968 55.5783Z" fill="#263238"/>
<path d="M116.491 54.8813C116.586 54.7139 116.713 54.5669 116.865 54.4489C117.033 54.3488 117.213 54.2707 117.401 54.2166C117.341 54.2071 117.28 54.212 117.222 54.2309C117.083 54.26 116.951 54.3171 116.834 54.3989C116.716 54.4809 116.619 54.5891 116.55 54.7151C116.516 54.7644 116.496 54.8217 116.491 54.8813Z" fill="#263238"/>
<path d="M114.215 52.707C114.215 52.707 114.215 52.7303 114.233 52.7749C114.251 52.8196 114.27 52.8875 114.297 52.9643C114.356 53.143 114.436 53.3717 114.536 53.6593C114.636 53.947 114.758 54.3043 114.93 54.6795C115.101 55.0547 115.303 55.4585 115.548 55.8676C115.776 56.2551 116.068 56.6018 116.411 56.8932C116.69 57.1315 117.003 57.3272 117.34 57.4739C117.568 57.572 117.808 57.6387 118.054 57.6722C118.121 57.6821 118.188 57.6887 118.254 57.6918C118.301 57.6918 118.324 57.6918 118.324 57.6918C118.324 57.6918 118.229 57.6811 118.058 57.6507C117.818 57.6076 117.584 57.535 117.361 57.4346C116.626 57.0951 116.013 56.5382 115.605 55.8391C115.362 55.4335 115.165 55.0243 114.985 54.6581C114.804 54.2918 114.688 53.9434 114.579 53.6468C114.47 53.3502 114.386 53.1198 114.322 52.9572L114.247 52.7785C114.239 52.7536 114.228 52.7297 114.215 52.707Z" fill="#263238"/>
<path d="M115.208 50.1016C115.208 50.1194 115.472 50.2159 115.774 50.3964C116.076 50.5768 116.293 50.7644 116.31 50.7537C116.018 50.4322 115.636 50.2062 115.213 50.1051L115.208 50.1016Z" fill="#263238"/>
<path d="M117.836 58.5205C117.893 58.5553 117.953 58.5852 118.015 58.6098C118.074 58.6384 118.145 58.6706 118.229 58.7027C118.313 58.7349 118.408 58.7778 118.518 58.8117C118.771 58.9017 119.029 58.9769 119.29 59.0369C119.611 59.1077 119.937 59.159 120.264 59.1905C120.592 59.2175 120.921 59.2235 121.25 59.2084C121.518 59.1959 121.786 59.1678 122.051 59.1244C122.163 59.1083 122.265 59.0851 122.353 59.0672C122.44 59.0494 122.519 59.0297 122.58 59.0136C122.645 58.9992 122.708 58.9801 122.771 58.9565C122.704 58.9632 122.639 58.9745 122.574 58.9904C122.513 59.0029 122.437 59.019 122.347 59.0333C122.258 59.0476 122.156 59.069 122.044 59.0815C121.779 59.1194 121.513 59.1433 121.247 59.153C120.921 59.1637 120.594 59.1554 120.269 59.128C119.945 59.0978 119.622 59.0488 119.303 58.9815C119.043 58.9246 118.786 58.8543 118.533 58.7706C118.422 58.7385 118.327 58.701 118.242 58.6706C118.156 58.6402 118.084 58.6116 118.025 58.5884C117.964 58.5615 117.901 58.5388 117.836 58.5205Z" fill="#263238"/>
<path d="M120.65 60.3199C120.891 60.289 121.127 60.229 121.353 60.1412C121.585 60.0746 121.808 59.9798 122.017 59.8589C122.017 59.8429 121.71 59.9572 121.333 60.0823C120.956 60.2073 120.647 60.3038 120.65 60.3199Z" fill="#263238"/>
<g opacity="0.3">
<path d="M123.294 57.2307C122.503 57.3871 121.689 57.3993 120.893 57.2664C120.604 57.1788 120.301 57.1426 120 57.1592C119.76 57.2174 119.529 57.305 119.312 57.4201C118.901 57.5891 118.454 57.6536 118.012 57.6077C117.57 57.5619 117.146 57.4072 116.778 57.1574C116.908 57.4043 117.094 57.6167 117.322 57.7768C117.55 57.9369 117.814 58.04 118.09 58.0776C118.642 58.1476 119.204 58.0976 119.735 57.931C120.052 57.8278 120.379 57.7618 120.711 57.7345C121.132 57.7238 121.545 57.8614 121.961 57.8685C122.45 57.8826 122.929 57.7378 123.328 57.4558L123.294 57.2307Z" fill="black"/>
</g>
<g opacity="0.3">
<path d="M121.922 59.9824C121.745 60.2807 121.5 60.533 121.207 60.7192C120.914 60.9054 120.581 61.0202 120.236 61.0544C120.087 61.0732 119.935 61.061 119.791 61.0187C119.719 60.9975 119.652 60.9616 119.594 60.9134C119.536 60.8651 119.489 60.8055 119.455 60.7382C119.615 60.6354 119.793 60.5622 119.979 60.522L121.903 59.9949" fill="black"/>
</g>
<path d="M122.969 54.5361C122.922 54.5938 122.87 54.647 122.814 54.6951C122.71 54.7952 122.56 54.9381 122.383 55.1204C122.206 55.3026 121.995 55.5277 121.738 55.7511C121.481 55.9744 121.188 56.2049 120.879 56.4443C120.588 56.6719 120.283 56.8808 119.966 57.0696C119.706 57.2246 119.43 57.3521 119.144 57.4502C118.951 57.5158 118.752 57.5642 118.551 57.5949C118.478 57.6078 118.403 57.612 118.329 57.6074C118.598 57.5507 118.863 57.4779 119.122 57.3894C119.401 57.2835 119.669 57.1519 119.923 56.9964C120.232 56.805 120.53 56.5962 120.816 56.371C121.125 56.1316 121.42 55.9047 121.676 55.6867C121.931 55.4688 122.145 55.2526 122.331 55.0739C122.517 54.8953 122.674 54.7595 122.785 54.6683C122.841 54.6169 122.903 54.5724 122.969 54.5361Z" fill="#EB996E"/>
</svg>
