<svg width="174" height="93" viewBox="0 0 174 93" fill="none" xmlns="http://www.w3.org/2000/svg">
<path d="M22.9572 69.098C22.7798 69.098 22.6398 69.0467 22.5372 68.944C22.4345 68.832 22.3832 68.6827 22.3832 68.496V60.124H19.2332C19.0652 60.124 18.9345 60.0773 18.8412 59.984C18.7478 59.8907 18.7012 59.7693 18.7012 59.62C18.7012 59.4613 18.7478 59.34 18.8412 59.256C18.9345 59.172 19.0652 59.13 19.2332 59.13H26.6952C26.8632 59.13 26.9938 59.172 27.0872 59.256C27.1805 59.34 27.2272 59.4613 27.2272 59.62C27.2272 59.7787 27.1805 59.9047 27.0872 59.998C26.9938 60.082 26.8632 60.124 26.6952 60.124H23.5452V68.496C23.5452 68.6827 23.4938 68.832 23.3912 68.944C23.2978 69.0467 23.1532 69.098 22.9572 69.098ZM29.6253 69.126C29.0747 69.126 28.6173 69.028 28.2533 68.832C27.8987 68.6267 27.628 68.3233 27.4413 67.922C27.264 67.5207 27.1753 67.0213 27.1753 66.424V62.672C27.1753 62.476 27.222 62.3313 27.3153 62.238C27.418 62.1447 27.558 62.098 27.7353 62.098C27.922 62.098 28.062 62.1447 28.1553 62.238C28.258 62.3313 28.3093 62.476 28.3093 62.672V66.41C28.3093 67.0073 28.4307 67.4553 28.6733 67.754C28.9253 68.0433 29.3173 68.188 29.8493 68.188C30.428 68.188 30.8993 67.992 31.2633 67.6C31.6273 67.208 31.8093 66.6947 31.8093 66.06V62.672C31.8093 62.476 31.856 62.3313 31.9493 62.238C32.052 62.1447 32.1967 62.098 32.3833 62.098C32.5607 62.098 32.696 62.1447 32.7893 62.238C32.892 62.3313 32.9433 62.476 32.9433 62.672V68.51C32.9433 68.902 32.7613 69.098 32.3973 69.098C32.22 69.098 32.08 69.0467 31.9773 68.944C31.884 68.8413 31.8373 68.6967 31.8373 68.51V67.236L32.0193 67.432C31.8327 67.9827 31.5247 68.4027 31.0953 68.692C30.6753 68.9813 30.1853 69.126 29.6253 69.126ZM35.625 69.098C35.4383 69.098 35.2983 69.0467 35.205 68.944C35.1116 68.8413 35.065 68.6967 35.065 68.51V59.606C35.065 59.4193 35.1116 59.2793 35.205 59.186C35.2983 59.0833 35.4383 59.032 35.625 59.032C35.8023 59.032 35.9423 59.0833 36.045 59.186C36.1476 59.2793 36.199 59.4193 36.199 59.606V65.22H36.227L39.097 62.476C39.2276 62.3547 39.3396 62.2613 39.433 62.196C39.5356 62.1307 39.671 62.098 39.839 62.098C39.9883 62.098 40.105 62.14 40.189 62.224C40.273 62.2987 40.3103 62.3967 40.301 62.518C40.301 62.63 40.245 62.7513 40.133 62.882L37.081 65.78V65.164L40.399 68.286C40.5296 68.4167 40.595 68.5427 40.595 68.664C40.595 68.7853 40.5483 68.888 40.455 68.972C40.371 69.056 40.259 69.098 40.119 69.098C39.951 69.098 39.8156 69.0653 39.713 69C39.6103 68.9253 39.4843 68.818 39.335 68.678L36.227 65.808H36.199V68.51C36.199 68.902 36.0076 69.098 35.625 69.098ZM44.1386 69.126C43.672 69.126 43.252 69.0373 42.8786 68.86C42.5146 68.6733 42.2253 68.4213 42.0106 68.104C41.796 67.7867 41.6886 67.432 41.6886 67.04C41.6886 66.536 41.8146 66.1393 42.0666 65.85C42.328 65.5607 42.7526 65.3553 43.3406 65.234C43.938 65.1127 44.75 65.052 45.7766 65.052H46.4066V65.794H45.7906C45.0346 65.794 44.4373 65.8313 43.9986 65.906C43.5693 65.9713 43.266 66.088 43.0886 66.256C42.9206 66.424 42.8366 66.662 42.8366 66.97C42.8366 67.3527 42.9673 67.6653 43.2286 67.908C43.4993 68.1507 43.8633 68.272 44.3206 68.272C44.694 68.272 45.0206 68.1833 45.3006 68.006C45.59 67.8287 45.814 67.586 45.9726 67.278C46.1406 66.97 46.2246 66.6153 46.2246 66.214V64.618C46.2246 64.0393 46.108 63.624 45.8746 63.372C45.6413 63.1107 45.2586 62.98 44.7266 62.98C44.4 62.98 44.0733 63.022 43.7466 63.106C43.42 63.19 43.0746 63.3253 42.7106 63.512C42.58 63.5773 42.468 63.6007 42.3746 63.582C42.2813 63.554 42.2066 63.5027 42.1506 63.428C42.0946 63.3533 42.062 63.2693 42.0526 63.176C42.0433 63.0733 42.062 62.9753 42.1086 62.882C42.1646 62.7887 42.2486 62.714 42.3606 62.658C42.7713 62.4527 43.1773 62.3033 43.5786 62.21C43.98 62.1167 44.3626 62.07 44.7266 62.07C45.3146 62.07 45.8 62.168 46.1826 62.364C46.5653 62.5507 46.85 62.84 47.0366 63.232C47.2233 63.6147 47.3166 64.1093 47.3166 64.716V68.51C47.3166 68.6967 47.27 68.8413 47.1766 68.944C47.0926 69.0467 46.9666 69.098 46.7986 69.098C46.6213 69.098 46.486 69.0467 46.3926 68.944C46.2993 68.8413 46.2526 68.6967 46.2526 68.51V67.418H46.3786C46.304 67.7727 46.1593 68.076 45.9446 68.328C45.7393 68.58 45.4826 68.776 45.1746 68.916C44.8666 69.056 44.5213 69.126 44.1386 69.126ZM49.9944 69.098C49.8078 69.098 49.6631 69.0467 49.5604 68.944C49.4671 68.8413 49.4204 68.6967 49.4204 68.51V62.672C49.4204 62.4853 49.4671 62.3453 49.5604 62.252C49.6538 62.1493 49.7891 62.098 49.9664 62.098C50.1438 62.098 50.2791 62.1493 50.3724 62.252C50.4751 62.3453 50.5264 62.4853 50.5264 62.672V63.806H50.3864C50.5358 63.2553 50.8204 62.8307 51.2404 62.532C51.6604 62.2333 52.1784 62.0747 52.7944 62.056C52.9344 62.0467 53.0464 62.0793 53.1304 62.154C53.2144 62.2193 53.2611 62.336 53.2704 62.504C53.2798 62.6627 53.2424 62.7887 53.1584 62.882C53.0744 62.9753 52.9438 63.0313 52.7664 63.05L52.5424 63.078C51.9078 63.134 51.4178 63.3393 51.0724 63.694C50.7364 64.0393 50.5684 64.5153 50.5684 65.122V68.51C50.5684 68.6967 50.5171 68.8413 50.4144 68.944C50.3211 69.0467 50.1811 69.098 49.9944 69.098ZM58.6074 69.098C58.4207 69.098 58.2807 69.0467 58.1874 68.944C58.0941 68.8413 58.0474 68.6967 58.0474 68.51V59.606C58.0474 59.4193 58.0941 59.2793 58.1874 59.186C58.2807 59.0833 58.4207 59.032 58.6074 59.032C58.7847 59.032 58.9247 59.0833 59.0274 59.186C59.1301 59.2793 59.1814 59.4193 59.1814 59.606V65.22H59.2094L62.0794 62.476C62.2101 62.3547 62.3221 62.2613 62.4154 62.196C62.5181 62.1307 62.6534 62.098 62.8214 62.098C62.9707 62.098 63.0874 62.14 63.1714 62.224C63.2554 62.2987 63.2927 62.3967 63.2834 62.518C63.2834 62.63 63.2274 62.7513 63.1154 62.882L60.0634 65.78V65.164L63.3814 68.286C63.5121 68.4167 63.5774 68.5427 63.5774 68.664C63.5774 68.7853 63.5307 68.888 63.4374 68.972C63.3534 69.056 63.2414 69.098 63.1014 69.098C62.9334 69.098 62.7981 69.0653 62.6954 69C62.5927 68.9253 62.4667 68.818 62.3174 68.678L59.2094 65.808H59.1814V68.51C59.1814 68.902 58.9901 69.098 58.6074 69.098ZM67.9357 69.126C67.217 69.126 66.5963 68.986 66.0737 68.706C65.5603 68.4167 65.159 68.0107 64.8697 67.488C64.5897 66.9653 64.4497 66.34 64.4497 65.612C64.4497 64.9027 64.5897 64.2867 64.8697 63.764C65.1497 63.232 65.5323 62.8167 66.0177 62.518C66.5123 62.2193 67.0817 62.07 67.7257 62.07C68.183 62.07 68.5937 62.1493 68.9577 62.308C69.3217 62.4573 69.6297 62.6767 69.8817 62.966C70.143 63.2553 70.339 63.6053 70.4697 64.016C70.6097 64.4267 70.6797 64.8887 70.6797 65.402C70.6797 65.5513 70.6377 65.6633 70.5537 65.738C70.4697 65.8033 70.3483 65.836 70.1897 65.836H65.3177V65.094H69.9237L69.6997 65.276C69.6997 64.772 69.625 64.3473 69.4757 64.002C69.3263 63.6473 69.107 63.3767 68.8177 63.19C68.5377 63.0033 68.183 62.91 67.7537 62.91C67.2777 62.91 66.8717 63.022 66.5357 63.246C66.209 63.4607 65.9617 63.764 65.7937 64.156C65.6257 64.5387 65.5417 64.9867 65.5417 65.5V65.584C65.5417 66.4427 65.747 67.096 66.1577 67.544C66.5777 67.992 67.1703 68.216 67.9357 68.216C68.253 68.216 68.5657 68.174 68.8737 68.09C69.191 68.006 69.499 67.866 69.7977 67.67C69.9283 67.586 70.045 67.5487 70.1477 67.558C70.2597 67.558 70.3483 67.5907 70.4137 67.656C70.479 67.712 70.521 67.7867 70.5397 67.88C70.5677 67.964 70.5583 68.0573 70.5117 68.16C70.4743 68.2627 70.395 68.3513 70.2737 68.426C69.9657 68.65 69.6017 68.8227 69.1817 68.944C68.7617 69.0653 68.3463 69.126 67.9357 69.126ZM24.7871 88.098C24.6005 88.098 24.4558 88.0467 24.3531 87.944C24.2598 87.832 24.2131 87.6827 24.2131 87.496V78.718C24.2131 78.522 24.2645 78.3773 24.3671 78.284C24.4698 78.1813 24.6145 78.13 24.8011 78.13H28.1191C29.1738 78.13 29.9858 78.3773 30.5551 78.872C31.1245 79.3667 31.4091 80.0713 31.4091 80.986C31.4091 81.5647 31.2785 82.0687 31.0171 82.498C30.7651 82.918 30.3918 83.24 29.8971 83.464C29.4025 83.6787 28.8098 83.786 28.1191 83.786L28.2591 83.604H28.5391C28.9031 83.604 29.2205 83.6973 29.4911 83.884C29.7618 84.0707 30.0091 84.3693 30.2331 84.78L31.5771 87.286C31.6518 87.4167 31.6845 87.5473 31.6751 87.678C31.6751 87.7993 31.6331 87.902 31.5491 87.986C31.4651 88.0607 31.3438 88.098 31.1851 88.098C31.0265 88.098 30.8958 88.0607 30.7931 87.986C30.6905 87.9113 30.6018 87.804 30.5271 87.664L29.0011 84.836C28.7865 84.4347 28.5391 84.1687 28.2591 84.038C27.9791 83.898 27.6105 83.828 27.1531 83.828H25.3611V87.496C25.3611 87.6827 25.3145 87.832 25.2211 87.944C25.1278 88.0467 24.9831 88.098 24.7871 88.098ZM25.3611 82.918H27.9511C28.7165 82.918 29.2951 82.7593 29.6871 82.442C30.0791 82.1153 30.2751 81.63 30.2751 80.986C30.2751 80.3607 30.0791 79.8893 29.6871 79.572C29.2951 79.2453 28.7165 79.082 27.9511 79.082H25.3611V82.918ZM35.8324 88.126C35.2817 88.126 34.8244 88.028 34.4604 87.832C34.1057 87.6267 33.835 87.3233 33.6484 86.922C33.471 86.5207 33.3824 86.0213 33.3824 85.424V81.672C33.3824 81.476 33.429 81.3313 33.5224 81.238C33.625 81.1447 33.765 81.098 33.9424 81.098C34.129 81.098 34.269 81.1447 34.3624 81.238C34.465 81.3313 34.5164 81.476 34.5164 81.672V85.41C34.5164 86.0073 34.6377 86.4553 34.8804 86.754C35.1324 87.0433 35.5244 87.188 36.0564 87.188C36.635 87.188 37.1064 86.992 37.4704 86.6C37.8344 86.208 38.0164 85.6947 38.0164 85.06V81.672C38.0164 81.476 38.063 81.3313 38.1564 81.238C38.259 81.1447 38.4037 81.098 38.5904 81.098C38.7677 81.098 38.903 81.1447 38.9964 81.238C39.099 81.3313 39.1504 81.476 39.1504 81.672V87.51C39.1504 87.902 38.9684 88.098 38.6044 88.098C38.427 88.098 38.287 88.0467 38.1844 87.944C38.091 87.8413 38.0444 87.6967 38.0444 87.51V86.236L38.2264 86.432C38.0397 86.9827 37.7317 87.4027 37.3024 87.692C36.8824 87.9813 36.3924 88.126 35.8324 88.126ZM41.832 90.618C41.6453 90.618 41.5053 90.5667 41.412 90.464C41.3187 90.3707 41.272 90.2307 41.272 90.044V81.672C41.272 81.4853 41.3187 81.3453 41.412 81.252C41.5053 81.1493 41.6407 81.098 41.818 81.098C42.0047 81.098 42.1447 81.1493 42.238 81.252C42.3407 81.3453 42.392 81.4853 42.392 81.672V83.002L42.238 82.806C42.3873 82.274 42.6813 81.854 43.12 81.546C43.568 81.2287 44.1 81.07 44.716 81.07C45.3227 81.07 45.85 81.2147 46.298 81.504C46.7553 81.784 47.1053 82.19 47.348 82.722C47.6 83.2447 47.726 83.87 47.726 84.598C47.726 85.3167 47.6 85.942 47.348 86.474C47.1053 86.9967 46.76 87.4027 46.312 87.692C45.864 87.9813 45.332 88.126 44.716 88.126C44.1 88.126 43.5727 87.972 43.134 87.664C42.6953 87.3467 42.3967 86.9267 42.238 86.404H42.406V90.044C42.406 90.2307 42.3547 90.3707 42.252 90.464C42.1493 90.5667 42.0093 90.618 41.832 90.618ZM44.478 87.216C44.9073 87.216 45.276 87.1133 45.584 86.908C45.9013 86.7027 46.144 86.404 46.312 86.012C46.4893 85.62 46.578 85.1487 46.578 84.598C46.578 83.7487 46.3867 83.1 46.004 82.652C45.6307 82.204 45.122 81.98 44.478 81.98C44.058 81.98 43.6893 82.0827 43.372 82.288C43.0547 82.484 42.8073 82.778 42.63 83.17C42.462 83.5527 42.378 84.0287 42.378 84.598C42.378 85.438 42.5693 86.0867 42.952 86.544C43.3347 86.992 43.8433 87.216 44.478 87.216ZM49.9941 88.07C49.8075 88.07 49.6675 88.0187 49.5741 87.916C49.4808 87.804 49.4341 87.65 49.4341 87.454V81.728C49.4341 81.532 49.4808 81.3827 49.5741 81.28C49.6675 81.1773 49.8075 81.126 49.9941 81.126C50.1715 81.126 50.3115 81.1773 50.4141 81.28C50.5168 81.3827 50.5681 81.532 50.5681 81.728V87.454C50.5681 87.65 50.5168 87.804 50.4141 87.916C50.3208 88.0187 50.1808 88.07 49.9941 88.07ZM49.9941 79.558C49.7608 79.558 49.5788 79.4973 49.4481 79.376C49.3175 79.2453 49.2521 79.0727 49.2521 78.858C49.2521 78.634 49.3175 78.466 49.4481 78.354C49.5788 78.2327 49.7608 78.172 49.9941 78.172C50.2368 78.172 50.4188 78.2327 50.5401 78.354C50.6708 78.466 50.7361 78.634 50.7361 78.858C50.7361 79.0727 50.6708 79.2453 50.5401 79.376C50.4188 79.4973 50.2368 79.558 49.9941 79.558ZM54.83 88.126C54.3634 88.126 53.9434 88.0373 53.57 87.86C53.206 87.6733 52.9167 87.4213 52.702 87.104C52.4874 86.7867 52.38 86.432 52.38 86.04C52.38 85.536 52.506 85.1393 52.758 84.85C53.0194 84.5607 53.444 84.3553 54.032 84.234C54.6294 84.1127 55.4414 84.052 56.468 84.052H57.098V84.794H56.482C55.726 84.794 55.1287 84.8313 54.69 84.906C54.2607 84.9713 53.9574 85.088 53.78 85.256C53.612 85.424 53.528 85.662 53.528 85.97C53.528 86.3527 53.6587 86.6653 53.92 86.908C54.1907 87.1507 54.5547 87.272 55.012 87.272C55.3854 87.272 55.712 87.1833 55.992 87.006C56.2814 86.8287 56.5054 86.586 56.664 86.278C56.832 85.97 56.916 85.6153 56.916 85.214V83.618C56.916 83.0393 56.7994 82.624 56.566 82.372C56.3327 82.1107 55.95 81.98 55.418 81.98C55.0914 81.98 54.7647 82.022 54.438 82.106C54.1114 82.19 53.766 82.3253 53.402 82.512C53.2714 82.5773 53.1594 82.6007 53.066 82.582C52.9727 82.554 52.898 82.5027 52.842 82.428C52.786 82.3533 52.7534 82.2693 52.744 82.176C52.7347 82.0733 52.7534 81.9753 52.8 81.882C52.856 81.7887 52.94 81.714 53.052 81.658C53.4627 81.4527 53.8687 81.3033 54.27 81.21C54.6714 81.1167 55.054 81.07 55.418 81.07C56.006 81.07 56.4914 81.168 56.874 81.364C57.2567 81.5507 57.5414 81.84 57.728 82.232C57.9147 82.6147 58.008 83.1093 58.008 83.716V87.51C58.008 87.6967 57.9614 87.8413 57.868 87.944C57.784 88.0467 57.658 88.098 57.49 88.098C57.3127 88.098 57.1774 88.0467 57.084 87.944C56.9907 87.8413 56.944 87.6967 56.944 87.51V86.418H57.07C56.9954 86.7727 56.8507 87.076 56.636 87.328C56.4307 87.58 56.174 87.776 55.866 87.916C55.558 88.056 55.2127 88.126 54.83 88.126ZM60.6719 88.098C60.4852 88.098 60.3452 88.0467 60.2519 87.944C60.1585 87.8413 60.1119 87.6967 60.1119 87.51V78.606C60.1119 78.4193 60.1585 78.2793 60.2519 78.186C60.3452 78.0833 60.4852 78.032 60.6719 78.032C60.8492 78.032 60.9892 78.0833 61.0919 78.186C61.1945 78.2793 61.2459 78.4193 61.2459 78.606V82.708H61.0639C61.2599 82.1667 61.5772 81.7607 62.0159 81.49C62.4639 81.21 62.9772 81.07 63.5559 81.07C64.0972 81.07 64.5452 81.168 64.8999 81.364C65.2639 81.56 65.5345 81.8587 65.7119 82.26C65.8892 82.652 65.9779 83.1513 65.9779 83.758V87.51C65.9779 87.6967 65.9265 87.8413 65.8239 87.944C65.7305 88.0467 65.5952 88.098 65.4179 88.098C65.2312 88.098 65.0865 88.0467 64.9839 87.944C64.8905 87.8413 64.8439 87.6967 64.8439 87.51V83.828C64.8439 83.1933 64.7179 82.7313 64.4659 82.442C64.2232 82.1433 63.8312 81.994 63.2899 81.994C62.6645 81.994 62.1652 82.19 61.7919 82.582C61.4279 82.9647 61.2459 83.478 61.2459 84.122V87.51C61.2459 87.902 61.0545 88.098 60.6719 88.098Z" fill="black"/>
<g filter="url(#filter0_d_110_9885)">
<rect x="26" y="4" width="37" height="37" rx="7" fill="#1976D2"/>
</g>
<g filter="url(#filter1_d_110_9885)">
<rect x="125" y="4" width="37" height="37" rx="7" fill="#1976D2"/>
</g>
<path d="M132.689 69.098C132.511 69.098 132.371 69.0467 132.269 68.944C132.166 68.832 132.115 68.6827 132.115 68.496V60.124H128.965C128.797 60.124 128.666 60.0773 128.573 59.984C128.479 59.8907 128.433 59.7693 128.433 59.62C128.433 59.4613 128.479 59.34 128.573 59.256C128.666 59.172 128.797 59.13 128.965 59.13H136.427C136.595 59.13 136.725 59.172 136.819 59.256C136.912 59.34 136.959 59.4613 136.959 59.62C136.959 59.7787 136.912 59.9047 136.819 59.998C136.725 60.082 136.595 60.124 136.427 60.124H133.277V68.496C133.277 68.6827 133.225 68.832 133.123 68.944C133.029 69.0467 132.885 69.098 132.689 69.098ZM139.036 69.126C138.569 69.126 138.149 69.0373 137.776 68.86C137.412 68.6733 137.123 68.4213 136.908 68.104C136.693 67.7867 136.586 67.432 136.586 67.04C136.586 66.536 136.712 66.1393 136.964 65.85C137.225 65.5607 137.65 65.3553 138.238 65.234C138.835 65.1127 139.647 65.052 140.674 65.052H141.304V65.794H140.688C139.932 65.794 139.335 65.8313 138.896 65.906C138.467 65.9713 138.163 66.088 137.986 66.256C137.818 66.424 137.734 66.662 137.734 66.97C137.734 67.3527 137.865 67.6653 138.126 67.908C138.397 68.1507 138.761 68.272 139.218 68.272C139.591 68.272 139.918 68.1833 140.198 68.006C140.487 67.8287 140.711 67.586 140.87 67.278C141.038 66.97 141.122 66.6153 141.122 66.214V64.618C141.122 64.0393 141.005 63.624 140.772 63.372C140.539 63.1107 140.156 62.98 139.624 62.98C139.297 62.98 138.971 63.022 138.644 63.106C138.317 63.19 137.972 63.3253 137.608 63.512C137.477 63.5773 137.365 63.6007 137.272 63.582C137.179 63.554 137.104 63.5027 137.048 63.428C136.992 63.3533 136.959 63.2693 136.95 63.176C136.941 63.0733 136.959 62.9753 137.006 62.882C137.062 62.7887 137.146 62.714 137.258 62.658C137.669 62.4527 138.075 62.3033 138.476 62.21C138.877 62.1167 139.26 62.07 139.624 62.07C140.212 62.07 140.697 62.168 141.08 62.364C141.463 62.5507 141.747 62.84 141.934 63.232C142.121 63.6147 142.214 64.1093 142.214 64.716V68.51C142.214 68.6967 142.167 68.8413 142.074 68.944C141.99 69.0467 141.864 69.098 141.696 69.098C141.519 69.098 141.383 69.0467 141.29 68.944C141.197 68.8413 141.15 68.6967 141.15 68.51V67.418H141.276C141.201 67.7727 141.057 68.076 140.842 68.328C140.637 68.58 140.38 68.776 140.072 68.916C139.764 69.056 139.419 69.126 139.036 69.126ZM144.892 69.098C144.705 69.098 144.561 69.0467 144.458 68.944C144.365 68.8413 144.318 68.6967 144.318 68.51V62.672C144.318 62.4853 144.365 62.3453 144.458 62.252C144.551 62.1493 144.687 62.098 144.864 62.098C145.041 62.098 145.177 62.1493 145.27 62.252C145.373 62.3453 145.424 62.4853 145.424 62.672V63.806H145.284C145.433 63.2553 145.718 62.8307 146.138 62.532C146.558 62.2333 147.076 62.0747 147.692 62.056C147.832 62.0467 147.944 62.0793 148.028 62.154C148.112 62.2193 148.159 62.336 148.168 62.504C148.177 62.6627 148.14 62.7887 148.056 62.882C147.972 62.9753 147.841 63.0313 147.664 63.05L147.44 63.078C146.805 63.134 146.315 63.3393 145.97 63.694C145.634 64.0393 145.466 64.5153 145.466 65.122V68.51C145.466 68.6967 145.415 68.8413 145.312 68.944C145.219 69.0467 145.079 69.098 144.892 69.098ZM149.895 69.07C149.709 69.07 149.569 69.0187 149.475 68.916C149.382 68.804 149.335 68.65 149.335 68.454V62.728C149.335 62.532 149.382 62.3827 149.475 62.28C149.569 62.1773 149.709 62.126 149.895 62.126C150.073 62.126 150.213 62.1773 150.315 62.28C150.418 62.3827 150.469 62.532 150.469 62.728V68.454C150.469 68.65 150.418 68.804 150.315 68.916C150.222 69.0187 150.082 69.07 149.895 69.07ZM149.895 60.558C149.662 60.558 149.48 60.4973 149.349 60.376C149.219 60.2453 149.153 60.0727 149.153 59.858C149.153 59.634 149.219 59.466 149.349 59.354C149.48 59.2327 149.662 59.172 149.895 59.172C150.138 59.172 150.32 59.2327 150.441 59.354C150.572 59.466 150.637 59.634 150.637 59.858C150.637 60.0727 150.572 60.2453 150.441 60.376C150.32 60.4973 150.138 60.558 149.895 60.558ZM153.149 69.098C152.963 69.098 152.823 69.0467 152.729 68.944C152.636 68.8413 152.589 68.6967 152.589 68.51V59.606C152.589 59.4193 152.636 59.2793 152.729 59.186C152.823 59.0833 152.963 59.032 153.149 59.032C153.327 59.032 153.467 59.0833 153.569 59.186C153.672 59.2793 153.723 59.4193 153.723 59.606V65.22H153.751L156.621 62.476C156.752 62.3547 156.864 62.2613 156.957 62.196C157.06 62.1307 157.195 62.098 157.363 62.098C157.513 62.098 157.629 62.14 157.713 62.224C157.797 62.2987 157.835 62.3967 157.825 62.518C157.825 62.63 157.769 62.7513 157.657 62.882L154.605 65.78V65.164L157.923 68.286C158.054 68.4167 158.119 68.5427 158.119 68.664C158.119 68.7853 158.073 68.888 157.979 68.972C157.895 69.056 157.783 69.098 157.643 69.098C157.475 69.098 157.34 69.0653 157.237 69C157.135 68.9253 157.009 68.818 156.859 68.678L153.751 65.808H153.723V68.51C153.723 68.902 153.532 69.098 153.149 69.098ZM128.75 88C128.545 88 128.386 87.9487 128.274 87.846C128.172 87.734 128.12 87.5753 128.12 87.37V78.76C128.12 78.5547 128.172 78.4007 128.274 78.298C128.386 78.186 128.545 78.13 128.75 78.13H131.452C133.048 78.13 134.28 78.55 135.148 79.39C136.016 80.23 136.45 81.4527 136.45 83.058C136.45 83.8607 136.338 84.57 136.114 85.186C135.9 85.7927 135.578 86.306 135.148 86.726C134.719 87.146 134.196 87.4633 133.58 87.678C132.964 87.8927 132.255 88 131.452 88H128.75ZM129.268 87.02H131.368C132.022 87.02 132.586 86.936 133.062 86.768C133.548 86.6 133.949 86.3527 134.266 86.026C134.593 85.6993 134.836 85.2887 134.994 84.794C135.153 84.29 135.232 83.7113 135.232 83.058C135.232 81.742 134.91 80.7573 134.266 80.104C133.622 79.4413 132.656 79.11 131.368 79.11H129.268V87.02ZM140.499 88.126C140.032 88.126 139.612 88.0373 139.239 87.86C138.875 87.6733 138.586 87.4213 138.371 87.104C138.156 86.7867 138.049 86.432 138.049 86.04C138.049 85.536 138.175 85.1393 138.427 84.85C138.688 84.5607 139.113 84.3553 139.701 84.234C140.298 84.1127 141.11 84.052 142.137 84.052H142.767V84.794H142.151C141.395 84.794 140.798 84.8313 140.359 84.906C139.93 84.9713 139.626 85.088 139.449 85.256C139.281 85.424 139.197 85.662 139.197 85.97C139.197 86.3527 139.328 86.6653 139.589 86.908C139.86 87.1507 140.224 87.272 140.681 87.272C141.054 87.272 141.381 87.1833 141.661 87.006C141.95 86.8287 142.174 86.586 142.333 86.278C142.501 85.97 142.585 85.6153 142.585 85.214V83.618C142.585 83.0393 142.468 82.624 142.235 82.372C142.002 82.1107 141.619 81.98 141.087 81.98C140.76 81.98 140.434 82.022 140.107 82.106C139.78 82.19 139.435 82.3253 139.071 82.512C138.94 82.5773 138.828 82.6007 138.735 82.582C138.642 82.554 138.567 82.5027 138.511 82.428C138.455 82.3533 138.422 82.2693 138.413 82.176C138.404 82.0733 138.422 81.9753 138.469 81.882C138.525 81.7887 138.609 81.714 138.721 81.658C139.132 81.4527 139.538 81.3033 139.939 81.21C140.34 81.1167 140.723 81.07 141.087 81.07C141.675 81.07 142.16 81.168 142.543 81.364C142.926 81.5507 143.21 81.84 143.397 82.232C143.584 82.6147 143.677 83.1093 143.677 83.716V87.51C143.677 87.6967 143.63 87.8413 143.537 87.944C143.453 88.0467 143.327 88.098 143.159 88.098C142.982 88.098 142.846 88.0467 142.753 87.944C142.66 87.8413 142.613 87.6967 142.613 87.51V86.418H142.739C142.664 86.7727 142.52 87.076 142.305 87.328C142.1 87.58 141.843 87.776 141.535 87.916C141.227 88.056 140.882 88.126 140.499 88.126ZM146.341 88.098C146.154 88.098 146.014 88.0467 145.921 87.944C145.827 87.8413 145.781 87.6967 145.781 87.51V81.672C145.781 81.4853 145.827 81.3453 145.921 81.252C146.014 81.1493 146.149 81.098 146.327 81.098C146.504 81.098 146.639 81.1493 146.733 81.252C146.835 81.3453 146.887 81.4853 146.887 81.672V82.876L146.733 82.708C146.929 82.1667 147.246 81.7607 147.685 81.49C148.133 81.21 148.646 81.07 149.225 81.07C149.766 81.07 150.214 81.168 150.569 81.364C150.933 81.56 151.203 81.8587 151.381 82.26C151.558 82.652 151.647 83.1513 151.647 83.758V87.51C151.647 87.6967 151.595 87.8413 151.493 87.944C151.399 88.0467 151.264 88.098 151.087 88.098C150.9 88.098 150.755 88.0467 150.653 87.944C150.559 87.8413 150.513 87.6967 150.513 87.51V83.828C150.513 83.1933 150.387 82.7313 150.135 82.442C149.892 82.1433 149.5 81.994 148.959 81.994C148.333 81.994 147.834 82.19 147.461 82.582C147.097 82.9647 146.915 83.478 146.915 84.122V87.51C146.915 87.902 146.723 88.098 146.341 88.098ZM155.88 88.126C155.413 88.126 154.993 88.0373 154.62 87.86C154.256 87.6733 153.966 87.4213 153.752 87.104C153.537 86.7867 153.43 86.432 153.43 86.04C153.43 85.536 153.556 85.1393 153.808 84.85C154.069 84.5607 154.494 84.3553 155.082 84.234C155.679 84.1127 156.491 84.052 157.518 84.052H158.148V84.794H157.532C156.776 84.794 156.178 84.8313 155.74 84.906C155.31 84.9713 155.007 85.088 154.83 85.256C154.662 85.424 154.578 85.662 154.578 85.97C154.578 86.3527 154.708 86.6653 154.97 86.908C155.24 87.1507 155.604 87.272 156.062 87.272C156.435 87.272 156.762 87.1833 157.042 87.006C157.331 86.8287 157.555 86.586 157.714 86.278C157.882 85.97 157.966 85.6153 157.966 85.214V83.618C157.966 83.0393 157.849 82.624 157.616 82.372C157.382 82.1107 157 81.98 156.468 81.98C156.141 81.98 155.814 82.022 155.488 82.106C155.161 82.19 154.816 82.3253 154.452 82.512C154.321 82.5773 154.209 82.6007 154.116 82.582C154.022 82.554 153.948 82.5027 153.892 82.428C153.836 82.3533 153.803 82.2693 153.794 82.176C153.784 82.0733 153.803 81.9753 153.85 81.882C153.906 81.7887 153.99 81.714 154.102 81.658C154.512 81.4527 154.918 81.3033 155.32 81.21C155.721 81.1167 156.104 81.07 156.468 81.07C157.056 81.07 157.541 81.168 157.924 81.364C158.306 81.5507 158.591 81.84 158.778 82.232C158.964 82.6147 159.058 83.1093 159.058 83.716V87.51C159.058 87.6967 159.011 87.8413 158.918 87.944C158.834 88.0467 158.708 88.098 158.54 88.098C158.362 88.098 158.227 88.0467 158.134 87.944C158.04 87.8413 157.994 87.6967 157.994 87.51V86.418H158.12C158.045 86.7727 157.9 87.076 157.686 87.328C157.48 87.58 157.224 87.776 156.916 87.916C156.608 88.056 156.262 88.126 155.88 88.126Z" fill="black"/>
<g clip-path="url(#clip0_110_9885)">
<path d="M45 16V19L49 15L45 11V14C40.58 14 37 17.58 37 22C37 23.57 37.46 25.03 38.24 26.26L39.7 24.8C39.25 23.97 39 23.01 39 22C39 18.69 41.69 16 45 16ZM51.76 17.74L50.3 19.2C50.74 20.04 51 20.99 51 22C51 25.31 48.31 28 45 28V25L41 29L45 33V30C49.42 30 53 26.42 53 22C53 20.43 52.54 18.97 51.76 17.74Z" fill="white"/>
</g>
<g clip-path="url(#clip1_110_9885)">
<path d="M150.791 19.375H146.625V13.125H140.375V19.375H136.208L143.5 26.6667L150.791 19.375ZM136.208 28.75V30.8333H150.791V28.75H136.208Z" fill="white"/>
</g>
<defs>
<filter id="filter0_d_110_9885" x="22" y="0" width="47" height="47" filterUnits="userSpaceOnUse" color-interpolation-filters="sRGB">
<feFlood flood-opacity="0" result="BackgroundImageFix"/>
<feColorMatrix in="SourceAlpha" type="matrix" values="0 0 0 0 0 0 0 0 0 0 0 0 0 0 0 0 0 0 127 0" result="hardAlpha"/>
<feOffset dx="1" dy="1"/>
<feGaussianBlur stdDeviation="2.5"/>
<feComposite in2="hardAlpha" operator="out"/>
<feColorMatrix type="matrix" values="0 0 0 0 0 0 0 0 0 0 0 0 0 0 0 0 0 0 0.24 0"/>
<feBlend mode="normal" in2="BackgroundImageFix" result="effect1_dropShadow_110_9885"/>
<feBlend mode="normal" in="SourceGraphic" in2="effect1_dropShadow_110_9885" result="shape"/>
</filter>
<filter id="filter1_d_110_9885" x="121" y="0" width="47" height="47" filterUnits="userSpaceOnUse" color-interpolation-filters="sRGB">
<feFlood flood-opacity="0" result="BackgroundImageFix"/>
<feColorMatrix in="SourceAlpha" type="matrix" values="0 0 0 0 0 0 0 0 0 0 0 0 0 0 0 0 0 0 127 0" result="hardAlpha"/>
<feOffset dx="1" dy="1"/>
<feGaussianBlur stdDeviation="2.5"/>
<feComposite in2="hardAlpha" operator="out"/>
<feColorMatrix type="matrix" values="0 0 0 0 0 0 0 0 0 0 0 0 0 0 0 0 0 0 0.24 0"/>
<feBlend mode="normal" in2="BackgroundImageFix" result="effect1_dropShadow_110_9885"/>
<feBlend mode="normal" in="SourceGraphic" in2="effect1_dropShadow_110_9885" result="shape"/>
</filter>
<clipPath id="clip0_110_9885">
<rect width="24" height="24" fill="white" transform="translate(33 10)"/>
</clipPath>
<clipPath id="clip1_110_9885">
<rect width="25" height="25" fill="white" transform="translate(131 10)"/>
</clipPath>
</defs>
</svg>
