<svg width="39" height="45" viewBox="0 0 39 45" fill="none" xmlns="http://www.w3.org/2000/svg">
<path d="M6.16406 41.0801V42H1.89844V41.0801H6.16406ZM2.12109 33.4688V42H0.990234V33.4688H2.12109ZM7.15781 38.9004V38.7656C7.15781 38.3086 7.22422 37.8848 7.35703 37.4941C7.48984 37.0996 7.68125 36.7578 7.93125 36.4688C8.18125 36.1758 8.48398 35.9492 8.83945 35.7891C9.19492 35.625 9.59336 35.543 10.0348 35.543C10.4801 35.543 10.8805 35.625 11.2359 35.7891C11.5953 35.9492 11.9 36.1758 12.15 36.4688C12.4039 36.7578 12.5973 37.0996 12.7301 37.4941C12.8629 37.8848 12.9293 38.3086 12.9293 38.7656V38.9004C12.9293 39.3574 12.8629 39.7812 12.7301 40.1719C12.5973 40.5625 12.4039 40.9043 12.15 41.1973C11.9 41.4863 11.5973 41.7129 11.2418 41.877C10.8902 42.0371 10.4918 42.1172 10.0465 42.1172C9.60117 42.1172 9.20078 42.0371 8.84531 41.877C8.48984 41.7129 8.18516 41.4863 7.93125 41.1973C7.68125 40.9043 7.48984 40.5625 7.35703 40.1719C7.22422 39.7812 7.15781 39.3574 7.15781 38.9004ZM8.2418 38.7656V38.9004C8.2418 39.2168 8.27891 39.5156 8.35313 39.7969C8.42734 40.0742 8.53867 40.3203 8.68711 40.5352C8.83945 40.75 9.02891 40.9199 9.25547 41.0449C9.48203 41.166 9.7457 41.2266 10.0465 41.2266C10.3434 41.2266 10.6031 41.166 10.8258 41.0449C11.0523 40.9199 11.2398 40.75 11.3883 40.5352C11.5367 40.3203 11.648 40.0742 11.7223 39.7969C11.8004 39.5156 11.8395 39.2168 11.8395 38.9004V38.7656C11.8395 38.4531 11.8004 38.1582 11.7223 37.8809C11.648 37.5996 11.5348 37.3516 11.3824 37.1367C11.234 36.918 11.0465 36.7461 10.8199 36.6211C10.5973 36.4961 10.3355 36.4336 10.0348 36.4336C9.73789 36.4336 9.47617 36.4961 9.24961 36.6211C9.02695 36.7461 8.83945 36.918 8.68711 37.1367C8.53867 37.3516 8.42734 37.5996 8.35313 37.8809C8.27891 38.1582 8.2418 38.4531 8.2418 38.7656ZM18.5461 35.6602H19.5305V41.8652C19.5305 42.4238 19.4172 42.9004 19.1906 43.2949C18.9641 43.6895 18.6477 43.9883 18.2414 44.1914C17.8391 44.3984 17.3742 44.502 16.8469 44.502C16.6281 44.502 16.3703 44.4668 16.0734 44.3965C15.7805 44.3301 15.4914 44.2148 15.2063 44.0508C14.925 43.8906 14.6887 43.6738 14.4973 43.4004L15.0656 42.7559C15.3313 43.0762 15.6086 43.2988 15.8977 43.4238C16.1906 43.5488 16.4797 43.6113 16.7648 43.6113C17.1086 43.6113 17.4055 43.5469 17.6555 43.418C17.9055 43.2891 18.0988 43.0977 18.2355 42.8438C18.3762 42.5938 18.4465 42.2852 18.4465 41.918V37.0547L18.5461 35.6602ZM14.1809 38.9004V38.7773C14.1809 38.293 14.2375 37.8535 14.3508 37.459C14.468 37.0605 14.634 36.7188 14.8488 36.4336C15.0676 36.1484 15.3313 35.9297 15.6398 35.7773C15.9484 35.6211 16.2961 35.543 16.6828 35.543C17.0813 35.543 17.4289 35.6133 17.7258 35.7539C18.0266 35.8906 18.2805 36.0918 18.4875 36.3574C18.6984 36.6191 18.8645 36.9355 18.9855 37.3066C19.1066 37.6777 19.1906 38.0977 19.2375 38.5664V39.1055C19.1945 39.5703 19.1105 39.9883 18.9855 40.3594C18.8645 40.7305 18.6984 41.0469 18.4875 41.3086C18.2805 41.5703 18.0266 41.7715 17.7258 41.9121C17.425 42.0488 17.0734 42.1172 16.6711 42.1172C16.2922 42.1172 15.9484 42.0371 15.6398 41.877C15.3352 41.7168 15.0734 41.4922 14.8547 41.2031C14.6359 40.9141 14.468 40.5742 14.3508 40.1836C14.2375 39.7891 14.1809 39.3613 14.1809 38.9004ZM15.2648 38.7773V38.9004C15.2648 39.2168 15.2961 39.5137 15.3586 39.791C15.425 40.0684 15.5246 40.3125 15.6574 40.5234C15.7941 40.7344 15.968 40.9004 16.1789 41.0215C16.3898 41.1387 16.6418 41.1973 16.9348 41.1973C17.2941 41.1973 17.591 41.1211 17.8254 40.9688C18.0598 40.8164 18.2453 40.6152 18.382 40.3652C18.5227 40.1152 18.632 39.8438 18.7102 39.5508V38.1387C18.6672 37.9238 18.6008 37.7168 18.5109 37.5176C18.425 37.3145 18.3117 37.1348 18.1711 36.9785C18.0344 36.8184 17.8645 36.6914 17.6613 36.5977C17.4582 36.5039 17.2199 36.457 16.9465 36.457C16.6496 36.457 16.3938 36.5195 16.1789 36.6445C15.968 36.7656 15.7941 36.9336 15.6574 37.1484C15.5246 37.3594 15.425 37.6055 15.3586 37.8867C15.2961 38.1641 15.2648 38.4609 15.2648 38.7773ZM21.0398 38.9004V38.7656C21.0398 38.3086 21.1063 37.8848 21.2391 37.4941C21.3719 37.0996 21.5633 36.7578 21.8133 36.4688C22.0633 36.1758 22.366 35.9492 22.7215 35.7891C23.077 35.625 23.4754 35.543 23.9168 35.543C24.3621 35.543 24.7625 35.625 25.118 35.7891C25.4773 35.9492 25.782 36.1758 26.032 36.4688C26.2859 36.7578 26.4793 37.0996 26.6121 37.4941C26.7449 37.8848 26.8113 38.3086 26.8113 38.7656V38.9004C26.8113 39.3574 26.7449 39.7812 26.6121 40.1719C26.4793 40.5625 26.2859 40.9043 26.032 41.1973C25.782 41.4863 25.4793 41.7129 25.1238 41.877C24.7723 42.0371 24.3738 42.1172 23.9285 42.1172C23.4832 42.1172 23.0828 42.0371 22.7273 41.877C22.3719 41.7129 22.0672 41.4863 21.8133 41.1973C21.5633 40.9043 21.3719 40.5625 21.2391 40.1719C21.1063 39.7812 21.0398 39.3574 21.0398 38.9004ZM22.1238 38.7656V38.9004C22.1238 39.2168 22.1609 39.5156 22.2352 39.7969C22.3094 40.0742 22.4207 40.3203 22.5691 40.5352C22.7215 40.75 22.9109 40.9199 23.1375 41.0449C23.3641 41.166 23.6277 41.2266 23.9285 41.2266C24.2254 41.2266 24.4852 41.166 24.7078 41.0449C24.9344 40.9199 25.1219 40.75 25.2703 40.5352C25.4188 40.3203 25.5301 40.0742 25.6043 39.7969C25.6824 39.5156 25.7215 39.2168 25.7215 38.9004V38.7656C25.7215 38.4531 25.6824 38.1582 25.6043 37.8809C25.5301 37.5996 25.4168 37.3516 25.2645 37.1367C25.116 36.918 24.9285 36.7461 24.702 36.6211C24.4793 36.4961 24.2176 36.4336 23.9168 36.4336C23.6199 36.4336 23.3582 36.4961 23.1316 36.6211C22.909 36.7461 22.7215 36.918 22.5691 37.1367C22.4207 37.3516 22.3094 37.5996 22.2352 37.8809C22.1609 38.1582 22.1238 38.4531 22.1238 38.7656ZM32.1996 40.5352V35.6602H33.2895V42H32.2523L32.1996 40.5352ZM32.4047 39.1992L32.8559 39.1875C32.8559 39.6094 32.8109 40 32.7211 40.3594C32.6352 40.7148 32.4945 41.0234 32.2992 41.2852C32.1039 41.5469 31.848 41.752 31.5316 41.9004C31.2152 42.0449 30.8305 42.1172 30.3773 42.1172C30.0688 42.1172 29.7855 42.0723 29.5277 41.9824C29.2738 41.8926 29.0551 41.7539 28.8715 41.5664C28.6879 41.3789 28.5453 41.1348 28.4438 40.834C28.3461 40.5332 28.2973 40.1719 28.2973 39.75V35.6602H29.3813V39.7617C29.3813 40.0469 29.4125 40.2832 29.475 40.4707C29.5414 40.6543 29.6293 40.8008 29.7387 40.9102C29.852 41.0156 29.977 41.0898 30.1137 41.1328C30.2543 41.1758 30.3988 41.1973 30.5473 41.1973C31.0082 41.1973 31.3734 41.1094 31.643 40.9336C31.9125 40.7539 32.1059 40.5137 32.223 40.2129C32.3441 39.9082 32.4047 39.5703 32.4047 39.1992ZM37.7461 35.6602V36.4922H34.3184V35.6602H37.7461ZM35.4785 34.1191H36.5625V40.4297C36.5625 40.6445 36.5957 40.8066 36.6621 40.916C36.7285 41.0254 36.8145 41.0977 36.9199 41.1328C37.0254 41.168 37.1387 41.1855 37.2598 41.1855C37.3496 41.1855 37.4434 41.1777 37.541 41.1621C37.6426 41.1426 37.7188 41.127 37.7695 41.1152L37.7754 42C37.6895 42.0273 37.5762 42.0527 37.4355 42.0762C37.2988 42.1035 37.1328 42.1172 36.9375 42.1172C36.6719 42.1172 36.4277 42.0645 36.2051 41.959C35.9824 41.8535 35.8047 41.6777 35.6719 41.4316C35.543 41.1816 35.4785 40.8457 35.4785 40.4238V34.1191Z" fill="black" fill-opacity="0.38"/>
<path d="M26.5 5.11111L24.667 6.91278L28.021 10.2222H14.8V12.7778H28.021L24.667 16.0744L26.5 17.8889L33 11.5L26.5 5.11111ZM9.6 2.55556H20V0H9.6C8.17 0 7 1.15 7 2.55556V20.4444C7 21.85 8.17 23 9.6 23H20V20.4444H9.6V2.55556Z" fill="black" fill-opacity="0.38"/>
</svg>
