<svg width="28" height="45" viewBox="0 0 28 45" fill="none" xmlns="http://www.w3.org/2000/svg">
<path d="M4.14844 35.2246L1.32422 43H0.169922L3.42188 34.4688H4.16602L4.14844 35.2246ZM6.51562 43L3.68555 35.2246L3.66797 34.4688H4.41211L7.67578 43H6.51562ZM6.36914 39.8418V40.7676H1.57617V39.8418H6.36914ZM9.89414 34V43H8.8043V34H9.89414ZM13.7672 36.6602L11.0016 39.6191L9.45469 41.2246L9.3668 40.0703L10.4742 38.7461L12.443 36.6602H13.7672ZM12.777 43L10.5152 39.9766L11.0777 39.0098L14.0543 43H12.777ZM18.9152 41.5352V36.6602H20.0051V43H18.968L18.9152 41.5352ZM19.1203 40.1992L19.5715 40.1875C19.5715 40.6094 19.5266 41 19.4367 41.3594C19.3508 41.7148 19.2102 42.0234 19.0148 42.2852C18.8195 42.5469 18.5637 42.752 18.2473 42.9004C17.9309 43.0449 17.5461 43.1172 17.093 43.1172C16.7844 43.1172 16.5012 43.0723 16.2434 42.9824C15.9895 42.8926 15.7707 42.7539 15.5871 42.5664C15.4035 42.3789 15.2609 42.1348 15.1594 41.834C15.0617 41.5332 15.0129 41.1719 15.0129 40.75V36.6602H16.0969V40.7617C16.0969 41.0469 16.1281 41.2832 16.1906 41.4707C16.257 41.6543 16.3449 41.8008 16.4543 41.9102C16.5676 42.0156 16.6926 42.0898 16.8293 42.1328C16.9699 42.1758 17.1145 42.1973 17.2629 42.1973C17.7238 42.1973 18.0891 42.1094 18.3586 41.9336C18.6281 41.7539 18.8215 41.5137 18.9387 41.2129C19.0598 40.9082 19.1203 40.5703 19.1203 40.1992ZM22.8914 38.0137V43H21.8074V36.6602H22.8328L22.8914 38.0137ZM22.6336 39.5898L22.1824 39.5723C22.1863 39.1387 22.2508 38.7383 22.3758 38.3711C22.5008 38 22.6766 37.6777 22.9031 37.4043C23.1297 37.1309 23.3992 36.9199 23.7117 36.7715C24.0281 36.6191 24.3777 36.543 24.7605 36.543C25.073 36.543 25.3543 36.5859 25.6043 36.6719C25.8543 36.7539 26.0672 36.8867 26.243 37.0703C26.4227 37.2539 26.5594 37.4922 26.6531 37.7852C26.7469 38.0742 26.7938 38.4277 26.7938 38.8457V43H25.7039V38.834C25.7039 38.502 25.6551 38.2363 25.5574 38.0371C25.4598 37.834 25.3172 37.6875 25.1297 37.5977C24.9422 37.5039 24.7117 37.457 24.4383 37.457C24.1688 37.457 23.9227 37.5137 23.7 37.627C23.4813 37.7402 23.2918 37.8965 23.1316 38.0957C22.9754 38.2949 22.8523 38.5234 22.7625 38.7812C22.6766 39.0352 22.6336 39.3047 22.6336 39.5898Z" fill="black" fill-opacity="0.38"/>
<path d="M12.5 0C5.6 0 0 5.6 0 12.5C0 19.4 5.6 25 12.5 25C19.4 25 25 19.4 25 12.5C25 5.6 19.4 0 12.5 0ZM12.5 3.75C14.575 3.75 16.25 5.425 16.25 7.5C16.25 9.575 14.575 11.25 12.5 11.25C10.425 11.25 8.75 9.575 8.75 7.5C8.75 5.425 10.425 3.75 12.5 3.75ZM12.5 21.5C9.375 21.5 6.6125 19.9 5 17.475C5.0375 14.9875 10 13.625 12.5 13.625C14.9875 13.625 19.9625 14.9875 20 17.475C18.3875 19.9 15.625 21.5 12.5 21.5Z" fill="black" fill-opacity="0.38"/>
</svg>
