<svg width="144" height="144" viewBox="0 0 144 144" fill="none" xmlns="http://www.w3.org/2000/svg">
<path d="M24.6353 121.006L26.3979 122.023C26.6681 122.161 26.9672 122.232 27.2705 122.232C27.5739 122.232 27.8729 122.161 28.1432 122.023L80.2107 91.9613C80.6945 91.6733 80.6945 91.2326 80.2107 90.9533L78.4481 89.9338C78.1774 89.7975 77.8786 89.7266 77.5755 89.7266C77.2724 89.7266 76.9736 89.7975 76.7029 89.9338L24.6353 119.998C24.1515 120.275 24.1515 120.727 24.6353 121.006Z" fill="#E0E0E0"/>
<path d="M101.108 112.461C106.203 115.123 114.463 115.125 119.557 112.461C124.652 109.797 124.649 105.486 119.557 102.825C114.466 100.164 106.203 100.164 101.108 102.825C96.0134 105.486 96.0134 109.8 101.108 112.461Z" fill="#E0E0E0"/>
<path d="M94.8526 107.09C96.3847 107.89 98.8702 107.89 100.402 107.09C101.934 106.289 101.934 104.993 100.402 104.192C98.8702 103.392 96.3847 103.392 94.8526 104.192C93.3204 104.993 93.3118 106.289 94.8526 107.09Z" fill="#E0E0E0"/>
<path d="M26.7836 107.461C26.8527 104.904 26.1414 100.615 23.6156 96.3357C20.9199 91.7537 17.3603 88.6864 14.3708 89.6196C11.583 90.4836 12.1964 94.2679 16.3868 98.3863C19.3273 101.266 22.3023 104.941 23.6617 109.129L26.0175 114.526L26.7836 107.461Z" fill="#EFAC4B"/>
<path d="M26.7836 107.461C26.8527 104.904 26.1414 100.615 23.6156 96.3357C20.9199 91.7537 17.3603 88.6864 14.3708 89.6196C11.583 90.4836 12.1964 94.2679 16.3868 98.3863C19.3273 101.266 22.3023 104.941 23.6617 109.129L26.0175 114.526L26.7836 107.461Z" fill="#37474F"/>
<path d="M26.3258 109.368C26.289 109.363 26.2544 109.348 26.2267 109.323C26.1989 109.298 26.1793 109.266 26.1703 109.23C24.3761 101.926 19.8343 94.2538 15.5921 91.3536C15.5525 91.3267 15.5252 91.2853 15.5161 91.2384C15.5069 91.1915 15.5166 91.1428 15.5431 91.103C15.5705 91.0633 15.6124 91.0359 15.6598 91.0268C15.7072 91.0176 15.7563 91.0274 15.7965 91.0541C20.0993 93.9859 24.7101 101.762 26.5217 109.152C26.533 109.199 26.5254 109.248 26.5006 109.289C26.4758 109.33 26.4357 109.359 26.3892 109.371C26.368 109.373 26.3467 109.372 26.3258 109.368Z" fill="white"/>
<path d="M26.8183 115.744C25.4059 116.995 23.6899 117.854 21.8417 118.235C18.6564 118.935 17.1444 117.48 17.1444 117.48C17.1444 117.48 18.2302 114.387 20.0071 113.434C20.0071 113.434 16.9486 114.249 14.561 116.055C14.561 116.055 12.5969 116.202 11.6378 113.253C11.6378 113.253 12.6919 111.378 16.5338 110.171C16.5338 110.171 14.1233 109.713 10.7508 110.79C10.5002 110.908 9.17544 107.098 8.7348 105.318C8.29416 103.538 9.0228 103.524 10.3879 103.069C11.753 102.614 16.4935 102.095 17.4122 102.81C18.331 103.524 18.93 106.122 18.93 106.122C18.93 106.122 19.6788 104.587 19.3994 103.276C20.3554 102.94 21.3911 102.903 22.3687 103.17C23.9671 103.622 23.9153 104.391 23.9815 105.531C24.0562 106.679 23.967 107.831 23.7166 108.953C23.7166 108.953 24.7418 107.953 24.5806 104.5C24.5806 104.5 26.8039 106.185 27.7486 107.691C28.6932 109.197 28.722 113.296 26.8183 115.744Z" fill="#455A64"/>
<path d="M26.8296 115.923C26.7954 115.926 26.761 115.919 26.7308 115.902C26.7006 115.886 26.6759 115.861 26.6597 115.831C23.7422 110.592 13.717 104.901 10.2178 104.435C10.1941 104.431 10.1713 104.424 10.1507 104.412C10.1301 104.4 10.112 104.384 10.0976 104.365C10.0831 104.346 10.0726 104.324 10.0665 104.301C10.0604 104.278 10.059 104.254 10.0622 104.23C10.0694 104.183 10.0947 104.14 10.1329 104.111C10.1711 104.082 10.2191 104.069 10.2667 104.075C13.8235 104.544 24.0129 110.333 26.9765 115.655C26.9881 115.676 26.9954 115.699 26.9981 115.722C27.0007 115.746 26.9986 115.77 26.9919 115.793C26.9852 115.815 26.974 115.837 26.959 115.855C26.944 115.873 26.9255 115.889 26.9045 115.9C26.8821 115.914 26.8562 115.922 26.8296 115.923Z" fill="white"/>
<path d="M115.487 99.5931C115.487 99.5931 115.888 96.0823 117.633 93.3607C119.378 90.6391 121.777 88.9371 124.015 88.7527C126.253 88.5684 128.047 90.6334 125.665 92.0475C123.283 93.4615 119.015 94.9044 117.06 100.192L115.487 99.5931Z" fill="#EFAC4B"/>
<path opacity="0.1" d="M115.487 99.5931C115.487 99.5931 115.888 96.0823 117.633 93.3607C119.378 90.6391 121.777 88.9371 124.015 88.7527C126.253 88.5684 128.047 90.6334 125.665 92.0475C123.283 93.4615 119.015 94.9044 117.06 100.192L115.487 99.5931Z" fill="black"/>
<path d="M116.147 98.6806H116.124C116.095 98.6684 116.072 98.6454 116.059 98.6163C116.047 98.5872 116.047 98.5545 116.058 98.5251C118.42 92.7103 122.915 90.2796 124.963 89.8102C124.978 89.8063 124.994 89.8056 125.01 89.8081C125.025 89.8105 125.04 89.816 125.054 89.8244C125.067 89.8327 125.079 89.8436 125.088 89.8565C125.097 89.8694 125.104 89.884 125.107 89.8995C125.114 89.9308 125.108 89.9635 125.091 89.9905C125.073 90.0175 125.046 90.0366 125.015 90.0435C122.999 90.5043 118.604 92.8889 116.28 98.6143C116.269 98.6388 116.249 98.6588 116.225 98.6708C116.201 98.6829 116.174 98.6863 116.147 98.6806Z" fill="white"/>
<path d="M128.102 98.7493C127.897 99.2072 127.399 99.4434 126.935 99.6306C126.472 99.8178 125.968 100.019 125.717 100.451C125.213 101.315 126.042 102.551 125.498 103.398C125.372 103.568 125.212 103.71 125.029 103.817C124.846 103.923 124.643 103.991 124.433 104.017C124.085 104.067 123.735 104.099 123.384 104.112C123.217 104.109 123.051 104.095 122.886 104.072C122.402 103.964 121.896 104.018 121.446 104.227C120.752 104.616 120.539 105.491 120.118 106.165C119.858 106.564 119.514 106.901 119.111 107.154C118.708 107.407 118.255 107.57 117.783 107.631C117.472 107.672 116.89 107.729 116.573 107.551L116.507 107.51C116.464 107.463 116.424 107.414 116.386 107.363C116.384 107.357 116.384 107.35 116.386 107.343C116.262 106.891 116.464 106.422 116.472 105.952C116.474 105.924 116.474 105.896 116.472 105.869C116.455 105.324 116.438 104.786 116.426 104.244C116.4 103.248 116.389 102.248 116.397 101.249C116.397 100.601 116.325 99.8927 116.599 99.2821C116.904 98.6111 117.659 98.5967 117.944 97.9371C118.056 97.6751 118.12 97.3928 118.232 97.1279C118.402 96.738 118.676 96.4027 119.025 96.1592C119.374 95.9157 119.783 95.7735 120.208 95.7483C121.527 95.6792 122.71 96.7477 124.026 96.6498C124.366 96.6041 124.702 96.5397 125.034 96.4568C126.103 96.2581 127.338 96.5634 127.938 97.4648C128.067 97.6496 128.15 97.863 128.178 98.0868C128.207 98.3106 128.181 98.5379 128.102 98.7493Z" fill="#EFAC4B"/>
<path d="M116.257 105.261C116.228 105.253 116.204 105.234 116.189 105.208C116.175 105.182 116.171 105.151 116.179 105.122C117.999 98.2882 125.199 97.3004 126.884 97.4213C126.913 97.4249 126.94 97.4393 126.959 97.4617C126.978 97.4841 126.988 97.5128 126.988 97.5423C126.986 97.5571 126.982 97.5715 126.976 97.5847C126.969 97.5979 126.96 97.6097 126.949 97.6193C126.937 97.6289 126.924 97.6363 126.91 97.6408C126.896 97.6454 126.881 97.6472 126.867 97.646C125.219 97.5279 118.178 98.4956 116.395 105.18C116.392 105.195 116.385 105.209 116.376 105.221C116.368 105.233 116.356 105.243 116.343 105.25C116.33 105.258 116.316 105.263 116.301 105.265C116.286 105.266 116.271 105.265 116.257 105.261Z" fill="white"/>
<path d="M124.257 101.799C124.234 101.795 124.213 101.784 124.197 101.767C123.532 101.192 122.749 100.77 121.903 100.531C121.056 100.293 120.168 100.244 119.301 100.388C119.271 100.392 119.241 100.384 119.218 100.366C119.194 100.348 119.178 100.322 119.174 100.293C119.17 100.263 119.178 100.233 119.195 100.21C119.213 100.186 119.24 100.17 119.269 100.166C120.171 100.016 121.096 100.067 121.976 100.316C122.856 100.565 123.671 101.006 124.361 101.606C124.372 101.616 124.38 101.628 124.386 101.642C124.392 101.656 124.395 101.67 124.395 101.685C124.395 101.7 124.392 101.715 124.386 101.728C124.38 101.742 124.372 101.754 124.361 101.764C124.348 101.779 124.332 101.79 124.314 101.796C124.295 101.802 124.276 101.803 124.257 101.799Z" fill="white"/>
<path d="M27.5876 121.067L26.4961 120.436C26.3142 120.318 26.1628 120.159 26.0542 119.971C25.9456 119.784 25.8828 119.573 25.8711 119.356V38.3966C25.8828 38.1801 25.9456 37.9694 26.0542 37.7817C26.1628 37.5941 26.3142 37.4347 26.4961 37.3166L76.7204 8.3179C76.9136 8.21997 77.1272 8.16895 77.3439 8.16895C77.5605 8.16895 77.7742 8.21997 77.9674 8.3179L79.0618 8.94862C79.2428 9.06736 79.3934 9.22695 79.5015 9.41453C79.6095 9.60212 79.672 9.81246 79.6839 10.0286V90.9883C79.672 91.2045 79.6095 91.4148 79.5015 91.6024C79.3934 91.79 79.2428 91.9496 79.0618 92.0683L28.8346 121.067C28.6414 121.165 28.4277 121.216 28.2111 121.216C27.9944 121.216 27.7808 121.165 27.5876 121.067Z" fill="#EFAC4B"/>
<path opacity="0.4" d="M79.6783 9.92782C79.6351 9.60526 79.3731 9.48718 79.062 9.66862L28.8348 38.6673C28.6507 38.7817 28.499 38.9413 28.3942 39.131L26.0527 37.7803C26.1592 37.5909 26.3117 37.4314 26.4963 37.3166L76.7206 8.3179C76.9138 8.21997 77.1274 8.16895 77.3441 8.16895C77.5607 8.16895 77.7744 8.21997 77.9676 8.3179L79.062 8.94862C79.2287 9.05833 79.37 9.20249 79.4763 9.3714C79.5826 9.54031 79.6515 9.73004 79.6783 9.92782Z" fill="white"/>
<path opacity="0.15" d="M28.7252 121.119C28.7138 121.126 28.7011 121.131 28.6878 121.133L28.6244 121.156H28.5985L28.4833 121.185H28.4689C28.2203 121.232 27.9636 121.211 27.7259 121.125C27.6783 121.107 27.632 121.086 27.5876 121.061L26.4961 120.439C26.3153 120.32 26.1648 120.161 26.0567 119.973C25.9487 119.786 25.8861 119.575 25.874 119.359V38.3966C25.8814 38.1791 25.9439 37.9671 26.0555 37.7803L28.3969 39.131C28.2876 39.3173 28.2281 39.5285 28.2241 39.7444V120.71C28.2178 120.827 28.2513 120.943 28.3191 121.038C28.3588 121.086 28.4114 121.121 28.4706 121.14C28.5298 121.159 28.5932 121.161 28.6532 121.145L28.7252 121.119Z" fill="black"/>
<path d="M63.9969 23.2249L63.9047 23.1702L62.8679 22.574C62.4913 22.365 62.0825 22.22 61.6583 22.1449C61.4798 22.1046 61.3185 22.0585 61.1774 22.0124C61.0208 21.9602 60.8678 21.8976 60.7194 21.8252L60.7972 21.7302L59.6164 21.0505C59.52 20.995 59.4162 20.9533 59.3082 20.9266C58.8676 20.8201 58.2081 21.0764 57.5486 21.0015C57.3096 20.9769 57.0789 20.9005 56.8725 20.7777C56.6661 20.6548 56.4889 20.4885 56.3534 20.2902C55.953 19.7516 55.7111 18.807 55.3569 18.0265L55.6737 17.5686L55.5758 17.5138L54.5015 16.8918C54.32 16.7851 54.113 16.7293 53.9025 16.7305C53.5017 16.7522 53.1135 16.8783 52.7764 17.0962C50.2046 18.5823 50.1182 22.1103 49.1908 24.4287C48.2634 26.7471 46.953 27.4758 46.2388 28.4607C45.5246 29.4457 45.4756 30.1887 43.8945 32.3775C42.3134 34.5663 42.25 35.0905 42.25 35.5023V38.751L43.4193 39.4249L64.4692 27.2684L63.9969 23.2249ZM44.7009 35.7442C44.4273 35.8998 44.2026 35.6895 44.2026 35.2662C44.1996 35.0641 44.2429 34.864 44.3293 34.6812C44.4157 34.4985 44.5428 34.338 44.7009 34.2121C44.9745 34.0537 45.1962 34.2697 45.1962 34.693C45.1992 34.895 45.1555 35.0949 45.0686 35.2772C44.9817 35.4595 44.8539 35.6194 44.6951 35.7442H44.7009ZM53.9428 26.629C53.2516 27.0294 52.6468 26.8018 52.3214 26.1337C51.5063 26.2921 50.8986 25.503 50.8986 24.1494C50.8986 22.5538 51.7396 20.7769 52.7764 20.1778C52.909 20.0808 53.0624 20.0161 53.2244 19.9888C53.3864 19.9614 53.5526 19.9722 53.7097 20.0203C53.8668 20.0684 54.0106 20.1524 54.1295 20.2657C54.2485 20.3791 54.3393 20.5186 54.395 20.6732C55.2129 20.5119 55.8177 21.2982 55.8177 22.6575C55.8177 24.253 54.9796 26.03 53.9428 26.629ZM60.9326 26.367C60.659 26.5254 60.4372 26.3122 60.4372 25.8918C60.4334 25.6903 60.4761 25.4906 60.562 25.3083C60.6479 25.1259 60.7747 24.9659 60.9326 24.8406C61.2206 24.6822 61.4308 24.8953 61.4308 25.3186C61.4345 25.52 61.3914 25.7195 61.305 25.9014C61.2185 26.0833 61.091 26.2427 60.9326 26.367Z" fill="#455A64"/>
<path opacity="0.5" d="M44.5879 36.3232L42.3358 35.0186C42.2838 35.1814 42.2585 35.3516 42.2609 35.5226V38.7712L43.4302 39.4451L44.5995 38.7683L44.5879 36.3232Z" fill="#37474F"/>
<path opacity="0.5" d="M46.9271 32.2705L48.0964 29.5691L46.2388 28.4775C45.6916 29.2321 45.5332 29.8398 44.7988 31.0407L46.9271 32.2705Z" fill="#37474F"/>
<path opacity="0.5" d="M51.6071 26.8675L51.7597 26.0813C51.2413 25.8624 50.8957 25.1654 50.8957 24.1488C50.8957 22.7923 51.5034 21.3091 52.3357 20.5257L50.7028 19.584C50.0116 21.1593 49.7552 23.0169 49.1908 24.4281C49.0791 24.708 48.9532 24.982 48.8135 25.2489L51.6071 26.8675Z" fill="#37474F"/>
<path d="M63.9965 23.2244L63.9043 23.1697C63.5602 23.0085 63.1974 22.8904 62.8243 22.8183C62.2114 22.7066 61.6412 22.4275 61.177 22.0119C61.0601 21.9035 60.9328 21.8071 60.7968 21.7239C60.6983 21.6665 60.5914 21.6247 60.48 21.6001C59.7715 21.4301 58.4813 22.202 57.5539 21.001L57.5251 20.9636C56.8771 20.0996 56.641 18.1441 55.6704 17.5709L55.5725 17.5162C55.1722 17.329 54.6509 17.3636 53.9395 17.7725C51.3677 19.2586 51.2813 22.7866 50.3539 25.105C49.4266 27.4234 48.1162 28.1521 47.4019 29.137C46.6877 30.122 46.6416 30.865 45.0576 33.0538C43.4736 35.2426 43.416 35.7668 43.416 36.1786V39.4561L64.4659 27.2996V24.0423C64.4813 23.8742 64.4444 23.7056 64.3604 23.5592C64.2764 23.4128 64.1493 23.2959 63.9965 23.2244ZM45.8525 36.4177C45.5645 36.5761 45.3571 36.3629 45.3571 35.9396C45.3535 35.7377 45.3963 35.5377 45.4822 35.3549C45.5681 35.1722 45.6948 35.0116 45.8525 34.8855C46.1405 34.7271 46.3479 34.9431 46.3479 35.3665C46.3532 35.5673 46.312 35.7667 46.2276 35.949C46.1431 36.1314 46.0177 36.2918 45.8611 36.4177H45.8525ZM53.9338 26.6257C53.2426 27.026 52.6378 26.7985 52.3123 26.1303C52.1294 25.7184 52.0418 25.2704 52.056 24.8199C52.056 23.2244 52.897 21.4474 53.9338 20.8484C54.0739 20.765 54.2266 20.7047 54.3859 20.6698C55.2039 20.5085 55.8087 21.2948 55.8087 22.6541C55.8173 24.2525 54.9792 26.0295 53.9424 26.6285L53.9338 26.6257ZM62.0928 27.0375C61.8048 27.1959 61.5946 26.9828 61.5946 26.5623C61.5904 26.3604 61.6333 26.1604 61.7197 25.978C61.8062 25.7955 61.9339 25.6357 62.0928 25.5111C62.3808 25.3527 62.5882 25.5658 62.5882 25.9892C62.5933 26.19 62.552 26.3893 62.4676 26.5716C62.3832 26.7539 62.2579 26.9143 62.1015 27.0404L62.0928 27.0375Z" fill="#37474F"/>
<path d="M55.8176 22.6572C55.8176 24.2527 54.9795 26.0297 53.9427 26.6287C53.2515 27.029 52.6467 26.8015 52.3213 26.1334C52.4819 26.0998 52.6358 26.0395 52.7763 25.9548C53.8131 25.3558 54.6512 23.5788 54.6512 21.9833C54.6655 21.5328 54.5778 21.0848 54.3949 20.6729C55.2128 20.5116 55.8176 21.3122 55.8176 22.6572Z" fill="#263238"/>
<path d="M45.8607 36.4152C45.5727 36.5736 45.3625 36.3605 45.3625 35.94C45.359 35.7379 45.4021 35.5376 45.4885 35.3548C45.5749 35.172 45.7023 35.0116 45.8607 34.886C46.1343 34.7276 46.3561 34.9436 46.3561 35.3669C46.3597 35.568 46.3169 35.7672 46.231 35.949C46.1451 36.1308 46.0184 36.2904 45.8607 36.4152Z" fill="#263238"/>
<path d="M62.0981 27.0412C61.8101 27.1996 61.6028 26.9865 61.6028 26.566C61.5989 26.3641 61.6416 26.164 61.7275 25.9812C61.8134 25.7984 61.9402 25.6378 62.0981 25.5119C62.3861 25.3535 62.5964 25.5695 62.5964 25.9929C62.6001 26.1943 62.557 26.3937 62.4706 26.5757C62.3841 26.7576 62.2566 26.9169 62.0981 27.0412Z" fill="#263238"/>
<path d="M32.0922 46.2392L75.7991 21.0046C75.9153 20.9464 76.0435 20.916 76.1735 20.916C76.3034 20.916 76.4317 20.9464 76.5479 21.0046L76.9712 21.2494C77.08 21.3205 77.1706 21.4162 77.2357 21.5288C77.3007 21.6414 77.3384 21.7676 77.3456 21.8974V88.5752C77.3384 88.705 77.3007 88.8313 77.2357 88.9438C77.1706 89.0564 77.08 89.1521 76.9712 89.2232L33.2643 114.458C33.1481 114.516 33.0199 114.546 32.8899 114.546C32.7599 114.546 32.6317 114.516 32.5155 114.458L32.0922 114.213C31.9834 114.142 31.8928 114.046 31.8277 113.934C31.7627 113.821 31.725 113.695 31.7178 113.565V46.8872C31.7255 46.7575 31.7633 46.6314 31.8283 46.5189C31.8933 46.4064 31.9837 46.3106 32.0922 46.2392Z" fill="#F5F5F5"/>
<path d="M77.3312 21.7843C77.2851 21.6317 77.1411 21.5827 76.9712 21.6806L33.2643 46.9152C33.1521 46.9861 33.0607 47.0855 32.9994 47.2032L31.8301 46.5293C31.8906 46.411 31.9822 46.3114 32.095 46.2413L75.8019 21.0067C75.9172 20.9471 76.0451 20.916 76.1749 20.916C76.3047 20.916 76.4326 20.9471 76.5478 21.0067L76.9712 21.2486C77.064 21.3093 77.1436 21.388 77.2054 21.48C77.2673 21.572 77.31 21.6755 77.3312 21.7843Z" fill="#FAFAFA"/>
<path d="M33.1751 114.498C33.1304 114.515 33.0841 114.528 33.0369 114.536H32.9649C32.8893 114.544 32.8129 114.544 32.7373 114.536C32.6901 114.528 32.6438 114.515 32.5991 114.498L32.5156 114.458L32.0951 114.216C31.9861 114.145 31.8954 114.049 31.8304 113.937C31.7653 113.824 31.7277 113.698 31.7207 113.568V46.8901C31.7239 46.7597 31.7617 46.6325 31.8301 46.5215L32.9994 47.1954C32.933 47.3073 32.8954 47.434 32.89 47.564V114.242C32.89 114.446 33.0109 114.547 33.1751 114.498Z" fill="#E0E0E0"/>
<path d="M67.4988 30.4503L66.3468 29.7764C66.1635 29.6876 65.9615 29.6443 65.7579 29.6503C65.5544 29.6564 65.3552 29.7115 65.1775 29.811C63.8182 30.41 63.2307 30.675 62.5279 30.963L62.0211 31.1675C61.7475 31.2769 61.1974 31.1847 61.3673 30.2257L63.1731 25.3614H63.1471L61.9951 24.699C61.9368 24.6645 61.8722 24.642 61.8051 24.6327C61.7629 24.6295 61.7205 24.6295 61.6783 24.6327C60.9382 24.6155 60.7279 19.8462 60.7222 19.6993L60.6703 19.6705L59.5356 19.0081C59.3391 18.8967 59.1163 18.84 58.8905 18.8439C58.5156 18.8537 58.1484 18.9524 57.8191 19.1319C56.0422 20.0651 54.2479 22.8299 53.8102 25.3124C53.5222 26.8791 51.9583 29.2897 51.0483 30.1767C50.1382 31.0638 50.0748 31.8068 50.0748 31.8068L49.3663 35.8215L49.1388 37.106C48.9718 38.0651 47.9868 38.9924 47.9868 38.9924L44.3235 41.7601C42.0195 43.6667 41.3801 45.5905 40.9395 47.9723V47.9895C40.9395 48.0731 40.9395 48.1307 40.9798 48.1537C40.9859 48.1572 40.9929 48.1591 40.9999 48.1591C41.007 48.1591 41.014 48.1572 41.0201 48.1537L41.4895 47.8859L66.7126 33.339C66.8326 33.2567 66.9154 33.1305 66.943 32.9876C67.087 32.1236 67.519 30.4907 67.519 30.4907L67.4988 30.4503ZM60.2067 23.0804C59.9359 24.6068 58.8358 26.3089 57.7414 26.882C56.9868 27.2766 56.4367 27.0318 56.2524 26.3377C56.1168 26.3911 55.9699 26.4093 55.8254 26.3907C55.6809 26.372 55.5435 26.3172 55.4259 26.2311C55.0745 25.9431 58.2886 20.4395 58.5507 20.5604C58.6772 20.6257 58.7871 20.7191 58.8719 20.8334C58.9568 20.9477 59.0144 21.0799 59.0403 21.2199C59.9359 20.9463 60.4486 21.7095 60.2067 23.0804Z" fill="#455A64"/>
<path opacity="0.5" d="M44.5884 44.4299L42.751 43.3672C41.6825 44.7697 41.2563 46.2472 40.9395 47.9608V47.9781C40.9395 48.0616 40.9395 48.1192 40.9798 48.1422C40.9859 48.1458 40.9929 48.1476 40.9999 48.1476C41.007 48.1476 41.014 48.1458 41.0201 48.1422L42.4601 46.9902L44.5884 44.4299Z" fill="#37474F"/>
<path opacity="0.5" d="M49.0176 37.5296L51.6096 39.0243L52.7789 32.2707L50.4432 30.9229C50.2574 31.1901 50.1325 31.4949 50.0774 31.8157L49.3689 35.8304L49.1414 37.1148C49.1126 37.2565 49.0711 37.3953 49.0176 37.5296Z" fill="#37474F"/>
<path opacity="0.5" d="M55.0373 22.0957C54.445 23.0919 54.0299 24.1833 53.8104 25.3213C53.6261 26.1321 53.3172 26.9093 52.8945 27.6253L55.1179 28.9098L56.2209 26.3581C56.0892 26.4051 55.9481 26.4194 55.8097 26.3999C55.6712 26.3803 55.5396 26.3274 55.426 26.2458C55.2446 26.1018 56.002 24.5754 56.8257 23.1411L55.0373 22.0957Z" fill="#37474F"/>
<path d="M67.5157 30.4593H67.4984C67.317 30.3743 67.1181 30.3333 66.9179 30.3398C66.7177 30.3463 66.5219 30.4001 66.3464 30.4968C64.6789 31.2312 64.1749 31.4731 63.1784 31.8648C62.9134 31.9713 62.3806 31.8849 62.5189 30.9835C62.5175 30.9633 62.5175 30.9431 62.5189 30.923L62.7464 29.6385L63.3771 26.1393C63.3771 26.1393 63.5211 25.5892 63.1554 25.3819H63.1294C63.0392 25.3399 62.9409 25.3183 62.8414 25.3185C62.6288 25.2932 62.4246 25.2203 62.2441 25.1051C62.0636 24.9899 61.9114 24.8354 61.7989 24.6532C61.6017 24.3607 61.4654 24.0314 61.3981 23.6851C61.3308 23.3387 61.3339 22.9824 61.4072 22.6372C61.6722 21.1368 61.3813 20.0856 60.716 19.6939L60.6642 19.6622C60.235 19.4347 59.659 19.4721 58.9851 19.8264C57.2082 20.7595 55.4139 23.5243 54.9762 26.0068C54.6882 27.5736 53.1243 29.9841 52.2142 30.8712C51.3042 31.7582 51.2408 32.5012 51.2408 32.5012L50.5323 36.516L50.3048 37.8004C50.1378 38.7595 49.1528 39.6868 49.1528 39.6868L45.5038 42.4257C44.0411 43.59 42.9854 45.1882 42.4885 46.9905C42.4885 46.9905 41.1147 48.0561 41.0283 48.1425L41.4978 47.8747L66.7928 33.3336C66.7928 33.3336 67.0808 33.1752 67.147 33.1348C67.2133 33.0945 68.2299 32.1326 68.2299 32.1326C68.181 31.3032 67.939 30.7128 67.5157 30.4593ZM60.2062 23.0808C59.9355 24.6072 58.8354 26.3092 57.741 26.8824C56.9864 27.2769 56.4363 27.0321 56.252 26.338C56.17 25.9477 56.17 25.5447 56.252 25.1544C56.5227 23.628 57.6258 21.9259 58.7202 21.3556C58.8215 21.3012 58.9275 21.2559 59.037 21.2203C59.9355 20.9467 60.4482 21.7099 60.2062 23.0808Z" fill="#37474F"/>
<path d="M60.2062 23.0807C59.9355 24.6071 58.8353 26.3092 57.7409 26.8823C56.9864 27.2769 56.4363 27.0321 56.252 26.338C56.3621 26.3029 56.469 26.2586 56.5716 26.2055C57.666 25.6295 58.7691 23.9303 59.0369 22.4039C59.1201 22.0137 59.1201 21.6104 59.0369 21.2202C59.9355 20.9466 60.4481 21.7098 60.2062 23.0807Z" fill="#263238"/>
<path d="M59.1499 21.2837C59.2528 21.2772 59.3557 21.2973 59.4485 21.3422C59.5414 21.3872 59.621 21.4553 59.6798 21.54C60.132 22.1851 59.6971 23.8267 59.5099 24.3509C59.2478 25.0824 57.5515 26.796 57.0849 26.796C56.9307 26.7706 56.7833 26.7141 56.6516 26.63C56.5199 26.5458 56.4067 26.4357 56.3189 26.3064C56.242 25.9262 56.242 25.5345 56.3189 25.1544C56.5867 23.6481 57.6782 21.9662 58.7496 21.4104C58.8414 21.3585 58.9378 21.3151 59.0376 21.2808H59.1384M59.1384 21.2088H59.0232C58.9138 21.2444 58.8077 21.2897 58.7064 21.3441C57.612 21.9201 56.5089 23.6165 56.2382 25.1429C56.1563 25.5332 56.1563 25.9362 56.2382 26.3265C56.3323 26.4675 56.4546 26.5873 56.5973 26.6786C56.7401 26.7698 56.9003 26.8304 57.0677 26.8565C57.5745 26.8565 59.2795 25.1285 59.5531 24.3653C59.8267 23.6021 60.4171 21.1973 59.1269 21.1973L59.1384 21.2088Z" fill="#263238"/>
<path d="M41.0196 48.1456L66.7841 33.3337L67.1412 33.135C67.2046 33.0976 68.2241 32.1299 68.2241 32.1299L42.4769 46.9907C42.4769 46.9907 40.9159 48.1974 41.0196 48.1456Z" fill="#263238"/>
<path d="M36.4492 54.8817L43.4188 50.7979V58.905L36.4492 62.986V54.8817Z" fill="#FAFAFA"/>
<path d="M36.7371 55.046V62.4965L43.1307 58.7525V51.302L36.7371 55.046ZM36.4491 63.2741C36.3988 63.2737 36.3493 63.2609 36.3051 63.2367C36.2612 63.2113 36.2247 63.1748 36.1994 63.1308C36.1742 63.0868 36.1609 63.0369 36.1611 62.9861V54.8818C36.1607 54.8314 36.1734 54.7816 36.1982 54.7377C36.223 54.6937 36.2589 54.657 36.3023 54.6313L43.2719 50.5503C43.3156 50.525 43.3653 50.5117 43.4159 50.5117C43.4664 50.5117 43.5161 50.525 43.5599 50.5503C43.6034 50.5754 43.6396 50.6115 43.6649 50.655C43.6901 50.6984 43.7036 50.7477 43.7039 50.798V58.9052C43.7036 58.9554 43.6901 59.0047 43.6649 59.0482C43.6396 59.0916 43.6034 59.1277 43.5599 59.1529L36.5903 63.2338C36.5475 63.2592 36.4989 63.2731 36.4491 63.2741Z" fill="#455A64"/>
<path d="M46.9268 49.058V49.634C46.9268 49.9537 47.1514 50.0833 47.425 49.922L72.1642 35.643C72.3095 35.5482 72.4305 35.4207 72.5176 35.2706C72.6046 35.1206 72.6552 34.9522 72.6653 34.779V34.1886C72.6653 33.8718 72.4407 33.7422 72.1642 33.9006L47.425 48.1854C47.2788 48.281 47.1574 48.41 47.0707 48.5617C46.9841 48.7134 46.9348 48.8835 46.9268 49.058Z" fill="#E0E0E0"/>
<path d="M46.9268 52.5981V53.1741C46.9268 53.4909 47.1514 53.6205 47.425 53.4621L72.1642 39.1802C72.3098 39.0858 72.4311 38.9583 72.5182 38.8082C72.6052 38.658 72.6557 38.4895 72.6653 38.3162V37.7402C72.6653 37.4205 72.4407 37.2909 72.1642 37.4522L47.425 51.7341C47.2799 51.8289 47.1592 51.9565 47.0726 52.1066C46.9861 52.2567 46.9361 52.4251 46.9268 52.5981Z" fill="#E0E0E0"/>
<path d="M46.9268 56.1168V56.6928C46.9268 57.0096 47.1514 57.1392 47.425 56.9808L72.1642 42.6989C72.31 42.6047 72.4314 42.4772 72.5185 42.3271C72.6056 42.1769 72.6559 42.0083 72.6653 41.8349V41.2589C72.6653 40.9421 72.4407 40.8125 72.1642 40.9709L47.425 55.2528C47.2804 55.3481 47.16 55.4758 47.0735 55.6258C46.987 55.7758 46.9368 55.944 46.9268 56.1168Z" fill="#E0E0E0"/>
<path d="M40.0492 59.0229L38.4277 57.4648L39.1276 55.9845L40.0492 56.8744L43.8882 48.7471L44.5881 49.4181L40.0492 59.0229Z" fill="#EFAC4B"/>
<path d="M36.4492 69.7401L43.4188 65.6592V73.7635L36.4492 77.8445V69.7401Z" fill="#FAFAFA"/>
<path d="M36.7371 69.9042V77.3432L43.1307 73.5992V66.1602L36.7371 69.9042ZM36.4491 78.1323C36.3987 78.1327 36.349 78.1198 36.3051 78.0949C36.2612 78.0695 36.2247 78.033 36.1994 77.989C36.1741 77.945 36.1609 77.8951 36.1611 77.8443V69.74C36.1611 69.69 36.1742 69.6409 36.1989 69.5975C36.2236 69.5541 36.2593 69.5178 36.3023 69.4923L43.2719 65.4114C43.3156 65.3854 43.3654 65.3715 43.4162 65.3711C43.4671 65.3707 43.5171 65.3837 43.5613 65.4088C43.6054 65.434 43.6422 65.4704 43.6677 65.5143C43.6933 65.5583 43.7067 65.6082 43.7067 65.659V73.7634C43.7069 73.8141 43.6937 73.864 43.6684 73.908C43.6432 73.952 43.6067 73.9885 43.5627 74.0139L36.5931 78.0949C36.5492 78.1198 36.4996 78.1327 36.4491 78.1323Z" fill="#455A64"/>
<path d="M46.9268 63.9162V64.4922C46.9268 64.809 47.1514 64.9386 47.425 64.7802L72.1642 50.4983C72.31 50.404 72.4314 50.2766 72.5185 50.1264C72.6056 49.9763 72.6559 49.8076 72.6653 49.6343V49.0583C72.6653 48.7386 72.4407 48.6119 72.1642 48.7703L47.425 63.0522C47.2804 63.1474 47.16 63.2752 47.0735 63.4252C46.987 63.5752 46.9368 63.7433 46.9268 63.9162Z" fill="#E0E0E0"/>
<path d="M46.9268 67.4586V68.0346C46.9268 68.3543 47.1514 68.481 47.425 68.3226L72.1642 54.0407C72.31 53.9465 72.4314 53.819 72.5185 53.6689C72.6056 53.5187 72.6559 53.3501 72.6653 53.1767V52.6007C72.6653 52.2839 72.4407 52.1543 72.1642 52.3127L47.425 66.5975C47.2803 66.692 47.1598 66.8191 47.0733 66.9687C46.9867 67.1183 46.9365 67.2861 46.9268 67.4586Z" fill="#E0E0E0"/>
<path d="M46.9268 70.978V71.554C46.9268 71.8708 47.1514 72.0004 47.425 71.842L72.1642 57.5601C72.3098 57.4656 72.4311 57.3382 72.5182 57.188C72.6052 57.0379 72.6557 56.8694 72.6653 56.6961V56.1201C72.6653 55.8004 72.4407 55.6708 72.1642 55.8321L47.425 70.114C47.2802 70.2091 47.1598 70.3368 47.0732 70.4868C46.9867 70.6369 46.9366 70.8051 46.9268 70.978Z" fill="#E0E0E0"/>
<path d="M40.0492 73.8842L38.4277 72.3232L39.1276 70.8458L40.0492 71.7328L43.8882 63.6055L44.5881 64.2794L40.0492 73.8842Z" fill="#EFAC4B"/>
<path d="M36.4492 84.6004L43.4188 80.5166V88.6238L36.4492 92.7048V84.6004Z" fill="#FAFAFA"/>
<path d="M36.7371 84.7645V92.2035L43.1307 88.4595V81.0205L36.7371 84.7645ZM36.4491 92.9926C36.3987 92.993 36.349 92.9801 36.3051 92.9552C36.2612 92.9298 36.2247 92.8933 36.1994 92.8493C36.1742 92.8053 36.1609 92.7554 36.1611 92.7046V84.6003C36.1607 84.5498 36.1734 84.5001 36.1982 84.4562C36.223 84.4122 36.2589 84.3755 36.3023 84.3498L43.2719 80.2688C43.3158 80.2427 43.3659 80.2288 43.417 80.2285C43.468 80.2282 43.5183 80.2415 43.5625 80.267C43.6068 80.2925 43.6435 80.3293 43.6688 80.3736C43.6942 80.418 43.7072 80.4683 43.7067 80.5194V88.6237C43.7064 88.6739 43.693 88.7232 43.6677 88.7667C43.6425 88.8101 43.6063 88.8462 43.5627 88.8714L36.5931 92.9523C36.5495 92.9782 36.4999 92.9921 36.4491 92.9926Z" fill="#455A64"/>
<path d="M46.9268 78.7771V79.3531C46.9268 79.6699 47.1514 79.7995 47.425 79.6411L72.1642 65.3765C72.3098 65.2821 72.4311 65.1546 72.5182 65.0045C72.6052 64.8543 72.6557 64.6858 72.6653 64.5125V63.9365C72.6653 63.6168 72.4407 63.4872 72.1642 63.6485L47.425 77.9304C47.2825 78.0238 47.1634 78.1487 47.077 78.2956C46.9906 78.4424 46.9392 78.6072 46.9268 78.7771Z" fill="#E0E0E0"/>
<path d="M46.9268 82.3166V82.8926C46.9268 83.2094 47.1514 83.339 47.425 83.1806L72.1642 68.8987C72.31 68.8044 72.4314 68.677 72.5185 68.5268C72.6056 68.3766 72.6559 68.208 72.6653 68.0347V67.4587C72.6653 67.139 72.4407 67.0123 72.1642 67.1707L47.425 81.4526C47.2802 81.5477 47.1598 81.6754 47.0732 81.8254C46.9867 81.9754 46.9366 82.1437 46.9268 82.3166Z" fill="#E0E0E0"/>
<path d="M46.9268 85.8393V86.4153C46.9268 86.7349 47.1514 86.8617 47.425 86.7033L72.1642 72.4213C72.3101 72.3272 72.4316 72.1999 72.5188 72.0497C72.6059 71.8995 72.6561 71.7307 72.6653 71.5573V70.9669C72.6653 70.6501 72.4407 70.5205 72.1642 70.6789L47.425 84.9637C47.2784 85.0596 47.1567 85.189 47.0701 85.3413C46.9835 85.4935 46.9343 85.6642 46.9268 85.8393Z" fill="#E0E0E0"/>
<path d="M36.4492 99.4579L43.4188 95.377V103.484L36.4492 107.565V99.4579Z" fill="#FAFAFA"/>
<path d="M36.7371 99.6251V107.061L43.1307 103.317V95.8811L36.7371 99.6251ZM36.4491 107.853C36.3728 107.853 36.2995 107.823 36.2455 107.769C36.1915 107.715 36.1611 107.642 36.1611 107.565V99.458C36.1611 99.4081 36.1742 99.3589 36.1989 99.3155C36.2236 99.2721 36.2593 99.2359 36.3023 99.2104L43.2719 95.1294C43.3156 95.1041 43.3653 95.0908 43.4159 95.0908C43.4664 95.0908 43.5161 95.1041 43.5599 95.1294C43.6038 95.1548 43.6403 95.1913 43.6656 95.2353C43.6908 95.2793 43.7041 95.3292 43.7039 95.38V103.487C43.7036 103.537 43.6901 103.587 43.6648 103.63C43.6396 103.674 43.6034 103.71 43.5599 103.735L36.5903 107.816C36.5472 107.84 36.4986 107.853 36.4491 107.853Z" fill="#455A64"/>
<path d="M46.9268 93.6383V94.2143C46.9268 94.534 47.1514 94.6607 47.425 94.5023L72.1642 80.2204C72.31 80.1261 72.4314 79.9987 72.5185 79.8486C72.6056 79.6984 72.6559 79.5297 72.6653 79.3564V78.7804C72.6653 78.4636 72.4407 78.334 72.1642 78.4924L47.425 92.7772C47.2803 92.8717 47.1598 92.9988 47.0733 93.1484C46.9867 93.298 46.9365 93.4658 46.9268 93.6383Z" fill="#E0E0E0"/>
<path d="M46.9268 97.1772V97.7532C46.9268 98.0729 47.1514 98.2025 47.425 98.0412L72.1642 83.7621C72.3095 83.6674 72.4305 83.5398 72.5176 83.3898C72.6046 83.2397 72.6552 83.0713 72.6653 82.8981V82.3078C72.6653 81.991 72.4407 81.8614 72.1642 82.0198L47.425 96.3046C47.2788 96.4002 47.1574 96.5291 47.0707 96.6808C46.9841 96.8326 46.9348 97.0027 46.9268 97.1772Z" fill="#E0E0E0"/>
<path d="M46.9268 100.696V101.272C46.9268 101.589 47.1514 101.719 47.425 101.56L72.1642 87.2785C72.31 87.1843 72.4314 87.0569 72.5185 86.9067C72.6056 86.7565 72.6559 86.5879 72.6653 86.4145V85.8385C72.6653 85.5189 72.4407 85.3921 72.1642 85.5505L47.425 99.8325C47.2804 99.9277 47.16 100.055 47.0735 100.205C46.987 100.355 46.9368 100.524 46.9268 100.696Z" fill="#E0E0E0"/>
<path d="M112.264 51.3896C112.541 49.6861 111.384 48.081 109.681 47.8045C107.977 47.528 106.372 48.6847 106.095 50.3882C105.819 52.0917 106.976 53.6968 108.679 53.9733C110.383 54.2498 111.988 53.0931 112.264 51.3896Z" fill="#263238"/>
<path d="M105.455 60.6387L100.996 65.8227L95.0088 63.2307L94.8936 66.4735C94.8936 66.4735 99.7896 68.7632 100.547 68.9187C101.304 69.0742 102.03 69.2412 102.687 68.7372C103.453 68.1612 106.203 64.976 106.203 64.976L105.455 60.6387Z" fill="#FFA8A7"/>
<path d="M109.501 57.9805C107.727 57.8653 106.333 59.2132 105.29 60.4228C104.248 61.6324 102.932 63.5332 102.932 63.5332C102.932 63.5332 103.649 65.6269 105.538 66.2605L108.795 62.3927L109.501 57.9805Z" fill="#E0E0E0"/>
<path d="M116.654 103.74H114.454V107.507H116.654V103.74Z" fill="#FFA8A7"/>
<path d="M109.026 104.873L106.825 104.948L106.716 100.962L108.913 100.887L109.026 104.873Z" fill="#FFA8A7"/>
<path d="M116.508 73.8807C116.508 75.9831 116.782 88.7156 116.782 88.7156C116.831 89.3204 117.398 90.4436 117.277 92.7476C117.11 95.9156 116.836 104.103 116.836 104.103C116.836 104.103 115.805 105.126 114.348 104.103C114.348 104.103 112.355 92.7591 111.963 89.6343C111.618 86.9041 111.033 79.4938 111.033 79.4938L109.815 89.7812C109.815 89.7812 110.172 91.8318 110.253 93.2775C110.333 94.7233 109.06 102.073 109.06 102.073C108.704 102.296 108.295 102.422 107.874 102.437C107.454 102.453 107.037 102.358 106.664 102.162C106.664 102.162 105.717 90.962 105.489 89.6545C105.262 88.3469 106.218 73.8721 106.218 73.8721L116.508 73.8807Z" fill="#37474F"/>
<path d="M114.394 58.6831C114.863 58.765 115.297 58.9841 115.642 59.3127C115.986 59.6413 116.226 60.0646 116.329 60.5292C116.449 61.0779 116.509 61.638 116.508 62.1996V73.8808C114.967 75.5599 109.596 76.3432 106.218 73.8808C106.218 73.8808 106.284 63.5647 106.537 61.8684C106.975 58.925 108.384 57.8738 109.8 57.9833L113.184 58.4642L114.394 58.6831Z" fill="#F0F0F0"/>
<path d="M114.573 53.1074C114.573 53.1074 114.066 55.4834 113.864 55.8751C113.729 56.1159 113.506 56.2954 113.242 56.3762L113.277 54.7058L114.573 53.1074Z" fill="#263238"/>
<path d="M113.936 49.6998C114.113 49.6785 114.292 49.698 114.461 49.7569C114.629 49.8159 114.781 49.9125 114.907 50.0396C115.324 50.4658 115.091 51.7993 114.572 53.1068L113.619 53.2162L113.936 49.6998Z" fill="#263238"/>
<path d="M113.334 53.2169C113.524 53.3321 113.798 52.9635 114.034 52.7187C114.27 52.4739 115.039 52.1427 115.422 52.9433C115.805 53.744 115.082 54.8556 114.477 55.0457C113.432 55.374 113.276 54.7059 113.276 54.7059L113.184 58.4643C112.954 58.9695 112.602 59.4097 112.159 59.7454C111.717 60.0812 111.198 60.302 110.65 60.3881C108.798 60.6416 109.178 59.1152 109.786 58.3721V57.2201C109.32 57.2947 108.848 57.3188 108.378 57.2921C107.609 57.174 107.125 56.5664 106.894 55.7369C106.52 54.4006 106.376 53.3235 106.693 50.6969C107.041 47.8169 110.391 47.7881 112.196 48.9257C114.002 50.0633 113.334 53.2169 113.334 53.2169Z" fill="#FFA8A7"/>
<path d="M113.334 53.5392C113.429 53.5392 113.795 52.9344 114.034 52.7184C114.362 52.416 113.936 49.7001 113.936 49.7001C114.023 49.4652 114.04 49.2099 113.983 48.9658C113.927 48.7216 113.8 48.4993 113.619 48.3264C113.167 47.8281 112.412 47.7734 111.122 47.5718C110.448 47.4652 109.423 47.2838 108.746 47.1484C107.94 46.9987 107.271 46.8403 106.704 47.3356C106.482 47.5297 106.324 47.7873 106.253 48.0737C106.182 48.3601 106.201 48.6614 106.307 48.9369C106.366 49.0621 106.443 49.1776 106.537 49.2796C106.69 49.4618 106.889 49.5999 107.113 49.68C107.113 49.68 107.464 49.991 108.688 50.1408C109.818 50.2251 110.953 50.2029 112.078 50.0745C112.432 50.0284 112.507 50.3625 112.7 51.31C112.87 52.128 113.011 53.5334 113.334 53.5392Z" fill="#263238"/>
<path d="M113.936 49.9104L115.088 49.2912C115.05 49.2151 114.998 49.1472 114.934 49.0915C114.871 49.0357 114.796 48.9932 114.716 48.9664C114.636 48.9396 114.551 48.9291 114.466 48.9354C114.382 48.9417 114.299 48.9647 114.224 49.0032C114.069 49.0887 113.952 49.2305 113.899 49.3993C113.845 49.5681 113.858 49.7511 113.936 49.9104Z" fill="#263238"/>
<path d="M109.804 57.2254C109.804 57.2254 111.517 56.8798 112.108 56.5601C112.459 56.3763 112.748 56.0915 112.937 55.7422C112.846 56.0923 112.685 56.4205 112.465 56.707C112.027 57.2686 109.795 57.6804 109.795 57.6804L109.804 57.2254Z" fill="#F28F8F"/>
<path d="M110.215 52.7878C110.218 52.8549 110.24 52.9197 110.28 52.9741C110.319 53.0285 110.373 53.0702 110.436 53.094C110.499 53.1177 110.567 53.1225 110.633 53.1077C110.698 53.0929 110.758 53.0591 110.805 53.0107C110.851 52.9622 110.882 52.9012 110.894 52.8351C110.907 52.7691 110.899 52.7009 110.873 52.6391C110.846 52.5773 110.803 52.5246 110.746 52.4876C110.69 52.4505 110.625 52.4307 110.558 52.4307C110.512 52.4314 110.466 52.4413 110.424 52.4597C110.382 52.478 110.344 52.5046 110.312 52.5378C110.28 52.571 110.255 52.6102 110.238 52.6531C110.222 52.696 110.214 52.7418 110.215 52.7878Z" fill="#263238"/>
<path d="M110.593 51.4919L111.327 51.898C111.378 51.7984 111.388 51.6833 111.357 51.5762C111.325 51.4692 111.254 51.3782 111.157 51.322C111.109 51.2954 111.056 51.2787 111.002 51.2728C110.947 51.267 110.892 51.2722 110.839 51.288C110.787 51.3038 110.738 51.33 110.695 51.365C110.653 51.4001 110.618 51.4432 110.593 51.4919Z" fill="#263238"/>
<path d="M109.959 55.1602L109.173 55.4482C109.19 55.5008 109.218 55.5494 109.254 55.5912C109.29 55.633 109.334 55.6671 109.384 55.6915C109.434 55.7159 109.488 55.7302 109.543 55.7334C109.598 55.7366 109.654 55.7287 109.706 55.7102C109.809 55.6672 109.893 55.5867 109.94 55.4848C109.987 55.3828 109.994 55.2669 109.959 55.1602Z" fill="#F28F8F"/>
<path d="M107.151 51.7766L107.822 51.2611C107.791 51.2168 107.751 51.1792 107.705 51.1506C107.658 51.122 107.607 51.103 107.553 51.0946C107.499 51.0863 107.445 51.0889 107.392 51.1021C107.339 51.1154 107.29 51.1391 107.246 51.1718C107.156 51.2415 107.096 51.343 107.079 51.4554C107.061 51.5678 107.087 51.6827 107.151 51.7766Z" fill="#263238"/>
<path d="M107.359 52.7038C107.361 52.7709 107.384 52.8357 107.423 52.8901C107.462 52.9446 107.517 52.9862 107.58 53.01C107.643 53.0337 107.711 53.0385 107.776 53.0237C107.842 53.0089 107.902 52.9752 107.948 52.9267C107.995 52.8783 108.026 52.8172 108.038 52.7511C108.05 52.6851 108.043 52.6169 108.016 52.5551C107.99 52.4933 107.946 52.4406 107.89 52.4036C107.834 52.3665 107.768 52.3467 107.701 52.3467C107.655 52.3474 107.61 52.3573 107.568 52.3757C107.525 52.3941 107.487 52.4206 107.455 52.4538C107.424 52.487 107.399 52.5262 107.382 52.5691C107.365 52.612 107.357 52.6578 107.359 52.7038Z" fill="#263238"/>
<path d="M109.106 52.3643L108.994 54.4321L107.917 54.0635L109.106 52.3643Z" fill="#F28F8F"/>
<path d="M114.455 106.421V106.104C114.242 106.197 113.755 108.063 112.88 108.861C112.185 109.491 111.241 110.223 110.999 110.928C110.757 111.634 112.318 112.08 112.966 111.954C113.72 111.821 115.025 111.291 115.353 110.802C115.682 110.312 115.834 109.584 116.099 109.224C116.364 108.864 116.981 108.46 117.125 108.043C117.205 107.815 117.11 107.311 116.998 106.891C116.886 106.47 116.788 106.076 116.655 106.11C116.655 106.159 116.655 106.352 116.655 106.352C116.341 106.597 115.953 106.728 115.555 106.724C115.232 106.729 114.452 106.666 114.455 106.421Z" fill="#263238"/>
<path d="M106.802 104.256C106.687 104.256 106.595 104.423 106.344 104.694C105.967 105.075 105.529 105.39 105.048 105.627C104.225 106.039 102.623 106.672 101.898 107.001C101.445 107.202 101.466 107.749 101.935 108.06C102.404 108.371 103.533 108.596 104.89 108.294C105.63 108.13 106.592 107.447 107.194 107.482C107.796 107.516 108.945 107.51 109.394 107.194C109.843 106.877 109.665 106.22 109.535 105.653C109.397 105.031 109.198 104.08 108.994 104.123V104.319C108.729 104.72 107.384 104.895 106.802 104.587V104.256Z" fill="#263238"/>
<path d="M111.033 79.5019C109.896 79.1469 108.85 78.5473 107.969 77.7451C107.969 77.7451 108.562 78.851 110.319 79.8821L109.815 89.7893L111.033 79.5019Z" fill="#263238"/>
<path d="M101.69 94.7524L97.9861 105.561C97.9626 105.63 97.9182 105.69 97.8591 105.732C97.7999 105.774 97.729 105.797 97.6564 105.797C97.5837 105.797 97.5128 105.774 97.4537 105.732C97.3945 105.69 97.3501 105.63 97.3266 105.561L93.6719 94.666L101.69 94.7524Z" fill="#FFA8A7"/>
<path d="M97.3264 105.56C97.3499 105.629 97.3943 105.689 97.4534 105.731C97.5126 105.773 97.5834 105.796 97.6561 105.796C97.7288 105.796 97.7997 105.773 97.8588 105.731C97.918 105.689 97.9624 105.629 97.9859 105.56L98.7088 103.449C98.3971 103.617 98.0453 103.695 97.6922 103.675C97.339 103.655 96.9981 103.538 96.7072 103.337L96.5459 103.228L97.3264 105.56Z" fill="#263238"/>
<path d="M93.8132 46.4717V47.52V48.7958L93.6836 94.657C94.5303 95.6246 95.786 96.1171 97.059 96.2467C98.9972 96.4483 100.987 95.8118 101.696 94.7462L101.825 48.911V46.4717C101.73 48.0614 93.7412 48.0557 93.8132 46.4717Z" fill="#EFAC4B"/>
<path d="M93.7874 50.4948V52.8564C93.7643 53.5418 95.2274 53.9853 96.9064 54.138C99.1413 54.3511 101.774 53.7463 101.802 52.8391V51.0967V50.4746C101.771 51.3818 99.1384 51.9895 96.9064 51.7764C95.2936 51.6266 93.8824 51.2004 93.8018 50.5696C93.7917 50.546 93.7868 50.5205 93.7874 50.4948Z" fill="#EBEBEB"/>
<path d="M93.7933 51.0858C93.7357 52.6756 101.748 52.6554 101.805 51.0656V48.7012C101.748 50.2909 93.7414 50.3111 93.7933 48.7213V51.0858Z" fill="#EFAC4B"/>
<path d="M93.813 46.4717V48.8045C93.7439 50.3654 101.477 50.4115 101.825 48.9197C101.835 48.8909 101.839 48.8607 101.84 48.8304V46.4803C101.73 48.0614 93.741 48.0557 93.813 46.4717Z" fill="#EBEBEB"/>
<path opacity="0.1" d="M101.814 48.9198V46.4805C101.771 47.1947 100.135 47.7275 98.3205 47.7909L98.2082 96.293L97.9922 105.564L101.69 94.7522L101.814 48.9198Z" fill="black"/>
<path d="M93.8505 36.5761L93.813 46.4804C93.7813 47.1572 95.2213 47.6036 96.8917 47.7649C99.1266 47.9838 101.77 47.3934 101.822 46.489L101.857 36.553C101.857 34.5774 97.8479 34.0791 95.4546 34.9028C94.5589 35.1879 93.9225 35.738 93.8505 36.5761Z" fill="#F28F8F"/>
<path d="M119.858 77.1671C119.787 78.1659 119.656 79.1595 119.463 80.1421C118.803 82.6823 117.96 83.4455 116.834 83.5203C115.039 83.6384 115.028 82.9674 115.834 81.8096C116.188 81.305 116.458 80.7468 116.635 80.1565C116.371 80.3766 116.081 80.5633 115.771 80.7123C115.633 80.7847 115.473 80.8023 115.323 80.7617C115.173 80.7211 115.044 80.6253 114.962 80.4935C114.904 80.3725 115.215 80.2516 115.561 79.8311C115.998 79.2954 116.223 78.8691 116.828 78.4256C117.029 78.2268 117.156 77.966 117.191 77.6855C117.283 77.3226 117.346 71.5597 117.021 70.3674L115.489 64.8234C114.233 63.9594 112.897 59.697 114.806 58.7754C116.597 58.977 117.905 61.3213 119.86 68.5674C120.192 69.8576 120.059 75.1971 119.858 77.1671Z" fill="#FFA8A7"/>
<path d="M114.393 58.6834C114.149 58.9001 113.954 59.1662 113.82 59.4641C113.687 59.762 113.618 60.0849 113.619 60.4114C113.567 61.6181 114.134 63.3576 114.483 64.4434C114.831 65.5291 115.537 67.5048 115.537 67.5048C115.537 67.5048 118.489 67.165 119.16 65.4341C119.16 65.4341 117.777 60.9615 116.447 59.5071C116.191 59.221 115.872 58.9979 115.516 58.8551C115.16 58.7122 114.776 58.6534 114.393 58.6834Z" fill="#E0E0E0"/>
<path d="M95.5009 59.7656C95.5009 59.7656 96.218 59.1896 97.586 59.4171C98.2484 59.5265 97.995 62.0321 95.858 62.7291C94.4727 63.1841 94.1905 62.9509 93.7441 64.0885C93.7441 64.0885 92.9089 63.9157 93.1105 62.6485C93.3327 61.3363 93.9173 60.1123 94.7982 59.1147C95.4087 58.3947 95.4519 57.7899 95.7515 57.9944C96.051 58.1989 95.8811 58.8209 95.8811 58.8209L95.5009 59.7656Z" fill="#FFA8A7"/>
</svg>
