<svg width="95" height="111" viewBox="0 0 95 111" fill="none" xmlns="http://www.w3.org/2000/svg">
<g filter="url(#filter0_d_117_9890)">
<rect x="4" y="4" width="85" height="85" rx="10" fill="#1976D2"/>
</g>
<g clip-path="url(#clip0_117_9890)">
<path d="M28.6667 27.6667H43.1667V42.1667H28.6667V27.6667ZM67.3333 27.6667V42.1667H52.8333V27.6667H67.3333ZM52.8333 54.25H57.6667V49.4167H52.8333V44.5833H57.6667V49.4167H62.5V44.5833H67.3333V49.4167H62.5V54.25H67.3333V61.5H62.5V66.3333H57.6667V61.5H50.4167V66.3333H45.5833V56.6667H52.8333V54.25ZM57.6667 54.25V61.5H62.5V54.25H57.6667ZM28.6667 66.3333V51.8333H43.1667V66.3333H28.6667ZM33.5 32.5V37.3333H38.3333V32.5H33.5ZM57.6667 32.5V37.3333H62.5V32.5H57.6667ZM33.5 56.6667V61.5H38.3333V56.6667H33.5ZM28.6667 44.5833H33.5V49.4167H28.6667V44.5833ZM40.75 44.5833H50.4167V54.25H45.5833V49.4167H40.75V44.5833ZM45.5833 32.5H50.4167V42.1667H45.5833V32.5ZM23.8333 22.8333V32.5H19V22.8333C19 21.5515 19.5092 20.3221 20.4157 19.4157C21.3221 18.5092 22.5515 18 23.8333 18H33.5V22.8333H23.8333ZM72.1667 18C73.4485 18 74.6779 18.5092 75.5844 19.4157C76.4908 20.3221 77 21.5515 77 22.8333V32.5H72.1667V22.8333H62.5V18H72.1667ZM23.8333 61.5V71.1667H33.5V76H23.8333C22.5515 76 21.3221 75.4908 20.4157 74.5844C19.5092 73.6779 19 72.4485 19 71.1667V61.5H23.8333ZM72.1667 71.1667V61.5H77V71.1667C77 72.4485 76.4908 73.6779 75.5844 74.5844C74.6779 75.4908 73.4485 76 72.1667 76H62.5V71.1667H72.1667Z" fill="#F8F8F8"/>
</g>
<path d="M28.0312 105.01H25.8691L25.8574 104.102H27.8203C28.1445 104.102 28.4277 104.047 28.6699 103.938C28.9121 103.828 29.0996 103.672 29.2324 103.469C29.3691 103.262 29.4375 103.016 29.4375 102.73C29.4375 102.418 29.377 102.164 29.2559 101.969C29.1387 101.77 28.957 101.625 28.7109 101.535C28.4688 101.441 28.1602 101.395 27.7852 101.395H26.1211V109H24.9902V100.469H27.7852C28.2227 100.469 28.6133 100.514 28.957 100.604C29.3008 100.689 29.5918 100.826 29.8301 101.014C30.0723 101.197 30.2559 101.432 30.3809 101.717C30.5059 102.002 30.5684 102.344 30.5684 102.742C30.5684 103.094 30.4785 103.412 30.2988 103.697C30.1191 103.979 29.8691 104.209 29.5488 104.389C29.2324 104.568 28.8613 104.684 28.4355 104.734L28.0312 105.01ZM27.9785 109H25.4238L26.0625 108.08H27.9785C28.3379 108.08 28.6426 108.018 28.8926 107.893C29.1465 107.768 29.3398 107.592 29.4727 107.365C29.6055 107.135 29.6719 106.863 29.6719 106.551C29.6719 106.234 29.6152 105.961 29.502 105.73C29.3887 105.5 29.2109 105.322 28.9688 105.197C28.7266 105.072 28.4141 105.01 28.0312 105.01H26.4199L26.4316 104.102H28.6348L28.875 104.43C29.2852 104.465 29.6328 104.582 29.918 104.781C30.2031 104.977 30.4199 105.227 30.5684 105.531C30.7207 105.836 30.7969 106.172 30.7969 106.539C30.7969 107.07 30.6797 107.52 30.4453 107.887C30.2148 108.25 29.8887 108.527 29.4668 108.719C29.0449 108.906 28.5488 109 27.9785 109ZM36.191 107.916V104.652C36.191 104.402 36.1402 104.186 36.0387 104.002C35.941 103.814 35.7926 103.67 35.5934 103.568C35.3941 103.467 35.148 103.416 34.8551 103.416C34.5816 103.416 34.3414 103.463 34.1344 103.557C33.9313 103.65 33.7711 103.773 33.6539 103.926C33.5406 104.078 33.484 104.242 33.484 104.418H32.4C32.4 104.191 32.4586 103.967 32.5758 103.744C32.693 103.521 32.8609 103.32 33.0797 103.141C33.3023 102.957 33.568 102.812 33.8766 102.707C34.1891 102.598 34.5367 102.543 34.9195 102.543C35.3805 102.543 35.7867 102.621 36.1383 102.777C36.4938 102.934 36.7711 103.17 36.9703 103.486C37.1734 103.799 37.275 104.191 37.275 104.664V107.617C37.275 107.828 37.2926 108.053 37.3277 108.291C37.3668 108.529 37.4234 108.734 37.4977 108.906V109H36.3668C36.3121 108.875 36.2691 108.709 36.2379 108.502C36.2066 108.291 36.191 108.096 36.191 107.916ZM36.3785 105.156L36.3902 105.918H35.2945C34.9859 105.918 34.7105 105.943 34.4684 105.994C34.2262 106.041 34.023 106.113 33.859 106.211C33.6949 106.309 33.5699 106.432 33.484 106.58C33.398 106.725 33.3551 106.895 33.3551 107.09C33.3551 107.289 33.4 107.471 33.4898 107.635C33.5797 107.799 33.7145 107.93 33.8941 108.027C34.0777 108.121 34.3023 108.168 34.568 108.168C34.9 108.168 35.193 108.098 35.4469 107.957C35.7008 107.816 35.902 107.645 36.0504 107.441C36.2027 107.238 36.2848 107.041 36.2965 106.85L36.7594 107.371C36.732 107.535 36.6578 107.717 36.5367 107.916C36.4156 108.115 36.2535 108.307 36.0504 108.49C35.8512 108.67 35.6129 108.82 35.3355 108.941C35.0621 109.059 34.7535 109.117 34.4098 109.117C33.9801 109.117 33.6031 109.033 33.2789 108.865C32.9586 108.697 32.7086 108.473 32.5289 108.191C32.3531 107.906 32.2652 107.588 32.2652 107.236C32.2652 106.896 32.3316 106.598 32.4645 106.34C32.5973 106.078 32.7887 105.861 33.0387 105.689C33.2887 105.514 33.5895 105.381 33.941 105.291C34.2926 105.201 34.6852 105.156 35.1188 105.156H36.3785ZM40.2141 103.656V109H39.1301V102.66H40.1848L40.2141 103.656ZM42.1945 102.625L42.1887 103.633C42.0988 103.613 42.0129 103.602 41.9309 103.598C41.8527 103.59 41.7629 103.586 41.6613 103.586C41.4113 103.586 41.1906 103.625 40.9992 103.703C40.8078 103.781 40.6457 103.891 40.5129 104.031C40.3801 104.172 40.2746 104.34 40.1965 104.535C40.1223 104.727 40.0734 104.938 40.05 105.168L39.7453 105.344C39.7453 104.961 39.7824 104.602 39.8566 104.266C39.9348 103.93 40.0539 103.633 40.2141 103.375C40.3742 103.113 40.5773 102.91 40.8234 102.766C41.0734 102.617 41.3703 102.543 41.7141 102.543C41.7922 102.543 41.882 102.553 41.9836 102.572C42.0852 102.588 42.1555 102.605 42.1945 102.625ZM45.7664 108.227C46.0242 108.227 46.2625 108.174 46.4813 108.068C46.7 107.963 46.8797 107.818 47.0203 107.635C47.1609 107.447 47.241 107.234 47.2605 106.996H48.2918C48.2723 107.371 48.1453 107.721 47.9109 108.045C47.6805 108.365 47.3777 108.625 47.0027 108.824C46.6277 109.02 46.2156 109.117 45.7664 109.117C45.2898 109.117 44.8738 109.033 44.5184 108.865C44.1668 108.697 43.8738 108.467 43.6395 108.174C43.409 107.881 43.2352 107.545 43.118 107.166C43.0047 106.783 42.948 106.379 42.948 105.953V105.707C42.948 105.281 43.0047 104.879 43.118 104.5C43.2352 104.117 43.409 103.779 43.6395 103.486C43.8738 103.193 44.1668 102.963 44.5184 102.795C44.8738 102.627 45.2898 102.543 45.7664 102.543C46.2625 102.543 46.6961 102.645 47.0672 102.848C47.4383 103.047 47.7293 103.32 47.9402 103.668C48.1551 104.012 48.2723 104.402 48.2918 104.84H47.2605C47.241 104.578 47.1668 104.342 47.0379 104.131C46.9129 103.92 46.741 103.752 46.5223 103.627C46.3074 103.498 46.0555 103.434 45.7664 103.434C45.4344 103.434 45.1551 103.5 44.9285 103.633C44.7059 103.762 44.5281 103.938 44.3953 104.16C44.2664 104.379 44.1727 104.623 44.1141 104.893C44.0594 105.158 44.032 105.43 44.032 105.707V105.953C44.032 106.23 44.0594 106.504 44.1141 106.773C44.1688 107.043 44.2605 107.287 44.3895 107.506C44.5223 107.725 44.7 107.9 44.9227 108.033C45.1492 108.162 45.4305 108.227 45.7664 108.227ZM49.3734 105.9V105.766C49.3734 105.309 49.4398 104.885 49.5727 104.494C49.7055 104.1 49.8969 103.758 50.1469 103.469C50.3969 103.176 50.6996 102.949 51.0551 102.789C51.4105 102.625 51.809 102.543 52.2504 102.543C52.6957 102.543 53.0961 102.625 53.4516 102.789C53.8109 102.949 54.1156 103.176 54.3656 103.469C54.6195 103.758 54.8129 104.1 54.9457 104.494C55.0785 104.885 55.1449 105.309 55.1449 105.766V105.9C55.1449 106.357 55.0785 106.781 54.9457 107.172C54.8129 107.562 54.6195 107.904 54.3656 108.197C54.1156 108.486 53.8129 108.713 53.4574 108.877C53.1059 109.037 52.7074 109.117 52.2621 109.117C51.8168 109.117 51.4164 109.037 51.0609 108.877C50.7055 108.713 50.4008 108.486 50.1469 108.197C49.8969 107.904 49.7055 107.562 49.5727 107.172C49.4398 106.781 49.3734 106.357 49.3734 105.9ZM50.4574 105.766V105.9C50.4574 106.217 50.4945 106.516 50.5688 106.797C50.643 107.074 50.7543 107.32 50.9027 107.535C51.0551 107.75 51.2445 107.92 51.4711 108.045C51.6977 108.166 51.9613 108.227 52.2621 108.227C52.559 108.227 52.8188 108.166 53.0414 108.045C53.268 107.92 53.4555 107.75 53.6039 107.535C53.7523 107.32 53.8637 107.074 53.9379 106.797C54.016 106.516 54.0551 106.217 54.0551 105.9V105.766C54.0551 105.453 54.016 105.158 53.9379 104.881C53.8637 104.6 53.7504 104.352 53.598 104.137C53.4496 103.918 53.2621 103.746 53.0355 103.621C52.8129 103.496 52.5512 103.434 52.2504 103.434C51.9535 103.434 51.6918 103.496 51.4652 103.621C51.2426 103.746 51.0551 103.918 50.9027 104.137C50.7543 104.352 50.643 104.6 50.5688 104.881C50.4945 105.158 50.4574 105.453 50.4574 105.766ZM60.6504 107.77V100H61.7402V109H60.7441L60.6504 107.77ZM56.3848 105.9V105.777C56.3848 105.293 56.4434 104.854 56.5605 104.459C56.6816 104.061 56.8516 103.719 57.0703 103.434C57.293 103.148 57.5566 102.93 57.8613 102.777C58.1699 102.621 58.5137 102.543 58.8926 102.543C59.291 102.543 59.6387 102.613 59.9355 102.754C60.2363 102.891 60.4902 103.092 60.6973 103.357C60.9082 103.619 61.0742 103.936 61.1953 104.307C61.3164 104.678 61.4004 105.098 61.4473 105.566V106.105C61.4043 106.57 61.3203 106.988 61.1953 107.359C61.0742 107.73 60.9082 108.047 60.6973 108.309C60.4902 108.57 60.2363 108.771 59.9355 108.912C59.6348 109.049 59.2832 109.117 58.8809 109.117C58.5098 109.117 58.1699 109.037 57.8613 108.877C57.5566 108.717 57.293 108.492 57.0703 108.203C56.8516 107.914 56.6816 107.574 56.5605 107.184C56.4434 106.789 56.3848 106.361 56.3848 105.9ZM57.4746 105.777V105.9C57.4746 106.217 57.5059 106.514 57.5684 106.791C57.6348 107.068 57.7363 107.312 57.873 107.523C58.0098 107.734 58.1836 107.9 58.3945 108.021C58.6055 108.139 58.8574 108.197 59.1504 108.197C59.5098 108.197 59.8047 108.121 60.0352 107.969C60.2695 107.816 60.457 107.615 60.5977 107.365C60.7383 107.115 60.8477 106.844 60.9258 106.551V105.139C60.8789 104.924 60.8105 104.717 60.7207 104.518C60.6348 104.314 60.5215 104.135 60.3809 103.979C60.2441 103.818 60.0742 103.691 59.8711 103.598C59.6719 103.504 59.4355 103.457 59.1621 103.457C58.8652 103.457 58.6094 103.52 58.3945 103.645C58.1836 103.766 58.0098 103.934 57.873 104.148C57.7363 104.359 57.6348 104.605 57.5684 104.887C57.5059 105.164 57.4746 105.461 57.4746 105.777ZM66.2086 109.117C65.7672 109.117 65.3668 109.043 65.0074 108.895C64.652 108.742 64.3453 108.529 64.0875 108.256C63.8336 107.982 63.6383 107.658 63.5016 107.283C63.3648 106.908 63.2965 106.498 63.2965 106.053V105.807C63.2965 105.291 63.3727 104.832 63.525 104.43C63.6773 104.023 63.8844 103.68 64.1461 103.398C64.4078 103.117 64.7047 102.904 65.0367 102.76C65.3688 102.615 65.7125 102.543 66.068 102.543C66.5211 102.543 66.9117 102.621 67.2398 102.777C67.5719 102.934 67.8434 103.152 68.0543 103.434C68.2652 103.711 68.4215 104.039 68.523 104.418C68.6246 104.793 68.6754 105.203 68.6754 105.648V106.135H63.941V105.25H67.5914V105.168C67.5758 104.887 67.5172 104.613 67.4156 104.348C67.318 104.082 67.1617 103.863 66.9469 103.691C66.732 103.52 66.4391 103.434 66.068 103.434C65.8219 103.434 65.5953 103.486 65.3883 103.592C65.1813 103.693 65.0035 103.846 64.8551 104.049C64.7066 104.252 64.5914 104.5 64.5094 104.793C64.4273 105.086 64.3863 105.424 64.3863 105.807V106.053C64.3863 106.354 64.4273 106.637 64.5094 106.902C64.5953 107.164 64.7184 107.395 64.8785 107.594C65.0426 107.793 65.2398 107.949 65.4703 108.062C65.7047 108.176 65.9703 108.232 66.2672 108.232C66.65 108.232 66.9742 108.154 67.2398 107.998C67.5055 107.842 67.7379 107.633 67.9371 107.371L68.5934 107.893C68.4566 108.1 68.2828 108.297 68.0719 108.484C67.8609 108.672 67.6012 108.824 67.2926 108.941C66.9879 109.059 66.6266 109.117 66.2086 109.117Z" fill="black" fill-opacity="0.38"/>
<defs>
<filter id="filter0_d_117_9890" x="0" y="0" width="95" height="95" filterUnits="userSpaceOnUse" color-interpolation-filters="sRGB">
<feFlood flood-opacity="0" result="BackgroundImageFix"/>
<feColorMatrix in="SourceAlpha" type="matrix" values="0 0 0 0 0 0 0 0 0 0 0 0 0 0 0 0 0 0 127 0" result="hardAlpha"/>
<feOffset dx="1" dy="1"/>
<feGaussianBlur stdDeviation="2.5"/>
<feComposite in2="hardAlpha" operator="out"/>
<feColorMatrix type="matrix" values="0 0 0 0 0 0 0 0 0 0 0 0 0 0 0 0 0 0 0.24 0"/>
<feBlend mode="normal" in2="BackgroundImageFix" result="effect1_dropShadow_117_9890"/>
<feBlend mode="normal" in="SourceGraphic" in2="effect1_dropShadow_117_9890" result="shape"/>
</filter>
<clipPath id="clip0_117_9890">
<rect width="58" height="58" fill="white" transform="translate(19 18)"/>
</clipPath>
</defs>
</svg>
