<svg width="43" height="45" viewBox="0 0 43 45" fill="none" xmlns="http://www.w3.org/2000/svg">
<path d="M0.990234 33.4688H3.81445C4.45508 33.4688 4.99609 33.5664 5.4375 33.7617C5.88281 33.957 6.2207 34.2461 6.45117 34.6289C6.68555 35.0078 6.80273 35.4746 6.80273 36.0293C6.80273 36.4199 6.72266 36.7773 6.5625 37.1016C6.40625 37.4219 6.17969 37.6953 5.88281 37.9219C5.58984 38.1445 5.23828 38.3105 4.82812 38.4199L4.51172 38.543H1.85742L1.8457 37.623H3.84961C4.25586 37.623 4.59375 37.5527 4.86328 37.4121C5.13281 37.2676 5.33594 37.0742 5.47266 36.832C5.60938 36.5898 5.67773 36.3223 5.67773 36.0293C5.67773 35.7012 5.61328 35.4141 5.48438 35.168C5.35547 34.9219 5.15234 34.7324 4.875 34.5996C4.60156 34.4629 4.24805 34.3945 3.81445 34.3945H2.12109V42H0.990234V33.4688ZM5.97656 42L3.90234 38.1328L5.08008 38.127L7.18359 41.9297V42H5.97656ZM9.54844 35.6602V42H8.45859V35.6602H9.54844ZM8.37656 33.9785C8.37656 33.8027 8.4293 33.6543 8.53477 33.5332C8.64414 33.4121 8.8043 33.3516 9.01523 33.3516C9.22227 33.3516 9.38047 33.4121 9.48984 33.5332C9.60313 33.6543 9.65977 33.8027 9.65977 33.9785C9.65977 34.1465 9.60313 34.291 9.48984 34.4121C9.38047 34.5293 9.22227 34.5879 9.01523 34.5879C8.8043 34.5879 8.64414 34.5293 8.53477 34.4121C8.4293 34.291 8.37656 34.1465 8.37656 33.9785ZM13.0441 40.875L14.673 35.6602H15.3879L15.2473 36.6973L13.5891 42H12.8918L13.0441 40.875ZM11.9484 35.6602L13.3371 40.9336L13.4367 42H12.7043L10.8645 35.6602H11.9484ZM16.9465 40.8926L18.2707 35.6602H19.3488L17.509 42H16.7824L16.9465 40.8926ZM15.5461 35.6602L17.1398 40.7871L17.3215 42H16.6301L14.925 36.6855L14.7844 35.6602H15.5461ZM24.3504 40.916V37.6523C24.3504 37.4023 24.2996 37.1855 24.198 37.002C24.1004 36.8145 23.952 36.6699 23.7527 36.5684C23.5535 36.4668 23.3074 36.416 23.0145 36.416C22.741 36.416 22.5008 36.4629 22.2938 36.5566C22.0906 36.6504 21.9305 36.7734 21.8133 36.9258C21.7 37.0781 21.6434 37.2422 21.6434 37.418H20.5594C20.5594 37.1914 20.618 36.9668 20.7352 36.7441C20.8523 36.5215 21.0203 36.3203 21.2391 36.1406C21.4617 35.957 21.7273 35.8125 22.0359 35.707C22.3484 35.5977 22.6961 35.543 23.0789 35.543C23.5398 35.543 23.9461 35.6211 24.2977 35.7773C24.6531 35.9336 24.9305 36.1699 25.1297 36.4863C25.3328 36.7988 25.4344 37.1914 25.4344 37.6641V40.6172C25.4344 40.8281 25.452 41.0527 25.4871 41.291C25.5262 41.5293 25.5828 41.7344 25.657 41.9062V42H24.5262C24.4715 41.875 24.4285 41.709 24.3973 41.502C24.366 41.291 24.3504 41.0957 24.3504 40.916ZM24.5379 38.1562L24.5496 38.918H23.4539C23.1453 38.918 22.8699 38.9434 22.6277 38.9941C22.3855 39.041 22.1824 39.1133 22.0184 39.2109C21.8543 39.3086 21.7293 39.4316 21.6434 39.5801C21.5574 39.7246 21.5145 39.8945 21.5145 40.0898C21.5145 40.2891 21.5594 40.4707 21.6492 40.6348C21.7391 40.7988 21.8738 40.9297 22.0535 41.0273C22.2371 41.1211 22.4617 41.168 22.7273 41.168C23.0594 41.168 23.3523 41.0977 23.6063 40.957C23.8602 40.8164 24.0613 40.6445 24.2098 40.4414C24.3621 40.2383 24.4441 40.041 24.4559 39.8496L24.9188 40.3711C24.8914 40.5352 24.8172 40.7168 24.6961 40.916C24.575 41.1152 24.4129 41.3066 24.2098 41.4902C24.0105 41.6699 23.7723 41.8203 23.4949 41.9414C23.2215 42.0586 22.9129 42.1172 22.5691 42.1172C22.1395 42.1172 21.7625 42.0332 21.4383 41.8652C21.118 41.6973 20.868 41.4727 20.6883 41.1914C20.5125 40.9062 20.4246 40.5879 20.4246 40.2363C20.4246 39.8965 20.491 39.5977 20.6238 39.3398C20.7566 39.0781 20.948 38.8613 21.198 38.6895C21.448 38.5137 21.7488 38.3809 22.1004 38.291C22.452 38.2012 22.8445 38.1562 23.2781 38.1562H24.5379ZM28.977 41.3438L30.7406 35.6602H31.9008L29.3578 42.9785C29.2992 43.1348 29.2211 43.3027 29.1234 43.4824C29.0297 43.666 28.9086 43.8398 28.7602 44.0039C28.6117 44.168 28.432 44.3008 28.2211 44.4023C28.0141 44.5078 27.766 44.5605 27.477 44.5605C27.391 44.5605 27.2816 44.5488 27.1488 44.5254C27.016 44.502 26.9223 44.4824 26.8676 44.4668L26.8617 43.5879C26.893 43.5918 26.9418 43.5957 27.0082 43.5996C27.0785 43.6074 27.1273 43.6113 27.1547 43.6113C27.4008 43.6113 27.6098 43.5781 27.7816 43.5117C27.9535 43.4492 28.098 43.3418 28.2152 43.1895C28.3363 43.041 28.4398 42.8359 28.5258 42.5742L28.977 41.3438ZM27.682 35.6602L29.3285 40.582L29.6098 41.7246L28.8305 42.123L26.4984 35.6602H27.682ZM36.6738 40.916V37.6523C36.6738 37.4023 36.623 37.1855 36.5215 37.002C36.4238 36.8145 36.2754 36.6699 36.0762 36.5684C35.877 36.4668 35.6309 36.416 35.3379 36.416C35.0645 36.416 34.8242 36.4629 34.6172 36.5566C34.4141 36.6504 34.2539 36.7734 34.1367 36.9258C34.0234 37.0781 33.9668 37.2422 33.9668 37.418H32.8828C32.8828 37.1914 32.9414 36.9668 33.0586 36.7441C33.1758 36.5215 33.3438 36.3203 33.5625 36.1406C33.7852 35.957 34.0508 35.8125 34.3594 35.707C34.6719 35.5977 35.0195 35.543 35.4023 35.543C35.8633 35.543 36.2695 35.6211 36.6211 35.7773C36.9766 35.9336 37.2539 36.1699 37.4531 36.4863C37.6562 36.7988 37.7578 37.1914 37.7578 37.6641V40.6172C37.7578 40.8281 37.7754 41.0527 37.8105 41.291C37.8496 41.5293 37.9062 41.7344 37.9805 41.9062V42H36.8496C36.7949 41.875 36.752 41.709 36.7207 41.502C36.6895 41.291 36.6738 41.0957 36.6738 40.916ZM36.8613 38.1562L36.873 38.918H35.7773C35.4688 38.918 35.1934 38.9434 34.9512 38.9941C34.709 39.041 34.5059 39.1133 34.3418 39.2109C34.1777 39.3086 34.0527 39.4316 33.9668 39.5801C33.8809 39.7246 33.8379 39.8945 33.8379 40.0898C33.8379 40.2891 33.8828 40.4707 33.9727 40.6348C34.0625 40.7988 34.1973 40.9297 34.377 41.0273C34.5605 41.1211 34.7852 41.168 35.0508 41.168C35.3828 41.168 35.6758 41.0977 35.9297 40.957C36.1836 40.8164 36.3848 40.6445 36.5332 40.4414C36.6855 40.2383 36.7676 40.041 36.7793 39.8496L37.2422 40.3711C37.2148 40.5352 37.1406 40.7168 37.0195 40.916C36.8984 41.1152 36.7363 41.3066 36.5332 41.4902C36.334 41.6699 36.0957 41.8203 35.8184 41.9414C35.5449 42.0586 35.2363 42.1172 34.8926 42.1172C34.4629 42.1172 34.0859 42.0332 33.7617 41.8652C33.4414 41.6973 33.1914 41.4727 33.0117 41.1914C32.8359 40.9062 32.748 40.5879 32.748 40.2363C32.748 39.8965 32.8145 39.5977 32.9473 39.3398C33.0801 39.0781 33.2715 38.8613 33.5215 38.6895C33.7715 38.5137 34.0723 38.3809 34.4238 38.291C34.7754 38.2012 35.168 38.1562 35.6016 38.1562H36.8613ZM42.2672 35.6602V36.4922H38.8395V35.6602H42.2672ZM39.9996 34.1191H41.0836V40.4297C41.0836 40.6445 41.1168 40.8066 41.1832 40.916C41.2496 41.0254 41.3355 41.0977 41.441 41.1328C41.5465 41.168 41.6598 41.1855 41.7809 41.1855C41.8707 41.1855 41.9645 41.1777 42.0621 41.1621C42.1637 41.1426 42.2398 41.127 42.2906 41.1152L42.2965 42C42.2105 42.0273 42.0973 42.0527 41.9566 42.0762C41.8199 42.1035 41.6539 42.1172 41.4586 42.1172C41.193 42.1172 40.9488 42.0645 40.7262 41.959C40.5035 41.8535 40.3258 41.6777 40.193 41.4316C40.0641 41.1816 39.9996 40.8457 39.9996 40.4238V34.1191Z" fill="black" fill-opacity="0.38"/>
<path d="M29.6667 2.3H24.79C24.3 0.966 23.0167 0 21.5 0C19.9833 0 18.7 0.966 18.21 2.3H13.3333C12.05 2.3 11 3.335 11 4.6V20.7C11 21.965 12.05 23 13.3333 23H29.6667C30.95 23 32 21.965 32 20.7V4.6C32 3.335 30.95 2.3 29.6667 2.3ZM21.5 2.3C22.1417 2.3 22.6667 2.8175 22.6667 3.45C22.6667 4.0825 22.1417 4.6 21.5 4.6C20.8583 4.6 20.3333 4.0825 20.3333 3.45C20.3333 2.8175 20.8583 2.3 21.5 2.3ZM23.8333 18.4H15.6667V16.1H23.8333V18.4ZM27.3333 13.8H15.6667V11.5H27.3333V13.8ZM27.3333 9.2H15.6667V6.9H27.3333V9.2Z" fill="black" fill-opacity="0.38"/>
</svg>
